<svg width="16" height="16" viewBox="0 0 16 16" fill="none" xmlns="http://www.w3.org/2000/svg">
<g clip-path="url(#clip0_1429_2406)">
<path d="M10.6855 10.2627C10.3065 10.2627 9.99805 9.99578 9.99805 9.66768C9.99805 9.33956 10.3065 9.07262 10.6855 9.07262C11.0646 9.07262 11.373 9.33956 11.373 9.66768C11.373 9.84025 11.513 9.98018 11.6855 9.98018C11.8581 9.98018 11.998 9.84025 11.998 9.66768C11.998 9.09503 11.5714 8.61353 10.998 8.48284V8.32031C10.998 8.14775 10.8581 8.00781 10.6855 8.00781C10.513 8.00781 10.373 8.14775 10.373 8.32031V8.48284C9.79973 8.61353 9.37305 9.09503 9.37305 9.66768C9.37305 10.3404 9.96183 10.8877 10.6855 10.8877C11.0646 10.8877 11.373 11.1547 11.373 11.4828C11.373 11.8109 11.0646 12.0778 10.6855 12.0778C10.3065 12.0778 9.99805 11.8109 9.99805 11.4828C9.99805 11.3102 9.85811 11.1703 9.68555 11.1703C9.51298 11.1703 9.37305 11.3102 9.37305 11.4828C9.37305 12.0554 9.79973 12.5369 10.373 12.6676V12.8026C10.373 12.9752 10.513 13.1151 10.6855 13.1151C10.8581 13.1151 10.998 12.9752 10.998 12.8026V12.6676C11.5714 12.5369 11.998 12.0554 11.998 11.4828C11.998 10.81 11.4093 10.2627 10.6855 10.2627Z" fill="#292929"/>
<path d="M14.1092 8.40129C13.701 7.76519 13.1259 7.25619 12.446 6.92938C12.2904 6.85457 12.1037 6.92007 12.029 7.07563C11.9542 7.23119 12.0197 7.41788 12.1752 7.49266C13.3599 8.06216 14.1254 9.279 14.1254 10.5927C14.1254 11.1548 13.9868 11.7123 13.7248 12.2049C13.6437 12.3572 13.7015 12.5465 13.8538 12.6276C13.9006 12.6524 13.9508 12.6642 14.0003 12.6642C14.1122 12.6642 14.2203 12.6041 14.2765 12.4985C14.5865 11.9158 14.7504 11.2568 14.7504 10.5927C14.7504 9.81269 14.5287 9.05491 14.1092 8.40129Z" fill="#292929"/>
<path d="M11.1773 6.53128L11.1562 6.53125C10.9837 6.53125 10.8438 6.67116 10.8438 6.84375C10.8438 7.01634 10.9837 7.15625 11.1562 7.15625L11.1743 7.15628C11.1748 7.15628 11.1753 7.15628 11.1758 7.15628C11.3477 7.15628 11.4875 7.01734 11.4883 6.84525C11.4891 6.67266 11.3498 6.53209 11.1773 6.53128Z" fill="#292929"/>
<path d="M9.20015 13.695C8.01547 13.1255 7.25 11.9086 7.25 10.595C7.25 10.0329 7.38856 9.4754 7.65065 8.98277C7.73172 8.83043 7.67394 8.64118 7.52156 8.56012C7.36925 8.47906 7.17994 8.53684 7.09891 8.68921C6.78887 9.27187 6.625 9.93087 6.625 10.595C6.625 11.375 6.84672 12.1327 7.26619 12.7864C7.6744 13.4225 8.24953 13.9315 8.92937 14.2583C8.97303 14.2793 9.01915 14.2892 9.06456 14.2892C9.18093 14.2892 9.29262 14.224 9.34643 14.1121C9.42115 13.9565 9.35571 13.7698 9.20015 13.695Z" fill="#292929"/>
<path d="M10.2187 14.0313L10.2006 14.0313C10.0273 14.0309 9.8875 14.1697 9.88672 14.3423C9.88591 14.5149 10.0252 14.6554 10.1978 14.6562L10.2187 14.6563C10.3913 14.6563 10.5312 14.5164 10.5312 14.3438C10.5312 14.1713 10.3913 14.0313 10.2187 14.0313Z" fill="#292929"/>
<path d="M12.1065 5.47399C12.0685 5.38336 12.0219 5.29796 11.9677 5.21874H12.7812C13.5738 5.21874 14.2187 4.57387 14.2187 3.78124C14.2187 2.98862 13.5738 2.34375 12.7812 2.34375H10.2787C10.4378 2.11243 10.5312 1.83259 10.5312 1.53125C10.5312 0.738624 9.88636 0.09375 9.09373 0.09375H1.4375C0.644874 0.09375 0 0.738624 0 1.53125C0 2.32387 0.644874 2.96874 1.4375 2.96874H3.93999C3.7809 3.20006 3.68749 3.4799 3.68749 3.78124C3.68749 4.08259 3.78087 4.36243 3.93999 4.59374H3.12499C2.33237 4.59374 1.6875 5.23862 1.6875 6.03124C1.6875 6.48646 1.90043 6.89267 2.23171 7.15624C1.90043 7.4198 1.6875 7.82602 1.6875 8.28123C1.6875 8.73645 1.90043 9.14267 2.23171 9.40623C1.90043 9.66979 1.6875 10.076 1.6875 10.5312C1.6875 10.9864 1.90043 11.3927 2.23171 11.6562C1.90043 11.9198 1.6875 12.326 1.6875 12.7812C1.6875 13.5738 2.33237 14.2187 3.12499 14.2187H6.8078C7.77799 15.2564 9.15817 15.9063 10.6875 15.9063C13.6168 15.9063 16 13.5231 16 10.5938C16 8.15574 14.3491 6.09633 12.1065 5.47399ZM12.7812 2.96874C13.2293 2.96874 13.5937 3.33324 13.5937 3.78124C13.5937 4.22924 13.2293 4.59374 12.7812 4.59374H10.7812H5.12499C4.67696 4.59374 4.31249 4.22924 4.31249 3.78124C4.31249 3.33324 4.67696 2.96874 5.12499 2.96874H12.7812ZM1.4375 2.34375C0.989467 2.34375 0.624999 1.97925 0.624999 1.53125C0.624999 1.08325 0.989467 0.718749 1.4375 0.718749H9.09373C9.54176 0.718749 9.90623 1.08325 9.90623 1.53125C9.90623 1.97925 9.54176 2.34375 9.09373 2.34375H1.4375ZM3.12499 5.21874H10.7812C10.9071 5.21874 11.0276 5.24799 11.1358 5.30036C10.9879 5.28796 10.8385 5.28127 10.6875 5.28127C9.22048 5.28127 7.89048 5.87905 6.92817 6.84374H3.12499C2.67699 6.84374 2.3125 6.47924 2.3125 6.03124C2.3125 5.58324 2.67699 5.21874 3.12499 5.21874ZM3.12499 7.46874H6.39421C6.03946 7.95477 5.76518 8.50295 5.59099 9.09373H3.12499C2.67696 9.09373 2.3125 8.72927 2.3125 8.28123C2.3125 7.83324 2.67696 7.46874 3.12499 7.46874ZM3.12499 9.71873H5.44749C5.40008 10.0035 5.37502 10.2957 5.37502 10.5938C5.37502 10.8483 5.39343 11.0986 5.42821 11.3437H3.12499C2.67696 11.3437 2.3125 10.9793 2.3125 10.5312C2.3125 10.0832 2.67696 9.71873 3.12499 9.71873ZM3.12499 13.5937C2.67696 13.5937 2.3125 13.2293 2.3125 12.7812C2.3125 12.3332 2.67696 11.9687 3.12499 11.9687H5.5558C5.71349 12.5566 5.96965 13.1045 6.30558 13.5937H3.12499ZM10.6875 15.2813C8.10283 15.2813 6.00002 13.1784 6.00002 10.5938C6.00002 8.00908 8.10283 5.90627 10.6875 5.90627C13.2722 5.90627 15.375 8.00908 15.375 10.5938C15.375 13.1784 13.2722 15.2813 10.6875 15.2813Z" fill="#292929"/>
</g>
<defs>
<clipPath id="clip0_1429_2406">
<rect width="16" height="16" fill="white"/>
</clipPath>
</defs>
</svg>
