<svg width="22" height="22" viewBox="0 0 22 22" fill="none" xmlns="http://www.w3.org/2000/svg">
<g clip-path="url(#clip0_1429_2469)">
<path d="M16.5977 13.5834H21.8424V9.36719H16.5977V13.5834ZM18.9769 10.6661C19.3591 10.6661 19.6689 11.0286 19.6689 11.4746C19.6689 11.9219 19.3591 12.2836 18.9769 12.2836C18.5946 12.2836 18.2848 11.9219 18.2848 11.4746C18.2852 11.0286 18.5946 10.6661 18.9769 10.6661Z" fill="#7966FF"/>
<path d="M16.2085 8.59132H21.8424V5.46732C21.8424 4.70878 21.3079 4.09141 20.6507 4.09141H19.4815L19.0053 1.43032C18.9086 0.887197 18.6203 0.435739 18.2156 0.189156C17.8989 -0.00334441 17.5345 -0.0510111 17.1912 0.0557806L4.37757 4.02678C4.04253 4.12991 3.74599 4.37695 3.54341 4.72116L3.55349 4.72757C3.43478 4.94161 3.36328 5.19461 3.36328 5.46732V11.9211C3.88257 11.7708 4.4312 11.6869 4.99953 11.6869C8.17624 11.6869 10.7603 14.2059 10.7603 17.3024C10.7603 17.8029 10.692 18.2938 10.5596 18.7704H20.6502C21.3075 18.7704 21.8419 18.1526 21.8419 17.3945V14.364H16.2085C15.9936 14.364 15.8194 14.1899 15.8194 13.9749V8.98045C15.8199 8.76503 15.994 8.59132 16.2085 8.59132ZM6.79803 4.09141L17.4222 0.798739C17.5528 0.758406 17.6844 0.776739 17.8127 0.854197C18.0231 0.982531 18.1835 1.24882 18.2403 1.56782L18.6922 4.09141H6.79803Z" fill="#7966FF"/>
<path d="M5.00049 12.6016C2.33024 12.6016 0.158203 14.709 0.158203 17.299C0.158203 19.8891 2.32979 21.9965 5.00049 21.9965C7.00524 21.9965 8.82666 20.775 9.53341 18.9564C9.7392 18.4279 9.84324 17.8701 9.84324 17.299C9.84324 14.709 7.67074 12.6016 5.00049 12.6016ZM6.86637 17.7583H5.45929V19.1654C5.45929 19.4193 5.25349 19.6241 5.00049 19.6241C4.74704 19.6241 4.5417 19.4193 4.5417 19.1654V17.7583H3.13462C2.88116 17.7583 2.67583 17.5529 2.67583 17.299C2.67583 17.0456 2.88162 16.8402 3.13462 16.8402H4.5417V15.4331C4.5417 15.1792 4.74704 14.9744 5.00049 14.9744C5.25395 14.9744 5.45929 15.1792 5.45929 15.4331V16.8402H6.86637C7.11983 16.8402 7.32516 17.0456 7.32516 17.299C7.32562 17.5529 7.11983 17.7583 6.86637 17.7583Z" fill="#C9C2FF"/>
</g>
<defs>
<clipPath id="clip0_1429_2469">
<rect width="22" height="22" fill="white"/>
</clipPath>
</defs>
</svg>
