<svg width="16" height="15" viewBox="0 0 16 15" fill="none" xmlns="http://www.w3.org/2000/svg">
<path d="M14.0347 10.6219L13.1797 9.46875C13.063 9.312 13.0002 9.12554 12.9997 8.93438V5.625C12.9997 4.3818 12.4729 3.18951 11.5352 2.31044C10.5975 1.43136 9.32576 0.9375 7.99967 0.9375C6.67359 0.9375 5.40182 1.43136 4.46414 2.31044C3.52646 3.18951 2.99967 4.3818 2.99967 5.625V8.93438C2.99919 9.12554 2.93638 9.312 2.81967 9.46875L1.96467 10.6219C1.83521 10.7564 1.75008 10.9231 1.71957 11.102C1.68907 11.2809 1.71449 11.4642 1.79277 11.6298C1.87105 11.7954 1.99883 11.9362 2.16066 12.0352C2.3225 12.1342 2.51145 12.1871 2.70467 12.1875H5.54967C5.66443 12.7173 5.97104 13.1937 6.41754 13.5358C6.86405 13.8779 7.423 14.0649 7.99967 14.0649C8.57635 14.0649 9.1353 13.8779 9.5818 13.5358C10.0283 13.1937 10.3349 12.7173 10.4497 12.1875H13.2947C13.4879 12.1871 13.6768 12.1342 13.8387 12.0352C14.0005 11.9362 14.1283 11.7954 14.2066 11.6298C14.2849 11.4642 14.3103 11.2809 14.2798 11.102C14.2493 10.9231 14.1641 10.7564 14.0347 10.6219ZM7.99967 13.125C7.6902 13.1242 7.38857 13.0337 7.13614 12.8658C6.88371 12.698 6.69283 12.461 6.58967 12.1875H9.40967C9.30652 12.461 9.11564 12.698 8.86321 12.8658C8.61077 13.0337 8.30915 13.1242 7.99967 13.125ZM2.70467 11.25C2.72727 11.2303 2.7474 11.2083 2.76467 11.1844L3.63967 10.0031C3.87309 9.68962 3.99871 9.3167 3.99967 8.93438V5.625C3.99967 4.63044 4.4211 3.67661 5.17125 2.97335C5.92139 2.27009 6.93881 1.875 7.99967 1.875C9.06054 1.875 10.078 2.27009 10.8281 2.97335C11.5782 3.67661 11.9997 4.63044 11.9997 5.625V8.93438C12.0006 9.3167 12.1263 9.68962 12.3597 10.0031L13.2347 11.1844C13.2519 11.2083 13.2721 11.2303 13.2947 11.25H2.70467Z" fill="white"/>
</svg>
