<svg width="22" height="22" viewBox="0 0 22 22" fill="none" xmlns="http://www.w3.org/2000/svg">
<g clip-path="url(#clip0_1429_2480)">
<path d="M4.32919 16.55L2.49592 15.6333C2.27043 15.5224 1.99454 15.6122 1.88085 15.8387L0.964233 17.672C0.851488 17.8983 0.943136 18.1733 1.16957 18.287C1.23647 18.32 1.30616 18.3356 1.37491 18.3356C1.54265 18.3356 1.7049 18.243 1.78465 18.0826L2.49596 16.6591L3.9195 17.3704C4.14684 17.4823 4.42183 17.3924 4.53457 17.1651C4.64728 16.9386 4.55559 16.6636 4.32919 16.55Z" fill="#7966FF"/>
<path d="M6.8783 20.1702C4.5244 20.1628 3.01931 18.0592 2.74797 15.9858C2.71407 15.7337 2.46839 15.554 2.23374 15.5907C1.98166 15.6237 1.80566 15.8538 1.83776 16.1049C2.1604 18.5734 3.99457 21.0776 6.87371 21.0868C6.87461 21.0868 6.87461 21.0868 6.87555 21.0868C7.12854 21.0868 7.33388 20.8815 7.33478 20.6294C7.33569 20.3773 7.13035 20.1711 6.8783 20.1702Z" fill="#7966FF"/>
<path d="M20.8292 3.71107C20.6028 3.60108 20.3279 3.68998 20.2142 3.91641L19.5028 5.33995L18.0793 4.62863C17.8529 4.51774 17.5779 4.60754 17.4642 4.83397C17.3515 5.06037 17.4431 5.33536 17.6696 5.44905L19.5028 6.36566C19.5697 6.39866 19.6394 6.41426 19.7082 6.41426C19.8759 6.41426 20.0382 6.32166 20.1179 6.15942L21.0345 4.32615C21.1473 4.09971 21.0556 3.82472 20.8292 3.71107Z" fill="#C9C2FF"/>
<path d="M20.1621 5.89596C19.8395 3.42746 18.0053 0.923257 15.1262 0.914062C15.1253 0.914062 15.1253 0.914062 15.1243 0.914062C14.8723 0.914062 14.667 1.1194 14.666 1.37145C14.6651 1.62353 14.8704 1.82977 15.1225 1.83068C17.4764 1.83802 18.9815 3.94169 19.2528 6.0151C19.2831 6.24609 19.4802 6.41384 19.7066 6.41384C19.7277 6.41384 19.7469 6.41293 19.7662 6.41018C20.0182 6.37719 20.1942 6.1471 20.1621 5.89596Z" fill="#C9C2FF"/>
<path d="M11.916 12.3769C11.916 13.0286 12.7181 13.5914 13.7493 13.7225V11.0312C12.7181 11.1624 11.916 11.7252 11.916 12.3769Z" fill="#7966FF"/>
<path d="M14.666 14.6953V17.3866C15.6981 17.2555 16.4993 16.6917 16.4993 16.041C16.4993 15.3892 15.6972 14.8264 14.666 14.6953Z" fill="#7966FF"/>
<path d="M14.2073 6.41406C9.91112 6.41406 6.41602 9.90917 6.41602 14.2054C6.41602 18.5016 9.91112 21.9967 14.2073 21.9967C18.5036 21.9967 21.9987 18.5016 21.9987 14.2054C21.9987 9.90917 18.5036 6.41406 14.2073 6.41406ZM17.4156 16.0387C17.4156 17.211 16.2377 18.1423 14.6657 18.2982V18.7886C14.6657 19.0415 14.4603 19.2469 14.2073 19.2469C13.9544 19.2469 13.749 19.0415 13.749 18.7886V18.2982C12.177 18.1423 10.9991 17.2111 10.9991 16.0387C10.9991 15.7857 11.2045 15.5803 11.4575 15.5803C11.7105 15.5803 11.9158 15.7857 11.9158 16.0387C11.9158 16.6904 12.7179 17.2532 13.7491 17.3843V14.6316C12.177 14.4758 10.9992 13.5445 10.9992 12.3721C10.9992 11.1997 12.177 10.2685 13.7491 10.1126V9.62224C13.7491 9.36925 13.9544 9.16391 14.2074 9.16391C14.4604 9.16391 14.6657 9.36925 14.6657 9.62224V10.1126C16.2378 10.2685 17.4156 11.1997 17.4156 12.3721C17.4156 12.6251 17.2103 12.8305 16.9573 12.8305C16.7043 12.8305 16.499 12.6251 16.499 12.3721C16.499 11.7204 15.6969 11.1576 14.6657 11.0265V13.7792C16.2386 13.935 17.4156 14.8663 17.4156 16.0387Z" fill="#7966FF"/>
<path d="M13.6156 5.53002C12.9886 2.3814 10.2057 0 6.87472 0C3.08353 0 0 3.08353 0 6.87472C0 10.2057 2.3805 12.9886 5.53002 13.6156C5.60062 12.5807 5.85636 11.5972 6.2569 10.6925C6.22115 10.7759 6.17715 10.8538 6.14325 10.9372C4.70965 10.7062 3.6665 9.8125 3.6665 8.70795V8.24966H3.20817C2.95518 8.24966 2.74984 8.04432 2.74984 7.79133C2.74984 7.53834 2.95518 7.333 3.20817 7.333H3.6665V6.41639H3.20817C2.95518 6.41639 2.74984 6.21105 2.74984 5.95806C2.74984 5.70507 2.95518 5.49977 3.20817 5.49977H3.6665V5.04145C3.6665 3.75635 5.07535 2.74989 6.87472 2.74989C8.67409 2.74989 10.0829 3.75635 10.0829 5.04145C10.0829 5.29444 9.8776 5.49977 9.62461 5.49977C9.37162 5.49977 9.16628 5.29444 9.16628 5.04145C9.16628 4.29623 8.11672 3.6665 6.87472 3.6665C5.63271 3.6665 4.58316 4.29623 4.58316 5.04145V5.49977H7.79138C8.04437 5.49977 8.24971 5.70511 8.24971 5.9581C8.24971 6.21109 8.04437 6.41643 7.79138 6.41643H4.58316V7.33305H7.79138C8.04437 7.33305 8.24971 7.53839 8.24971 7.79138C8.24971 7.83262 8.23686 7.86837 8.2268 7.90687C9.65301 6.55298 11.5312 5.67117 13.6156 5.53002Z" fill="#C9C2FF"/>
<path d="M7.9077 8.22656C7.8701 8.23571 7.83345 8.24946 7.7922 8.24946H4.58398V8.70779C4.58398 9.38701 5.45755 9.96359 6.5529 10.0626C6.48966 10.1781 6.44201 10.3027 6.38516 10.4219C6.77839 9.6116 7.29447 8.87279 7.9077 8.22656Z" fill="#C9C2FF"/>
</g>
<defs>
<clipPath id="clip0_1429_2480">
<rect width="22" height="22" fill="white"/>
</clipPath>
</defs>
</svg>
