<svg width="22" height="22" viewBox="0 0 22 22" fill="none" xmlns="http://www.w3.org/2000/svg">
<g clip-path="url(#clip0_1429_2512)">
<path d="M13.1221 10.8848C16.123 10.8848 18.5641 8.44336 18.5641 5.44242C18.5641 2.44148 16.123 0 13.1221 0C10.1212 0 7.67969 2.44148 7.67969 5.44242C7.67969 8.44336 10.1212 10.8848 13.1221 10.8848ZM12.4776 2.2434V2.09559C12.4776 1.73937 12.7659 1.45105 13.1221 1.45105C13.4779 1.45105 13.7666 1.73937 13.7666 2.09559V2.24426C14.5336 2.40883 15.1107 3.09203 15.1107 3.90758C15.1107 4.26336 14.822 4.55211 14.4662 4.55211C14.11 4.55211 13.8216 4.26336 13.8216 3.90758C13.8216 3.68027 13.6364 3.49508 13.4091 3.49508H12.8312C12.6039 3.49508 12.4187 3.68027 12.4187 3.90758C12.4187 4.03777 12.481 4.16152 12.5859 4.23887L13.1221 4.6359L14.4249 5.60012C14.8529 5.9168 15.1107 6.4234 15.1141 6.95621V6.96223C15.1171 7.41684 14.9431 7.84566 14.6234 8.16922C14.3863 8.40941 14.0898 8.57055 13.7666 8.63844V8.78926C13.7666 9.14547 13.4779 9.43379 13.1221 9.43379C12.7659 9.43379 12.4776 9.14547 12.4776 8.78926V8.64059C12.163 8.57355 11.8739 8.41887 11.6401 8.1877C11.3166 7.86844 11.137 7.44219 11.1344 6.98758C11.1322 6.6318 11.4188 6.34133 11.7746 6.33918H11.7789C12.133 6.33918 12.4213 6.62535 12.4234 6.97984C12.4243 7.20229 12.6033 7.38977 12.8381 7.38977C13.1942 7.38762 13.0616 7.38839 13.4152 7.38633C13.6439 7.38452 13.8268 7.19886 13.8251 6.97082V6.9648C13.8242 6.8359 13.7619 6.71301 13.6579 6.63609L13.1221 6.23949L11.8189 5.27527C11.3875 4.95559 11.1296 4.44426 11.1296 3.90758C11.1296 3.09031 11.7084 2.40668 12.4776 2.2434Z" fill="#C9C2FF"/>
<path d="M4.30484 13.9801C4.13962 13.6936 3.77262 13.594 3.48443 13.7602L0.452644 15.5104C0.16557 15.6765 0.0670857 16.0437 0.232816 16.3312L3.33146 21.698C3.49732 21.985 3.86428 22.0836 4.15187 21.9179L7.18366 20.1673C7.47116 20.0015 7.56926 19.6344 7.40348 19.3469L4.30484 13.9801Z" fill="#7966FF"/>
<path d="M21.677 12.9125C21.3852 12.5073 20.8206 12.4158 20.4159 12.7076C19.1878 13.5923 16.8297 15.2913 16.6423 15.4266C16.556 15.5001 16.4653 15.5667 16.3708 15.6256C16 15.8589 15.5698 15.9835 15.1208 15.9835H12.0335C11.6777 15.9835 11.389 15.6952 11.389 15.339C11.389 14.9823 11.6782 14.6945 12.0335 14.6945H15.3352C15.8204 14.6945 16.2088 14.2905 16.1886 13.8046C16.1697 13.3435 15.7761 12.986 15.3146 12.986H12.8014C12.6312 12.806 12.4447 12.641 12.2449 12.4936C11.5579 11.987 10.7088 11.6875 9.78969 11.6875C8.15559 11.6875 6.52965 12.717 5.85547 14.0912L8.49203 18.6575H13.4377C14.4088 18.6575 15.3653 18.4091 16.2071 17.9248C16.4988 17.7573 16.8112 17.5557 17.1498 17.3125C18.5686 16.2933 21.4695 14.1758 21.4716 14.1745C21.8772 13.8832 21.9692 13.3177 21.677 12.9125Z" fill="#7966FF"/>
</g>
<defs>
<clipPath id="clip0_1429_2512">
<rect width="22" height="22" fill="white"/>
</clipPath>
</defs>
</svg>
