<svg width="8" height="8" viewBox="0 0 8 8" fill="none" xmlns="http://www.w3.org/2000/svg">
<g clip-path="url(#clip0_1429_2038)">
<path d="M7.5 7.00001H0.500003C0.223849 7.00001 0 6.77614 0 6.5C0 6.22387 0.223849 6 0.500003 6H7.50001C7.77615 6 8.00002 6.22387 8.00002 6.5C8 6.77614 7.77615 7.00001 7.5 7.00001Z" fill="#555555"/>
<path d="M7.5 4.49999H0.500003C0.223849 4.49999 0 4.27614 0 4C0 3.72387 0.223849 3.5 0.500003 3.5H7.50001C7.77615 3.5 8.00002 3.72385 8.00002 4C8.00002 4.27616 7.77615 4.49999 7.5 4.49999Z" fill="#555555"/>
<path d="M7.5 2.00001H0.500003C0.223849 2.00001 0 1.77616 0 1.5C0 1.22385 0.223849 1 0.500003 1H7.50001C7.77615 1 8.00002 1.22385 8.00002 1.5C8.00002 1.77616 7.77615 2.00001 7.5 2.00001Z" fill="#555555"/>
</g>
<defs>
<clipPath id="clip0_1429_2038">
<rect width="8" height="8" fill="white"/>
</clipPath>
</defs>
</svg>
