<svg width="17" height="17" viewBox="0 0 17 17" fill="none" xmlns="http://www.w3.org/2000/svg">
<g clip-path="url(#clip0_1429_2683)">
<path d="M16.6458 9.21147C16.8416 9.21147 17 9.05305 17 8.85728V7.0864C17 6.30507 16.3646 5.66968 15.5833 5.66968H12.9174C12.8157 5.44439 12.7498 5.20937 12.7498 4.96133C12.7498 4.32006 13.1057 3.72723 13.6789 3.41422C13.7622 3.36856 13.8241 3.2911 13.8497 3.19942C13.8757 3.10811 13.8636 3.00989 13.8165 2.92721L12.9535 1.41988C12.765 1.09129 12.4607 0.856436 12.0964 0.758915C11.7339 0.662059 11.3549 0.712928 11.0305 0.90176L0.701934 6.91483C0.0316087 7.30498 -0.199061 8.17174 0.18727 8.84622L1.07963 10.4061C1.12701 10.4891 1.20587 10.5493 1.29821 10.5732C1.39022 10.597 1.48844 10.5829 1.57009 10.5337C1.85578 10.3615 2.16156 10.274 2.47872 10.274C3.25185 10.274 3.92722 10.7833 4.15713 11.5201C3.92785 12.2327 3.26646 12.7532 2.47872 12.7532C2.28295 12.7532 2.12453 12.9116 2.12453 13.1074V14.8783C2.12453 15.6596 2.7599 16.295 3.54126 16.295H15.5833C16.3646 16.295 17 15.6596 17 14.8783V13.1074C17 12.9116 16.8416 12.7532 16.6458 12.7532C15.6694 12.7532 14.875 11.9587 14.875 10.9823C14.8749 10.0059 15.6694 9.21147 16.6458 9.21147ZM11.3871 1.51398C11.5472 1.42057 11.7354 1.39464 11.9132 1.44309C12.0941 1.4915 12.2449 1.60841 12.3386 1.77201L13.0349 2.98811C12.4147 3.4533 12.0415 4.1814 12.0415 4.96133C12.0415 5.20153 12.0811 5.43967 12.151 5.66968H4.24864L11.3871 1.51398ZM2.47869 9.56565C2.15462 9.56565 1.83121 9.63276 1.52719 9.76212L0.802244 8.49449C0.608199 8.1562 0.723384 7.72216 1.05818 7.52709L2.14389 6.89504C2.13526 6.95826 2.12453 7.02089 2.12453 7.08643V8.85731C2.12453 9.05308 2.28295 9.2115 2.47872 9.2115C3.13039 9.2115 3.69473 9.56934 4.00223 10.095C3.57811 9.76133 3.04681 9.56565 2.47869 9.56565ZM14.1666 10.9823C14.1666 12.2292 15.0918 13.2641 16.2916 13.4363V14.8783C16.2916 15.2688 15.9738 15.5866 15.5833 15.5866H7.08301V14.9668C7.08301 14.771 6.92459 14.6126 6.72882 14.6126C6.53305 14.6126 6.37463 14.771 6.37463 14.9668V15.5866H3.54122C3.15074 15.5866 2.83288 15.2688 2.83288 14.8783V13.4363C4.03271 13.2641 4.95794 12.2292 4.95794 10.9823C4.95794 9.73546 4.03271 8.70059 2.83288 8.52836V7.0864C2.83288 6.69592 3.15074 6.37806 3.54122 6.37806H6.37463V7.17496C6.37463 7.37073 6.53305 7.52914 6.72882 7.52914C6.92459 7.52914 7.08301 7.37073 7.08301 7.17496V6.37806H15.5833C15.9738 6.37806 16.2916 6.69592 16.2916 7.0864V8.52836C15.0918 8.70059 14.1666 9.73546 14.1666 10.9823Z" fill="#292929"/>
<path d="M6.72919 8.94531C6.53342 8.94531 6.375 9.10373 6.375 9.2995V10.0078C6.375 10.2036 6.53342 10.362 6.72919 10.362C6.92496 10.362 7.08338 10.2036 7.08338 10.0078V9.2995C7.08338 9.10373 6.92496 8.94531 6.72919 8.94531Z" fill="#292929"/>
<path d="M6.72919 11.7812C6.53342 11.7812 6.375 11.9397 6.375 12.1354V12.8438C6.375 13.0396 6.53342 13.198 6.72919 13.198C6.92496 13.198 7.08338 13.0396 7.08338 12.8438V12.1354C7.08338 11.9397 6.92496 11.7812 6.72919 11.7812Z" fill="#292929"/>
<path d="M13.3168 7.86731C13.1608 7.75077 12.9384 7.78188 12.8211 7.9382L8.57099 13.6051C8.45338 13.7614 8.48523 13.9835 8.64188 14.1007C8.70554 14.1484 8.77988 14.1716 8.85389 14.1716C8.96181 14.1716 9.06799 14.1228 9.13752 14.0298L13.3877 8.36292C13.5053 8.20659 13.4735 7.98456 13.3168 7.86731Z" fill="#292929"/>
<path d="M9.56253 10.6303C10.1585 10.6303 10.6251 10.0081 10.6251 9.2136C10.6251 8.41912 10.1585 7.79688 9.56253 7.79688C8.96659 7.79688 8.5 8.41912 8.5 9.2136C8.5 10.0081 8.96659 10.6303 9.56253 10.6303ZM9.56253 8.50525C9.7071 8.50525 9.91672 8.78128 9.91672 9.2136C9.91672 9.64595 9.7071 9.92194 9.56253 9.92194C9.41796 9.92194 9.20834 9.64592 9.20834 9.2136C9.20834 8.78125 9.41796 8.50525 9.56253 8.50525Z" fill="#292929"/>
<path d="M12.3965 11.3359C11.8006 11.3359 11.334 11.9582 11.334 12.7527C11.334 13.5471 11.8006 14.1694 12.3965 14.1694C12.9925 14.1694 13.4591 13.5471 13.4591 12.7527C13.4591 11.9582 12.9925 11.3359 12.3965 11.3359ZM12.3965 13.461C12.2519 13.461 12.0423 13.185 12.0423 12.7527C12.0423 12.3203 12.2519 12.0443 12.3965 12.0443C12.5411 12.0443 12.7507 12.3203 12.7507 12.7527C12.7507 13.185 12.5411 13.461 12.3965 13.461Z" fill="#292929"/>
</g>
<defs>
<clipPath id="clip0_1429_2683">
<rect width="17" height="17" fill="white"/>
</clipPath>
</defs>
</svg>
