<svg width="166" height="148" viewBox="0 0 166 148" fill="none" xmlns="http://www.w3.org/2000/svg">
<path d="M58.1642 76.5666C56.5861 75.731 51.7209 74.818 51.0512 73.1625C50.5125 71.8325 51.1033 70.057 50.0829 69.0476C48.9708 67.9467 47.1859 68.1552 45.622 68.2041C44.0598 68.2531 42.4233 68.9892 41.7251 70.3887C40.9669 71.9099 41.4787 73.747 42.1848 75.2919C42.2859 75.5114 42.3933 75.7357 42.5655 75.9063C42.7629 76.1022 43.0299 76.208 43.2889 76.3091C45.5525 77.1748 47.9235 77.8382 49.9707 79.1319C51.2597 79.947 53.7965 80.6025 54.9149 81.6388C56.2228 80.2345 58.6807 78.4132 58.1642 76.5666Z" fill="#FFB092"/>
<path d="M53.1938 32.4476C73.8757 28.7639 99.1337 70.6774 98.0217 77.7557C96.5574 87.0706 86.2441 92.8931 76.8201 92.563C67.3961 92.2313 56.6895 84.281 48.6855 79.2926C49.4817 76.552 50.5779 75.4652 52.1275 73.0705C58.555 72.9994 79.9809 75.7859 79.9809 75.7859C79.9809 75.7859 50.8544 32.8646 53.1938 32.4476Z" fill="#2D305E"/>
<path d="M79.8808 110.64C79.8808 110.64 73.7361 262.283 72.7773 263.559C71.8501 264.796 69.5707 264.984 68.5613 264.486C68.5297 264.47 68.4966 264.453 68.4634 264.437C67.9753 264.153 56.452 226.556 46.1103 188.564C43.0742 177.407 40.1377 166.21 37.6072 155.924C31.7231 131.958 28.0868 112.884 30.5842 110.532C32.8304 108.425 38.3954 107.627 45.0203 107.537C45.7612 107.529 46.4846 107.529 47.2018 107.537C61.709 107.645 79.8808 110.64 79.8808 110.64Z" fill="#1D2149"/>
<path d="M54.298 157.218C51.848 167.146 49.0252 177.871 46.1108 188.564C35.7675 226.558 24.2458 264.153 23.7577 264.437C23.5871 264.535 23.3754 264.608 23.14 264.665C22.009 264.9 20.2351 264.616 19.4453 263.557C18.4849 262.279 12.3418 110.638 12.3418 110.638C12.3418 110.638 30.5137 107.643 45.0225 107.537C45.7633 107.529 46.4868 107.529 47.2039 107.537C53.8272 107.627 59.3938 108.423 61.6321 110.532C64.1769 112.933 60.3605 132.651 54.298 157.218Z" fill="#2D305E"/>
<path d="M74.4546 112.588C40.5134 137.524 16.7291 125.969 11.5259 110.952C0.896652 80.2723 20.0858 32.6674 42.4453 29.0611C65.1443 25.3996 85.7378 95.0053 74.4546 112.588Z" fill="#7966FF"/>
<path opacity="0.1" d="M73.0028 113.067C65.1237 117.574 49.228 120.117 35.1426 119.425C46.2978 117.781 64.5029 115.181 67.2941 101.843C67.8612 99.1051 68.6067 96.4371 68.9242 93.6728C70.0031 84.3831 71.1641 53.4621 71.7581 48.3047C73.2919 56.972 74.9789 67.9756 75.1037 70.0907C75.4086 75.136 75.7118 80.1955 76.0167 85.255C76.0436 85.6973 76.0862 86.1396 76.1273 86.5961C76.9834 96.0233 80.9104 108.546 73.0028 113.067Z" fill="black"/>
<path opacity="0.1" d="M54.9521 74.76C54.911 74.9954 54.8684 75.2434 54.7436 75.4519C54.6062 75.6873 54.3708 75.8658 54.1497 76.0332C52.1862 77.4438 50.0711 78.7012 48.4267 80.4846C47.8881 81.0516 47.4174 81.674 46.9751 82.309C47.3621 82.8208 47.7206 83.3452 48.0666 83.9123C41.6249 90.7963 34.5893 97.7355 25.5634 100.486C20.477 102.034 14.6151 101.757 9.77828 99.6706C8.07861 85.8063 7.92539 70.2281 10.9124 56.2943C11.2584 54.6626 11.3958 53.0735 11.4937 51.5255C11.549 51.4149 11.6312 51.3043 11.7007 51.1938C14.2849 47.3932 17.5753 43.9781 21.4327 41.5312C20.9351 42.2231 20.4786 43.024 20.1342 43.9781C19.2907 46.7013 18.1439 49.2034 16.9955 51.8161C16.5675 52.756 16.3037 53.6817 16.1805 54.5805C14.6593 57.3859 13.1255 60.1912 11.7433 63.0819C11.6596 63.2209 11.5632 63.3457 11.4953 63.4974C11.3437 63.8149 11.2047 64.134 11.053 64.4373C10.8603 64.8527 10.7071 65.2397 10.5697 65.6393C10.4307 65.9442 10.2932 66.2333 10.1684 66.5508C10.2095 66.5366 10.2506 66.5366 10.2932 66.5239C8.73099 72.6892 13.5836 77.1958 18.6557 77.3474C18.8769 80.5272 21.0188 83.568 23.9364 85.0054C27.53 86.7746 31.9545 86.3323 35.5055 84.4936C38.3393 83.042 41.1321 80.5272 42.6248 77.7202C42.9976 78.0662 43.3577 78.3979 43.7163 78.7296C44.1997 77.5686 44.187 76.1169 44.3529 74.8169C44.5188 73.3937 44.9895 72.0099 45.7208 70.7668C46.5091 69.4115 48.2925 69.1492 49.812 68.8033C51.3316 68.4432 53.1024 68.7338 54.1386 69.909C55.257 71.1806 55.2428 73.0872 54.9521 74.76Z" fill="black"/>
<path d="M38.5548 73.3181C39.8643 72.1034 44.3299 69.9661 44.5495 68.1938C44.7264 66.7706 43.698 65.2068 44.4231 63.9683C45.2129 62.6178 46.99 62.3587 48.5159 62.0017C50.0386 61.6463 51.8094 61.9354 52.8456 63.1075C53.9703 64.3806 53.9513 66.2872 53.6654 67.9632C53.6243 68.2017 53.5785 68.445 53.4553 68.6551C53.3147 68.8952 53.0841 69.0658 52.8598 69.23C50.8963 70.6501 48.7765 71.9028 47.1321 73.6814C46.0975 74.8013 43.8149 76.0887 43.003 77.3793C41.3776 76.3604 38.5327 75.2357 38.5548 73.3181Z" fill="#FFB092"/>
<path d="M33.5069 33.0475C12.5754 34.8246 -2.54469 78.2072 0.357063 84.7578C4.17499 93.3794 15.6414 96.3443 24.661 93.5942C33.6806 90.8425 41.9736 80.3981 48.4184 73.5141C46.9431 71.072 45.6036 70.3043 43.4869 68.3898C37.2585 69.9789 17.2763 78.1993 17.2763 78.1993C17.2763 78.1993 35.8731 32.8469 33.5069 33.0475Z" fill="#2D305E"/>
<path d="M47.6572 44.8471L36.8005 43.9609C36.8005 43.9609 32.1074 44.1758 32.1074 51.2509C32.1074 56.2693 38.7639 54.9124 36.8005 66.3931C36.8005 66.3931 51.8147 61.0476 61.8326 66.3931C66.2492 61.6969 58.7413 46.4457 47.6572 44.8471Z" fill="url(#paint0_linear_1058_6085)"/>
<path opacity="0.35" d="M47.6593 44.8415L43.1922 44.4766C45.6406 47.1745 47.4113 50.4633 47.9042 54.098C48.1585 55.9762 48.1948 57.9791 47.4571 59.7578C46.7495 61.4637 45.4921 62.7211 44.0231 63.8C43.3865 64.2676 42.6267 64.6009 41.9316 65.0116C47.2044 63.8995 55.51 63.0133 61.8348 66.3874C66.2514 61.6912 58.7435 46.44 47.6593 44.8415Z" fill="#5745D3"/>
<path d="M36.8008 43.9611C52.4453 46.5848 58.8222 58.443 60.7146 68.8053C63.0729 81.8261 60.7146 143.97 68.3883 168.849C71.6439 179.377 82.0062 183.297 91.4381 187.25C104.326 192.597 115.453 197.912 104.525 219.768C85.5588 257.633 115.752 260.588 115.752 260.588L186.199 256.468C186.199 256.468 170.82 222.723 186.199 207.908C201.577 193.127 167.268 183.628 154.845 170.608C142.456 157.588 153.65 110.258 154.812 75.3149C156.008 40.407 124.056 43.9611 124.056 43.9611H36.8008Z" fill="url(#paint1_linear_1058_6085)"/>
<path opacity="0.1" d="M66.549 52.9531H139.472C140.695 52.9531 141.685 53.9435 141.685 55.1646C141.685 56.3872 140.695 57.3776 139.472 57.3776H66.549C65.3279 57.3776 64.3359 56.3872 64.3359 55.1646C64.3375 53.9451 65.3279 52.9531 66.549 52.9531Z" fill="url(#paint2_linear_1058_6085)"/>
<path opacity="0.1" d="M70.6544 65.0312H143.577C144.8 65.0312 145.79 66.0217 145.79 67.2443C145.79 68.4669 144.8 69.4573 143.577 69.4573H70.6544C69.4318 69.4573 68.4414 68.4669 68.4414 67.2443C68.443 66.0217 69.4334 65.0312 70.6544 65.0312Z" fill="#7966FF"/>
<path d="M112.725 90.7734H138.239C139.381 90.7734 140.307 91.6991 140.307 92.8412C140.307 93.9832 139.381 94.9073 138.239 94.9073H112.667C111.491 94.9073 110.545 93.9279 110.602 92.7401C110.654 91.6296 111.611 90.7734 112.725 90.7734Z" fill="url(#paint3_linear_1058_6085)" fill-opacity="0.1"/>
<path d="M112.725 102.469H138.239C139.381 102.469 140.307 103.394 140.307 104.536C140.307 105.679 139.381 106.604 138.239 106.604H112.667C111.491 106.604 110.545 105.623 110.602 104.437C110.654 103.323 111.611 102.469 112.725 102.469Z" fill="url(#paint4_linear_1058_6085)" fill-opacity="0.1"/>
<path opacity="0.1" d="M71.7478 129.969H142.276C143.458 129.969 144.416 130.926 144.416 132.108C144.416 133.289 143.459 134.248 142.276 134.248H71.7478C70.5662 134.248 69.6074 133.291 69.6074 132.108C69.609 130.928 70.5662 129.969 71.7478 129.969Z" fill="url(#paint5_linear_1058_6085)"/>
<path d="M73.6894 147.328H142.333C143.483 147.328 144.415 148.26 144.415 149.41C144.415 150.56 143.483 151.494 142.333 151.494H73.6894C72.5394 151.494 71.6074 150.562 71.6074 149.41C71.6058 148.26 72.5378 147.328 73.6894 147.328Z" fill="url(#paint6_linear_1058_6085)" fill-opacity="0.1"/>
<path d="M105.252 99.1479C105.231 108.179 97.8938 115.483 88.8631 115.462C79.8325 115.442 72.5283 108.104 72.5489 99.0721C72.5694 90.0415 79.9067 82.7373 88.9374 82.7579C97.9665 82.7784 105.272 90.1157 105.252 99.1479Z" fill="#7966FF"/>
<path d="M104.486 99.3198C104.465 108.35 97.1282 115.655 88.0975 115.634C79.0669 115.614 71.7627 108.276 71.7832 99.2456C71.8038 90.2149 79.1411 82.9092 88.1718 82.9297C97.2024 82.9503 104.507 90.2892 104.486 99.3198Z" fill="#5947D8"/>
<path d="M103.381 99.3063C103.362 107.727 96.519 114.538 88.0981 114.52C79.6772 114.501 72.8658 107.658 72.8848 99.2368C72.9038 90.8158 79.7467 84.0045 88.1676 84.0235C96.5885 84.044 103.4 90.8853 103.381 99.3063Z" fill="#7966FF"/>
<path d="M102.704 99.3129C102.703 99.9416 102.663 100.561 102.581 101.167C102.019 105.527 99.531 109.277 95.9942 111.549C93.7164 113.007 91.0073 113.853 88.1009 113.847C80.0559 113.828 73.5494 107.293 73.5684 99.2482C73.5716 97.6133 73.8433 96.0463 74.3472 94.5836C74.9853 92.6928 76.0089 90.9741 77.3137 89.5241C79.9895 86.5607 83.8643 84.7015 88.1688 84.711C96.2122 84.7268 102.722 91.268 102.704 99.3129Z" fill="white"/>
<path opacity="0.2" d="M102.579 101.167C102.017 105.527 99.5291 109.277 95.9924 111.548C87.5967 107.983 79.1884 102.254 74.3438 94.5829C74.9819 92.6921 76.0055 90.9735 77.3103 89.5234C84.2543 96.2668 93.1301 99.9347 102.579 101.167Z" fill="#7966FF" fill-opacity="0.38"/>
<path opacity="0.2" d="M74.1841 95.0703C73.786 96.3909 73.568 97.7904 73.5664 99.2389C73.5475 107.284 80.0555 113.822 88.1005 113.839C89.6406 113.842 91.1239 113.606 92.5187 113.166C84.9729 109.408 77.4744 103.009 74.1841 95.0703Z" fill="#7966FF" fill-opacity="0.38"/>
<g opacity="0.3">
<path d="M87.5162 105.852C86.5874 105.773 85.8339 105.63 85.2558 105.418C84.6761 105.206 84.2464 105.031 83.9684 104.89L83.6035 104.429L84.7945 102.698C85.24 102.916 85.7707 103.113 86.3868 103.293C87.0044 103.473 87.6568 103.564 88.3424 103.565C89.118 103.567 89.6519 103.462 89.9378 103.254C90.2253 103.044 90.3674 102.748 90.369 102.366C90.369 102.124 90.3121 101.918 90.1984 101.745C90.0831 101.573 89.9188 101.417 89.7024 101.278C89.486 101.137 89.2127 101 88.8826 100.866C88.5525 100.731 88.1702 100.586 87.7389 100.433C87.3188 100.279 86.9097 100.109 86.5084 99.9225C86.1088 99.7377 85.7455 99.5102 85.4217 99.2432C85.0978 98.9747 84.8372 98.6477 84.6413 98.2576C84.4455 97.869 84.3475 97.4014 84.3491 96.8549C84.3507 96.4347 84.4123 96.0303 84.5339 95.6433C84.6555 95.2563 84.8451 94.9025 85.0994 94.585C85.3537 94.2675 85.6855 93.9973 86.0946 93.7762C86.5021 93.5551 86.9855 93.3939 87.5462 93.2928L87.551 91.2299L89.576 90.7812L89.9567 91.2362L89.952 93.2218C90.6138 93.2865 91.9676 93.3292 92.4446 93.4571C92.5283 93.5756 92.6816 93.7414 92.7953 93.8963L92.1982 96.1867C91.778 96.0082 91.2915 95.8534 90.7386 95.7254C90.1858 95.5975 89.6029 95.5327 88.9916 95.5312C88.3803 95.5296 87.9411 95.6307 87.6742 95.8329C87.4057 96.035 87.2714 96.302 87.2714 96.6337C87.2714 96.8375 87.3125 97.0128 87.3946 97.1597C87.4767 97.3051 87.6063 97.4362 87.7848 97.5515C87.9633 97.6668 88.1812 97.7789 88.4435 97.8864C88.7041 97.9954 89.0184 98.1138 89.3865 98.2434C89.9457 98.4487 90.4638 98.673 90.9408 98.9163C91.4179 99.1595 91.8302 99.4375 92.1808 99.7503C92.5299 100.063 92.8016 100.43 92.9991 100.85C93.1949 101.27 93.2929 101.76 93.2913 102.32C93.2913 102.703 93.2329 103.08 93.1175 103.456C93.0022 103.832 92.8111 104.178 92.5426 104.495C92.274 104.813 91.9265 105.085 91.5 105.314C91.0735 105.543 90.5475 105.705 89.9236 105.807L89.9188 108.135L87.5131 108.129L87.1498 107.674L87.5162 105.852ZM89.9504 93.2186C90.6123 93.2834 91.9439 93.3055 92.4194 93.4334C92.5031 93.5519 92.68 93.7383 92.7937 93.8931" fill="#BDDCFD"/>
</g>
<path d="M87.1513 105.404C86.2225 105.325 85.469 105.181 84.8909 104.969C84.3112 104.758 83.8815 104.582 83.6035 104.442L84.4297 102.248C84.8751 102.466 85.4059 102.665 86.0219 102.843C86.6395 103.023 87.2903 103.113 87.9775 103.115C88.7546 103.116 89.2854 103.014 89.5729 102.804C89.8604 102.594 90.0041 102.298 90.0041 101.918C90.0041 101.676 89.9473 101.469 89.8335 101.297C89.7198 101.125 89.5539 100.968 89.3375 100.828C89.1211 100.687 88.8478 100.55 88.5177 100.415C88.1876 100.281 87.8053 100.137 87.3741 99.9825C86.9539 99.8293 86.5448 99.6587 86.1435 99.4739C85.7439 99.2891 85.3806 99.0616 85.0583 98.7946C84.7345 98.5277 84.4739 98.1991 84.278 97.809C84.0821 97.4204 83.9842 96.9528 83.9858 96.4047C83.9874 95.9845 84.049 95.5801 84.1706 95.1931C84.2922 94.8061 84.4802 94.4523 84.7361 94.1348C84.9904 93.8173 85.3221 93.5487 85.7313 93.326C86.1388 93.1033 86.6222 92.9437 87.1829 92.8426L87.1877 90.7812L89.5934 90.786L89.5887 92.7716C90.2505 92.8363 90.8192 92.9343 91.2962 93.0622C91.7733 93.1902 92.1524 93.3197 92.432 93.4461L91.8349 95.7349C91.4147 95.5564 90.9282 95.4016 90.3753 95.2737C89.8225 95.1457 89.2396 95.081 88.6283 95.0794C88.017 95.0778 87.5778 95.1789 87.3093 95.3827C87.0408 95.5849 86.9065 95.8534 86.9065 96.1835C86.9065 96.3873 86.9476 96.5626 87.0297 96.7095C87.1118 96.8564 87.2414 96.986 87.4199 97.1029C87.5968 97.2182 87.8163 97.3303 88.0786 97.4393C88.3392 97.5483 88.6535 97.6668 89.0216 97.7947C89.5808 98.0001 90.1005 98.2244 90.5759 98.4677C91.053 98.7109 91.4653 98.9889 91.8144 99.3001C92.1635 99.6129 92.4367 99.9793 92.6326 100.4C92.8285 100.82 92.9264 101.309 92.9248 101.869C92.9248 102.251 92.8664 102.628 92.7511 103.004C92.6358 103.379 92.4446 103.725 92.1761 104.044C91.9076 104.361 91.56 104.633 91.1335 104.862C90.707 105.089 90.181 105.254 89.5571 105.355L89.5508 107.683L87.145 107.678L87.1513 105.404Z" fill="#7966FF"/>
<path d="M46.0996 64.7102C46.3887 64.6138 47.357 60.649 49.0961 60.1656C50.8369 59.6823 54.2204 62.3897 54.2204 65.3863C54.2204 68.3828 46.0996 64.7102 46.0996 64.7102Z" fill="#FFB092"/>
<path opacity="0.1" d="M68.5605 264.493C68.5289 264.477 68.4957 264.459 68.4626 264.444C67.9745 264.159 56.4512 226.563 46.1094 188.57C35.7661 226.565 24.2444 264.159 23.7563 264.444C23.5857 264.542 23.374 264.614 23.1387 264.671C23.7816 261.537 35.3617 204.804 38.3646 184.127C41.3027 163.904 36.1184 153.92 35.5987 152.977C35.7867 153.27 36.5338 154.45 37.6079 155.93C40.1227 159.38 44.4271 164.498 47.6496 164.116C49.6509 163.881 52.1088 160.772 54.2982 157.224C57.301 152.357 59.7905 146.645 59.9216 146.344C59.7336 147.092 52.3773 176.543 55.674 191.571C58.7795 205.764 72.4748 250.709 68.5605 264.493Z" fill="black"/>
<path d="M48.0128 30.1936C48.0128 31.3025 45.9893 32.2013 43.4919 32.2013C40.9961 32.2013 38.9727 31.3025 38.9727 30.1936C38.9727 29.0847 40.9961 28.1875 43.4919 28.1875C45.9893 28.1875 48.0128 29.0847 48.0128 30.1936Z" fill="#2B3E6D"/>
<path d="M50.6071 14.1087C50.6071 14.1087 52.7254 12.4738 53.6969 14.3677C54.6683 16.2601 52.4284 19.0971 50.5977 18.9123L50.6071 14.1087Z" fill="#FFB092"/>
<path opacity="0.1" d="M50.6059 15.1764C51.0861 14.9221 51.9565 14.6441 52.432 15.5713C53.0528 16.7876 51.8001 18.5489 50.5996 18.7542L50.6059 15.1764Z" fill="#231F20"/>
<path d="M36.7992 14.1087C36.7992 14.1087 34.681 12.4738 33.7095 14.3677C32.738 16.2601 34.9779 19.0971 36.8071 18.9123L36.7992 14.1087Z" fill="#FFB092"/>
<path opacity="0.1" d="M36.8073 18.7542C35.6068 18.5505 34.3542 16.7876 34.9749 15.5713C35.4504 14.6441 36.3208 14.9221 36.801 15.1764L36.8073 18.7542Z" fill="#231F20"/>
<path d="M52.1826 6.17317C53.4731 7.95655 53.421 11.3038 51.2143 14.9274C49.0075 18.5526 36.1621 16.1089 36.1621 16.1089C36.1621 16.1089 31.2779 7.59956 36.478 5.31385C36.478 5.31385 36.3217 -0.511766 42.073 0.276462C47.8276 1.06469 50.4292 3.75162 52.1826 6.17317Z" fill="#202234"/>
<path d="M46.616 29.4991C46.616 29.4991 45.4661 31.2303 43.4726 31.2303C41.4649 31.2303 40.0527 29.5543 40.0527 29.5543C40.0527 29.5543 40.1222 27.7678 40.1917 26.2577C40.2328 25.261 40.2612 24.389 40.2612 24.25H46.5623L46.5908 26.8264L46.605 28.0585L46.616 29.4991Z" fill="#FFB092"/>
<path opacity="0.1" d="M46.5936 26.8248C45.6 27.6525 44.5275 28.1896 43.6997 28.1896C42.6951 28.1896 41.335 27.4029 40.1914 26.2656C40.2277 25.2689 40.2609 24.3969 40.2609 24.25H46.5683L46.5936 26.8248Z" fill="#231F20"/>
<path d="M50.7615 8.85831C50.3066 5.67223 37.0916 5.67223 36.6366 8.85831C36.6366 8.85831 35.5341 20.3642 37.1105 22.413C38.6791 24.4507 41.7167 26.8249 43.6991 26.8249C45.6815 26.8249 48.7207 24.4507 50.2892 22.413C51.8641 20.3642 50.7615 8.85831 50.7615 8.85831Z" fill="#FFB092"/>
<path opacity="0.1" d="M37.8413 9.91034C38.2757 9.8898 38.7433 9.85505 39.154 9.70499C39.5015 9.57704 39.7937 9.33536 40.1318 9.18845C40.6941 8.94677 40.9832 9.23584 41.4255 9.5802C42.0384 10.0572 42.7034 10.3432 43.4616 10.509C45.0317 10.8565 46.7346 10.9308 48.3331 10.7617C49.1972 10.6701 50.0423 10.4616 50.8684 10.1899C50.8068 9.37801 50.7578 8.85831 50.7578 8.85831C50.3029 5.67223 37.0879 5.67223 36.6329 8.85831C36.6329 8.85831 36.5982 9.22636 36.5508 9.8203C36.9678 9.88664 37.3864 9.93245 37.8413 9.91034Z" fill="#231F20"/>
<path opacity="0.1" d="M40.6422 17.4998C40.6422 18.2075 40.0688 18.7809 39.3611 18.7809C38.6535 18.7809 38.0801 18.2075 38.0801 17.4998C38.0801 16.7922 38.6535 16.2188 39.3611 16.2188C40.0688 16.2203 40.6422 16.7937 40.6422 17.4998Z" fill="#231F20"/>
<path opacity="0.1" d="M49.8981 17.4998C49.8981 18.2075 49.3247 18.7809 48.617 18.7809C47.9093 18.7809 47.3359 18.2075 47.3359 17.4998C47.3359 16.7922 47.9093 16.2188 48.617 16.2188C49.3247 16.2203 49.8981 16.7937 49.8981 17.4998Z" fill="#231F20"/>
<path d="M47.4425 4.74503C45.2262 4.27904 41.9707 5.26472 39.8303 6.07507C39.1716 5.9487 38.0848 5.87919 37.0217 6.43048C35.3379 7.30401 34.4011 9.86298 36.273 9.7998C37.3219 9.76505 38.5066 8.653 39.3469 7.68153C42.2518 8.8078 48.1327 10.8471 50.9366 10.111C54.7434 9.11267 50.9997 5.49377 47.4425 4.74503Z" fill="#202234"/>
<path d="M44.0773 20.3701C43.4075 20.3701 42.9336 19.7241 42.9131 19.6956C42.8215 19.5677 42.8499 19.3892 42.9763 19.2976C43.1042 19.2044 43.2827 19.2328 43.3759 19.3608C43.4676 19.4871 43.7772 19.7983 44.0931 19.7983C44.3237 19.7904 44.5543 19.6056 44.7771 19.2518C44.8608 19.1175 45.0377 19.0764 45.172 19.1617C45.3062 19.2455 45.3457 19.4224 45.262 19.5566C44.9303 20.0827 44.5433 20.3575 44.1089 20.3717C44.0994 20.3686 44.0883 20.3701 44.0773 20.3701Z" fill="#202234"/>
<path d="M42.1074 22.8547C42.1074 22.8547 44.8022 22.515 46.058 22.8799C46.0596 22.8799 44.044 25.0788 42.1074 22.8547Z" fill="white"/>
<path d="M46.1696 12.8666C46.1696 12.8666 49.2577 13.1272 49.6084 12.8666C49.9575 12.606 49.084 11.8398 47.686 11.9978C46.2865 12.1589 45.8205 12.8097 46.1696 12.8666Z" fill="#202234"/>
<path d="M48.7783 14.5708C48.7783 15.0715 48.434 15.4759 48.0122 15.4759C47.5904 15.4759 47.2461 15.0715 47.2461 14.5708C47.2461 14.07 47.5904 13.6641 48.0122 13.6641C48.1307 13.6641 48.2428 13.6957 48.3423 13.7557C48.1923 13.7999 48.0817 13.961 48.0817 14.1537C48.0817 14.3796 48.2381 14.5644 48.4308 14.5644C48.5714 14.5644 48.6946 14.4633 48.7483 14.3212C48.7673 14.4017 48.7783 14.4839 48.7783 14.5708Z" fill="#202234"/>
<path d="M37.8493 12.8666C37.8493 12.8666 40.9374 13.1272 41.2881 12.8666C41.6372 12.606 40.7637 11.8398 39.3641 11.9978C37.9662 12.1589 37.5002 12.8097 37.8493 12.8666Z" fill="#202234"/>
<path d="M40.458 14.5708C40.458 15.0715 40.1137 15.4759 39.6919 15.4759C39.2701 15.4759 38.9258 15.0715 38.9258 14.5708C38.9258 14.07 39.2701 13.6641 39.6919 13.6641C39.8104 13.6641 39.9225 13.6957 40.022 13.7557C39.872 13.7999 39.7598 13.961 39.7598 14.1537C39.7598 14.3796 39.9162 14.5644 40.1089 14.5644C40.2495 14.5644 40.3727 14.4633 40.4264 14.3212C40.4469 14.4017 40.458 14.4839 40.458 14.5708Z" fill="#202234"/>
<defs>
<linearGradient id="paint0_linear_1058_6085" x1="32.1069" y1="55.1767" x2="63.1184" y2="55.1767" gradientUnits="userSpaceOnUse">
<stop stop-color="#BDDCFD"/>
<stop offset="0.0001" stop-color="#5A4ACC"/>
<stop offset="1" stop-color="#7966FF"/>
</linearGradient>
<linearGradient id="paint1_linear_1058_6085" x1="188.599" y1="263.146" x2="92.1931" y2="95.2857" gradientUnits="userSpaceOnUse">
<stop stop-color="#BDDCFD"/>
<stop offset="1" stop-color="white"/>
</linearGradient>
<linearGradient id="paint2_linear_1058_6085" x1="103.01" y1="52.9531" x2="103.01" y2="57.3776" gradientUnits="userSpaceOnUse">
<stop stop-color="#7966FF"/>
<stop offset="0.9999" stop-color="#361EDD"/>
<stop offset="1" stop-color="#7966FF"/>
</linearGradient>
<linearGradient id="paint3_linear_1058_6085" x1="125.453" y1="90.7734" x2="125.453" y2="94.9073" gradientUnits="userSpaceOnUse">
<stop stop-color="#7966FF"/>
<stop offset="0.9999" stop-color="#361EDD"/>
<stop offset="1" stop-color="#7966FF"/>
</linearGradient>
<linearGradient id="paint4_linear_1058_6085" x1="125.453" y1="102.469" x2="125.453" y2="106.604" gradientUnits="userSpaceOnUse">
<stop stop-color="#7966FF"/>
<stop offset="0.9999" stop-color="#361EDD"/>
<stop offset="1" stop-color="#7966FF"/>
</linearGradient>
<linearGradient id="paint5_linear_1058_6085" x1="107.012" y1="129.969" x2="107.012" y2="134.248" gradientUnits="userSpaceOnUse">
<stop stop-color="#7966FF"/>
<stop offset="0.9999" stop-color="#361EDD"/>
<stop offset="1" stop-color="#7966FF"/>
</linearGradient>
<linearGradient id="paint6_linear_1058_6085" x1="108.011" y1="147.328" x2="108.011" y2="151.494" gradientUnits="userSpaceOnUse">
<stop stop-color="#7966FF"/>
<stop offset="0.9999" stop-color="#361EDD"/>
<stop offset="1" stop-color="#7966FF"/>
</linearGradient>
</defs>
</svg>
