<svg width="140" height="158" viewBox="0 0 140 158" fill="none" xmlns="http://www.w3.org/2000/svg">
<path d="M61.2918 33.8359C75.5178 45.2908 83.6806 70.6046 83.6806 70.6046L130.316 57.0375L134.691 57.7481C134.691 57.7481 95.5329 105.204 76.121 99.2642C58.9056 93.9959 56.2724 66.9296 54.7848 48.6472C65.6364 40.1783 52.0764 37.1244 61.2918 33.8359Z" fill="#2D305E"/>
<path d="M136.062 38.9111L119.552 40.2895C118.929 40.3414 118.423 40.8193 118.331 41.4423L113.775 72.2464C113.647 73.1128 114.355 73.8754 115.222 73.8038L131.435 72.4487C132.054 72.3968 132.557 71.926 132.656 71.3084L137.509 40.481C137.645 39.6092 136.936 38.8377 136.062 38.9111Z" fill="white"/>
<path d="M138.538 40.5752L122.028 41.9535C121.405 42.0054 120.899 42.4834 120.807 43.1064L116.25 73.9104C116.121 74.7769 116.83 75.5394 117.698 75.4678L133.913 74.1127C134.532 74.0608 135.035 73.59 135.132 72.9724L139.983 42.1451C140.121 41.2733 139.41 40.5018 138.538 40.5752Z" fill="#1D2149"/>
<path d="M132.442 48.6422C132.111 50.2014 130.619 51.5672 129.11 51.6925C127.601 51.8178 126.645 50.6578 126.977 49.0987C127.308 47.5413 128.797 46.1736 130.308 46.0483C131.817 45.923 132.771 47.0848 132.442 48.6422Z" fill="white"/>
<path d="M138.083 50.8806C136.655 53.3456 136.678 53.5909 136.678 53.5909C136.678 53.5909 130.848 52.2393 131.678 55.4991C132.479 58.6389 131.367 59.8777 134.877 60.4362C138.388 60.9947 138.581 58.1449 138.923 57.2033C140.543 52.7495 139.512 48.4157 138.083 50.8806Z" fill="#FFB092"/>
<path d="M77.5181 115.302C77.5181 115.302 96.8512 168.785 89.7194 209.252C82.5859 249.719 69.4752 296.949 69.4752 296.949L61.2407 296.323C61.2407 296.323 45.9872 153.743 50.1689 131.374C54.3506 109.003 77.5181 115.302 77.5181 115.302Z" fill="#1D2149"/>
<path d="M67.2933 126.083C67.2933 126.083 69.6187 179.329 60.7702 219.456C51.9217 259.583 39.8529 299.574 39.8529 299.574L31.6524 298.597C31.6524 298.597 12.8259 147.031 17.9581 124.858C23.0867 102.688 67.2933 126.083 67.2933 126.083Z" fill="#2D305E"/>
<path opacity="0.1" d="M65.2266 157.916C59.5806 160.724 52.8803 161.267 46.6704 161.302C40.7989 161.335 34.8987 160.81 29.1184 159.783C28.798 159.725 28.5223 159.869 28.4149 160.182C28.1249 161.034 27.9782 161.922 27.9262 162.819C27.6667 167.256 29.2473 171.771 30.5702 175.94C31.1932 177.898 31.8555 179.855 32.3442 181.853C33.0764 184.855 33.5042 187.957 34.0788 190.993C36.5134 203.848 39.0016 216.758 39.6514 229.853C39.9593 236.066 39.825 242.31 39.8197 248.531C39.8143 254.617 39.7785 260.703 39.6228 266.788C39.3471 277.638 38.6901 288.504 37.1292 299.251L31.6514 298.598C31.6514 298.598 12.8249 147.032 17.9571 124.86C23.0876 102.687 67.2942 126.082 67.2942 126.082C67.2942 126.082 67.8527 138.878 67.3783 156.648C66.6963 157.119 65.9749 157.543 65.2266 157.916Z" fill="#1A2326"/>
<path d="M82.2237 120.774C80.4372 128.308 77.2902 133.636 72.5625 134.993C64.4194 137.266 20.4509 139.081 15.8038 124.29C13.7308 117.686 35.3302 38.0836 39.9236 34.9205C52.2485 26.4032 61.4782 33.9807 61.4782 33.9807C76.9053 47.3886 87.5833 98.0234 82.2237 120.774Z" fill="#7966FF"/>
<path opacity="0.1" d="M32.1273 54.9219C31.5491 57.7484 30.8259 60.5392 30.287 63.3801C29.6891 66.5343 29.1199 70.1574 30.2298 73.2668C31.4309 76.6251 34.5027 77.8101 37.8717 77.6956C42.0247 77.5541 45.8806 76.1346 49.5199 74.2621C47.9178 76.4908 46.6038 78.9164 44.9516 81.1111C43.02 83.6763 40.419 85.6794 37.9451 87.6897C35.4479 89.7197 32.9722 91.8374 31.1946 94.5547C29.3401 97.3903 28.0512 100.731 27.2492 104.012C25.801 109.948 26.1107 116.503 29.673 121.668C32.2741 125.438 36.3322 127.129 40.7019 127.942C43.2993 128.425 45.9361 128.692 48.5586 129.018C51.0236 129.326 53.4814 129.664 55.9553 129.904C60.9801 130.391 66.0372 130.62 71.0853 130.443C73.62 130.355 76.1763 130.156 78.7236 129.834C77.0821 132.474 75.0432 134.286 72.5639 134.997C64.4207 137.27 20.4522 139.085 15.8051 124.294C14.3641 119.704 24.3546 79.867 32.1273 54.9219Z" fill="#1A2326"/>
<path d="M55.2044 26.3569L56.9551 35.6869C56.9551 35.6869 54.4794 37.3499 52.154 38.0265C49.8305 38.705 45.8869 35.3163 45.8869 35.3163L50.1205 25.9219L55.2044 26.3569Z" fill="#FFB092"/>
<path d="M60.9688 13.3645C62.1181 17.3582 62.9809 27.4472 58.2604 29.769C53.5399 32.0907 49.4388 30.3114 47.1958 26.4412C44.9528 22.5728 44.6413 21.411 44.6413 21.411C44.6413 21.411 41.7789 20.6377 42.7062 18.1619C43.6352 15.6862 44.951 17.3099 44.951 17.3099C44.951 17.3099 45.6473 9.65 51.1411 6.63189C56.635 3.61378 60.1454 10.5021 60.9688 13.3645Z" fill="#FFB092"/>
<path opacity="0.05" d="M61.8705 20.0813C61.935 20.5807 61.6897 21.0068 61.3639 20.9907C60.6049 20.9495 59.9462 20.7633 59.8817 20.2639C59.8173 19.7663 60.3776 19.2829 61.1312 19.1845C61.8866 19.086 61.8061 19.5819 61.8705 20.0813Z" fill="#33133F"/>
<path opacity="0.05" d="M52.6141 20.6422C52.6785 21.1416 52.12 21.625 51.3646 21.7216C50.611 21.8183 49.9468 21.4943 49.8824 20.9949C49.8179 20.4954 50.3782 20.0139 51.1319 19.9154C51.8855 19.8188 52.5496 20.1446 52.6141 20.6422Z" fill="#33133F"/>
<path d="M54.7208 20.5948C54.7279 20.5823 54.7351 20.5733 54.744 20.568C54.7763 20.5501 54.821 20.5769 54.8604 20.6378C54.9052 20.713 55.9917 22.4386 56.9763 21.0155C57.0103 20.9707 57.0748 20.9994 57.1195 21.0853C57.166 21.1712 57.1768 21.2804 57.1446 21.327C56.0472 22.9076 54.7709 20.8633 54.7584 20.8418C54.71 20.7631 54.6939 20.6521 54.7208 20.5948Z" fill="#1D2149"/>
<path d="M51.4144 17.1749C51.427 17.7764 51.7546 18.2615 52.177 18.2776C52.6228 18.2919 53.0059 17.7764 53.0327 17.1284C53.0596 16.475 52.7159 15.9308 52.2701 15.9147C52.0822 15.9057 51.9031 15.9935 51.7617 16.1402C51.8763 16.2459 51.9443 16.4302 51.939 16.6415C51.9282 16.9583 51.742 17.2089 51.5219 17.2036C51.4825 17.2018 51.4485 17.191 51.4144 17.1749Z" fill="#1D2149"/>
<path d="M58.6863 17.887C59.132 17.9013 59.5151 17.3858 59.5366 16.7378C59.5635 16.0844 59.2198 15.5384 58.774 15.5241C58.663 15.5187 58.5556 15.5473 58.4554 15.6028C58.5556 15.7085 58.6183 15.8857 58.6111 16.0826C58.6004 16.3994 58.4106 16.6501 58.194 16.6447C58.0938 16.6393 58.0079 16.5838 57.9416 16.4889C57.9327 16.5462 57.9273 16.6107 57.9237 16.6715C57.8969 17.3267 58.2406 17.8673 58.6863 17.887Z" fill="#1D2149"/>
<path opacity="0.05" d="M55.3991 26.6238C55.0518 26.5558 54.837 26.4609 54.8155 26.4501C54.7314 26.4108 54.6938 26.3123 54.7314 26.2282C54.769 26.144 54.8692 26.1082 54.9533 26.144C54.9659 26.1512 56.3425 26.7491 57.8694 25.8719C57.9518 25.829 58.052 25.8558 58.0986 25.9346C58.1433 26.0152 58.1165 26.1172 58.0359 26.1637C56.9726 26.7742 55.9916 26.7384 55.3991 26.6238Z" fill="#33133F"/>
<path d="M53.7461 15.2446C53.7461 15.2446 52.5056 13.4813 50.54 14.5608C50.54 14.5608 50.2124 14.9993 50.9732 14.8919C51.734 14.7827 53.3344 15.5256 53.7461 15.2446Z" fill="#1D2149"/>
<path d="M60.5586 14.4275C60.5586 14.4275 58.8777 13.0778 57.2881 14.6584C57.2881 14.6584 57.0947 15.1704 57.7947 14.8571C58.4964 14.5421 60.2417 14.8124 60.5586 14.4275Z" fill="#1D2149"/>
<path d="M48.3465 8.71859C48.3465 8.71859 55.2956 10.1095 60.2739 15.0788C61.9924 16.7955 64.9013 15.5174 67.5614 13.8705C70.9948 11.7439 70.866 1.20911 65.2719 3.32322C57.9128 6.10325 55.5409 -5.09921 46.1393 3.40557C40.3733 8.61655 48.3465 8.71859 48.3465 8.71859Z" fill="#1D2149"/>
<path d="M50.523 7.49171C50.523 7.49171 50.6788 15.3073 44.9522 17.3194C44.9522 17.3194 39.999 15.463 41.5474 10.8195C43.0941 6.17778 46.9625 4.93903 50.523 7.49171Z" fill="#1D2149"/>
<path opacity="0.24" d="M44.876 18.2621C44.876 18.2621 43.8699 17.12 43.426 17.8755C42.9803 18.6291 44.142 20.1775 44.142 20.1775C44.142 20.1775 43.1933 18.7848 43.6766 18.3194C44.1599 17.8558 44.8384 18.4358 44.876 18.2621Z" fill="#404A4F"/>
<path d="M61.8955 19.627C62.0978 21.7143 60.9056 23.5312 59.9658 24.6142C59.1817 24.292 58.0182 24.0826 56.3211 24.301C52.1914 24.8326 54.9302 28.3484 50.9652 26.2218C47.0001 24.0969 47.0806 15.755 47.0806 15.4292C47.0806 15.4292 46.4272 14.4894 45.3639 16.7378C44.3006 18.9862 44.5047 21.3169 44.5047 21.3169C44.5047 21.3169 44.5047 23.0747 44.9128 25.3231C45.321 27.5715 51.495 32.0682 58.1184 30.7615C62.1461 29.9649 62.4988 28.2929 62.1587 27.1043C63.2059 24.4728 61.8955 19.627 61.8955 19.627Z" fill="#1D2149"/>
<path d="M15.675 108.385C14.1784 123.857 25.5098 137.612 40.9816 139.108C56.4535 140.605 70.2104 129.273 71.7052 113.802C73.2017 98.3297 61.8704 84.5746 46.3985 83.078C30.9249 81.5815 17.1715 92.9129 15.675 108.385Z" fill="#7966FF"/>
<path d="M16.9575 108.798C15.4609 124.27 26.7923 138.025 42.2642 139.522C57.736 141.019 71.4929 129.687 72.9877 114.215C74.4824 98.7435 63.1529 84.9865 47.681 83.4918C32.2091 81.9971 18.4522 93.3266 16.9575 108.798Z" fill="#BDDCFD"/>
<path d="M18.8502 108.987C17.4557 123.413 28.0209 136.241 42.4473 137.635C56.8738 139.03 69.7016 128.465 71.0961 114.038C72.4906 99.6101 61.9254 86.784 47.499 85.3895C33.0708 83.9932 20.2447 94.5584 18.8502 108.987Z" fill="#7966FF"/>
<path d="M20.0104 109.099C19.9066 110.177 19.869 111.246 19.9066 112.295C20.1303 119.858 23.7553 126.703 29.4281 131.193C33.0817 134.077 37.5785 135.987 42.5603 136.468C56.3441 137.8 68.5956 127.709 69.9274 113.925C70.1977 111.124 70.0008 108.394 69.385 105.804C68.6135 102.456 67.151 99.3397 65.1622 96.6331C61.0807 91.1034 54.7599 87.2619 47.3864 86.5476C33.6027 85.2158 21.3422 95.3156 20.0104 109.099Z" fill="#BDDCFD"/>
<path opacity="0.2" d="M19.9102 112.294C20.134 119.858 23.759 126.703 29.4318 131.193C44.4167 126.508 59.7919 118.121 69.3887 105.804C68.6171 102.456 67.1546 99.3394 65.1658 96.6328C52.1303 107.01 36.304 111.786 19.9102 112.294Z" fill="white"/>
<path opacity="0.2" d="M69.5805 106.68C70.037 109.009 70.173 111.441 69.9331 113.926C68.6013 127.71 56.3463 137.804 42.5625 136.472C39.9239 136.218 37.4231 135.559 35.1085 134.569C48.6721 129.409 62.5991 119.719 69.5805 106.68Z" fill="white"/>
<g opacity="0.3">
<path d="M44.9181 122.88C46.522 122.904 47.8378 122.784 48.8653 122.519C49.8928 122.256 50.659 122.027 51.1602 121.833L51.8619 121.103L50.1165 117.934C49.3182 118.232 48.3748 118.482 47.2864 118.684C46.198 118.889 45.0667 118.931 43.8888 118.819C42.5587 118.69 41.6637 118.421 41.209 118.015C40.7525 117.607 40.5574 117.077 40.6201 116.422C40.6594 116.008 40.7937 115.663 41.0175 115.387C41.243 115.113 41.5527 114.873 41.9447 114.669C42.3386 114.465 42.8308 114.277 43.4198 114.102C44.0087 113.928 44.6872 113.744 45.4533 113.556C46.1998 113.362 46.9302 113.142 47.648 112.892C48.3658 112.643 49.0246 112.315 49.6225 111.911C50.2222 111.506 50.7252 110.989 51.128 110.355C51.5307 109.723 51.776 108.939 51.8673 108.001C51.9371 107.281 51.8995 106.578 51.7563 105.892C51.6149 105.209 51.3499 104.571 50.9669 103.984C50.5838 103.399 50.0611 102.88 49.4005 102.43C48.74 101.981 47.9398 101.625 46.9964 101.356L47.3383 97.8226L43.9443 96.7109L43.2157 97.4252L42.8863 100.826C41.7407 100.826 39.4153 100.667 38.5776 100.807C38.4147 100.996 38.1229 101.254 37.9009 101.499L38.5346 105.524C39.2846 105.289 40.1439 105.107 41.1123 104.981C42.0826 104.856 43.0904 104.843 44.1376 104.944C45.1848 105.044 45.9206 105.291 46.3448 105.685C46.7691 106.079 46.9534 106.556 46.8979 107.124C46.8639 107.473 46.7655 107.767 46.599 108.003C46.4343 108.239 46.1891 108.441 45.8633 108.608C45.5393 108.774 45.1436 108.93 44.68 109.072C44.2164 109.215 43.6561 109.365 43.0027 109.523C42.0092 109.78 41.0837 110.076 40.2262 110.412C39.367 110.749 38.6134 111.155 37.9618 111.63C37.312 112.108 36.7821 112.688 36.3739 113.375C35.9658 114.061 35.717 114.884 35.6239 115.844C35.5594 116.499 35.5952 117.156 35.7295 117.818C35.8638 118.48 36.1323 119.105 36.5386 119.696C36.9432 120.285 37.4928 120.811 38.1855 121.275C38.8783 121.738 39.7501 122.109 40.8009 122.386L40.416 126.377L44.5386 126.774L45.2385 126.056L44.9181 122.88ZM42.8899 100.828C41.7442 100.828 39.4619 100.638 38.6241 100.778C38.4612 100.968 38.1264 101.256 37.9063 101.501" fill="#BDDCFD"/>
</g>
<path d="M45.6185 122.166C47.2224 122.189 48.5399 122.07 49.5656 121.805C50.5931 121.541 51.3593 121.312 51.8605 121.117L50.8169 117.22C50.0185 117.517 49.0751 117.768 47.9868 117.97C46.8984 118.174 45.7688 118.217 44.5909 118.104C43.2609 117.976 42.3658 117.709 41.9112 117.301C41.4547 116.893 41.2596 116.361 41.3222 115.709C41.3616 115.296 41.4941 114.95 41.7196 114.675C41.9452 114.399 42.2549 114.159 42.6469 113.955C43.0407 113.751 43.533 113.563 44.1219 113.388C44.7109 113.214 45.3893 113.031 46.1555 112.842C46.902 112.648 47.6323 112.428 48.3502 112.177C49.068 111.929 49.7267 111.601 50.3246 111.196C50.9243 110.792 51.4273 110.275 51.8301 109.641C52.2329 109.009 52.4781 108.225 52.5694 107.287C52.6392 106.567 52.6016 105.864 52.4584 105.18C52.317 104.496 52.0521 103.859 51.669 103.27C51.2859 102.683 50.7632 102.165 50.1027 101.716C49.4421 101.267 48.6401 100.911 47.6985 100.642L48.0405 97.1101L43.9179 96.7109L43.5885 100.114C42.4446 100.114 41.4529 100.182 40.6151 100.322C39.7756 100.461 39.1061 100.617 38.6048 100.787L39.2385 104.809C39.9886 104.573 40.8478 104.392 41.8163 104.265C42.7847 104.14 43.7943 104.127 44.8398 104.228C45.887 104.33 46.6227 104.575 47.047 104.969C47.4712 105.363 47.6556 105.842 47.6019 106.408C47.5679 106.757 47.4676 107.051 47.3011 107.287C47.1365 107.523 46.8912 107.725 46.5654 107.894C46.2414 108.06 45.8458 108.214 45.3822 108.357C44.9185 108.501 44.3582 108.651 43.7048 108.807C42.7113 109.064 41.7858 109.36 40.9284 109.696C40.0709 110.033 39.3155 110.439 38.6657 110.914C38.0141 111.392 37.486 111.972 37.0779 112.659C36.6697 113.345 36.4209 114.168 36.3278 115.128C36.2652 115.783 36.2992 116.44 36.4334 117.102C36.5677 117.763 36.8362 118.389 37.2426 118.978C37.6471 119.567 38.1967 120.093 38.8895 120.557C39.5822 121.021 40.4558 121.389 41.5048 121.669L41.1199 125.659L45.2425 126.058L45.6185 122.166Z" fill="#7966FF"/>
<path d="M32.4203 141.07L32.4221 141.068C32.1912 140.71 31.9262 140.164 31.6237 139.315C31.6237 139.315 31.6291 139.321 31.6344 139.33C31.4679 138.913 31.323 138.465 31.2066 138.009C31.0025 137.221 30.9005 136.63 30.8504 136.208C30.8504 136.206 30.8504 136.204 30.8504 136.202C30.7805 135.578 30.8253 135.318 30.8253 135.318C30.8253 135.318 26.4342 128.773 26.1889 127.764C26.3554 126.618 30.3581 125.234 30.3581 125.234C31.3516 125.447 34.3071 131.838 35.766 132.502C37.4684 133.277 42.0367 132.875 41.3064 134.183C40.5742 135.493 37.6026 134.79 37.6026 134.79C37.6026 134.79 37.6295 134.817 37.6742 134.867C37.9535 135.168 38.9756 136.329 39.4643 137.681L39.4661 137.683C39.5986 138.059 39.6935 138.449 39.7167 138.839C39.7203 138.909 39.7239 138.977 39.7239 139.045C39.7239 139.167 39.7167 139.292 39.6988 139.414C39.6971 139.433 39.6935 139.455 39.6899 139.475C39.6809 139.535 39.6702 139.596 39.6577 139.657L39.6559 139.664C39.6541 139.664 39.6541 139.664 39.6541 139.666C39.5717 139.818 39.4267 139.979 39.1761 140.128C38.3688 140.606 37.9338 140.092 37.9338 140.092C37.9338 140.092 37.975 140.767 37.2697 141.061C36.5214 141.376 36.3531 140.849 36.3531 140.849C36.3531 140.849 36.1562 141.576 35.5583 141.804C34.9282 142.043 34.7456 141.429 34.7456 141.429C34.7456 141.429 34.683 141.956 33.9472 142.244C33.2831 142.502 32.4203 141.07 32.4203 141.07Z" fill="#FFB092"/>
<path opacity="0.2" d="M35.7968 140.153C35.7914 140.178 35.7735 140.2 35.7395 140.208C35.3511 140.314 34.9841 140.429 34.7013 140.735C34.6064 140.837 34.499 140.951 34.354 140.967C34.2877 140.976 34.2251 140.96 34.1624 140.951C34.0765 140.939 34.0013 140.957 33.9154 140.982C33.6379 141.066 33.3694 141.207 33.126 141.368C33.015 141.444 32.904 141.524 32.7984 141.612C33.1099 141.99 33.561 142.407 33.944 142.256C34.6798 141.968 34.7424 141.442 34.7424 141.442C34.7424 141.442 34.925 142.058 35.5551 141.818C36.1512 141.59 36.3482 140.864 36.3482 140.864C36.3482 140.864 36.5164 141.39 37.2647 141.075C37.97 140.779 37.9288 140.106 37.9288 140.106C37.9288 140.106 38.3638 140.62 39.1711 140.142C39.4218 139.994 39.5668 139.833 39.6491 139.68C39.6509 139.68 39.6509 139.68 39.6527 139.679L39.6545 139.671C39.6688 139.611 39.6795 139.55 39.6867 139.489C39.6903 139.469 39.6939 139.448 39.6956 139.428C39.7118 139.304 39.7189 139.183 39.7207 139.059C39.7207 138.989 39.7171 138.921 39.7118 138.852C39.5578 139.014 39.3519 139.149 39.1622 139.256C38.9456 139.376 38.7003 139.485 38.4569 139.464C38.1991 139.442 38.0022 139.281 37.7552 139.236C37.4956 139.192 37.2146 139.335 37.032 139.528C36.8744 139.695 36.7939 139.899 36.5755 140.006C36.3302 140.126 36.0617 140.128 35.804 140.153C35.8022 140.153 35.8004 140.153 35.7968 140.153Z" fill="white"/>
<path opacity="0.2" d="M41.1406 133.848C41.1406 133.848 39.9717 133.829 39.8661 133.664C39.7605 133.499 39.9538 133.32 39.9538 133.32C39.9538 133.32 41.0422 133.508 41.1406 133.848Z" fill="white"/>
<path d="M35.0332 130.75C35.0332 130.75 31.4977 134.545 29.5537 133.983C27.6096 133.421 0.557625 106.188 1.00336 85.6953C1.33453 70.4866 9.71758 68.2329 17.0427 79.0129C24.3678 89.7929 35.0332 130.75 35.0332 130.75Z" fill="#2D305E"/>
<path d="M43.4316 32.7344C43.4316 32.7344 27.1041 96.0324 18.184 92.2213C9.26396 88.4101 -2.3037 85.1038 2.34162 75.0005C6.98694 64.8954 26.6817 41.9713 43.4316 32.7344Z" fill="#2D305E"/>
</svg>
