<svg width="126" height="155" viewBox="0 0 126 155" fill="none" xmlns="http://www.w3.org/2000/svg">
<path d="M72.7273 54.0517C79.4806 62.2433 85.8535 69.6014 85.8535 69.6014L111.898 48.5352L114.871 47.8203C114.871 47.8203 102.619 88.447 88.6889 89.8454C76.3349 91.0851 67.4411 74.573 61.6202 63.34C66.2658 55.0611 67.7443 58.6 72.7273 54.0517Z" fill="#EF9A7F"/>
<path d="M54.6759 64.9812C54.6759 64.9812 72.452 59.0015 76.0238 56.169C79.597 53.3364 58.8511 31.7527 52.8243 28.3582C49.0451 26.2277 54.6759 64.9812 54.6759 64.9812Z" fill="#2D305E"/>
<path d="M113.266 26.5192L95.0138 30.9046C94.3246 31.0705 93.8399 31.6925 93.8442 32.406L94.0429 67.6907C94.0472 68.6844 94.9723 69.4151 95.9318 69.1849L113.858 64.8781C114.543 64.7137 115.026 64.1003 115.028 63.3911L115.156 28.0292C115.159 27.0283 114.231 26.2876 113.266 26.5192Z" fill="#2D305E"/>
<path d="M114.331 26.2614L96.0787 30.6468C95.3895 30.8127 94.9048 31.4347 94.909 32.1482L95.1064 67.4329C95.1121 68.4266 96.0358 69.1573 96.9952 68.9271L114.923 64.6203C115.606 64.4559 116.09 63.8425 116.092 63.1333L116.22 27.7699C116.224 26.7705 115.295 26.0298 114.331 26.2614Z" fill="#1D2149"/>
<path d="M108.89 36.3288C108.788 38.1318 107.353 39.9177 105.684 40.3195C104.015 40.7199 102.746 39.5846 102.847 37.7815C102.949 35.9799 104.384 34.1926 106.053 33.7922C107.723 33.389 108.993 34.5257 108.89 36.3288Z" fill="white"/>
<path d="M107.392 144.828C107.392 144.828 119.62 151.341 120.95 156.258C122.28 161.176 93.7028 160.777 84.7976 153.733C75.8924 146.688 107.392 144.828 107.392 144.828Z" fill="#1D2149"/>
<path d="M74.7848 120.516C90.5119 122.688 118.91 121.482 123.166 126.896C131.29 137.232 113.352 149.397 106.153 150.82C98.0243 152.426 86.2108 153.092 70.1335 154.542C71.7664 141.759 71.875 133.08 74.7848 120.516Z" fill="#FFB092"/>
<path d="M5.10224 103.562L58.0357 106.561C58.0357 106.561 67.0739 116.68 90.1318 119.611C87.1835 132.389 85.7779 145.427 84.105 158.425C60.9927 160.281 30.458 160.094 12.8078 149.282C-8.36277 136.315 5.10224 103.562 5.10224 103.562Z" fill="#1D2149"/>
<path d="M48.9375 24.265C48.9375 24.265 23.5732 30.7137 10.5386 69.809C4.93351 86.6213 0.387978 105.624 5.17516 107.941C9.9609 110.255 51.2596 124.112 61.9707 107.675C72.6818 91.2355 66.3018 17.9036 48.9375 24.265Z" fill="#7966FF"/>
<path d="M72.9027 11.3134C72.9027 11.3134 72.7812 14.0387 73.0843 17.0558C73.2144 18.3498 74.3497 18.7673 73.885 19.874C73.4989 20.7934 72.5652 20.4159 72.5309 20.6762C72.1649 23.4744 71.4757 25.765 70.1902 25.5734C67.0074 25.1016 64.0232 23.7561 64.0232 23.7561L60.0811 34.6002C60.0811 34.6002 57.2443 36.2431 52.0567 29.3111C52.0567 29.3111 49.7361 26.4671 52.2169 24.0149C54.6977 21.5641 56.342 17.765 56.342 17.765C56.342 17.765 59.136 8.95129 64.0661 8.17917C68.9963 7.40704 72.9027 11.3134 72.9027 11.3134Z" fill="#FFB092"/>
<path d="M70.3154 17.3995C70.4526 17.9229 70.8415 18.2775 71.2147 18.2046C71.608 18.1245 71.8339 17.5926 71.7209 17.0206C71.6065 16.443 71.1919 16.0383 70.7986 16.1198C70.6328 16.1527 70.4941 16.2657 70.4026 16.4229C70.5241 16.4901 70.6228 16.6389 70.6628 16.8247C70.72 17.1036 70.6099 17.3624 70.4154 17.4038C70.3811 17.4096 70.3482 17.4067 70.3154 17.3995Z" fill="#1D2149"/>
<path d="M71.9443 15.1964C71.9443 15.1964 70.4887 13.9153 68.9974 15.2708C68.9974 15.2708 68.8029 15.7241 69.4449 15.4695C70.0869 15.2165 71.6441 15.5296 71.9443 15.1964Z" fill="#1D2149"/>
<path d="M71.7363 22.6652C71.7363 22.6652 70.2807 21.384 68.7894 22.7395C68.7894 22.7395 68.5949 23.1928 69.2369 22.9383C69.8789 22.6838 71.4346 22.9983 71.7363 22.6652Z" fill="#1D2149"/>
<path d="M63.2347 17.9453L62.188 22.4665L58.5962 21.1954C58.5962 21.1954 61.4817 28.7422 62.3367 28.4105L64.0254 23.7691L63.2347 17.9453Z" fill="#EF9A7F"/>
<path d="M55.3034 18.9791C55.3034 18.9791 62.9031 20.7964 63.6223 16.9801C63.6223 16.9801 60.6696 13.6343 62.5599 12.5619C64.4502 11.4895 64.699 13.8001 64.699 13.8001C64.699 13.8001 66.2919 10.6344 66.3619 10.9261C66.432 11.2192 73.3368 16.5869 76.4753 13.0452C79.6153 9.5034 77.0459 0.872753 65.0565 0.0377136C57.1922 -0.509923 48.3399 4.8635 55.3034 18.9791Z" fill="#1D2149"/>
<path d="M48.6344 69.8056C50.569 77.7414 51.9445 83.3092 51.9445 83.3092L79.182 57.0312C81.8401 57.7061 81.7285 62.785 84.4639 63.1625C76.0091 72.5038 65.3452 105.95 47.8751 108.106C34.3429 109.776 28.1631 92.8193 23.9221 76.1671C28.3704 75.0518 43.9716 71.4071 48.6344 69.8056Z" fill="#FFB092"/>
<path d="M23.4962 85.585L50.7422 72.22C50.7422 72.22 46.2782 33.1991 32.7988 35.7185C25.2563 37.1269 12.4634 61.9708 23.4962 85.585Z" fill="#2D305E"/>
<path d="M116.041 41.9953C115.789 43.9442 115.03 44.6534 115.03 44.6534C115.03 44.6534 108.354 46.7481 110.343 47.9435C112.33 49.1389 113.328 50.0683 115.71 49.4892C118.092 48.9087 117.455 47.0441 117.422 46.3549C117.263 43.0877 116.292 40.0464 116.041 41.9953Z" fill="#FFB092"/>
<path d="M64.1377 13.7278C64.1377 13.7278 63.8002 12.7298 63.0724 13.123C62.3447 13.5162 63.6072 15.7968 63.6072 15.7968C63.6072 15.7968 62.5205 13.6149 63.2397 13.5948C63.9604 13.5734 64.0061 14.0324 64.1377 13.7278Z" fill="#EF9A7F"/>
<path d="M79.5599 57.7776C79.5599 57.7776 79.3083 54.3674 80.5851 51.8551C81.1414 50.7627 83.3162 50.4395 84.1298 50.8742C84.8819 51.2746 85.7755 53.2235 85.7555 53.8841C85.7355 54.5447 85.5439 55.364 84.2127 54.2859C82.8815 53.2063 82.5426 53.5252 82.5426 53.5252L79.5599 57.7776Z" fill="#EF9A7F"/>
<path d="M90.4146 60.0334C90.2316 60.2307 90.0486 60.3937 89.8942 60.5066C89.8613 60.5295 89.8341 60.551 89.807 60.5681C89.1163 61.02 88.4057 61.4346 87.7337 61.7964C85.9306 62.7744 84.4164 63.385 84.4164 63.385C84.4164 63.385 77.4172 73.0923 76.1017 73.9302C74.4574 74.2662 70.0791 69.2417 70.0791 69.2417C70.0334 67.7689 78.2179 58.9538 79.439 56.9291C80.6644 54.903 82.8664 53.1815 82.8664 53.1815C82.8664 53.1815 91.5485 43.1753 92.691 44.2806C93.5746 45.1342 89.2307 50.3432 87.941 52.3293C87.931 52.3464 87.9181 52.3607 87.9081 52.3779C87.9138 52.375 88.9876 52.3021 89.4009 53.2029C89.6039 53.6419 89.5296 53.9622 89.5296 53.9622C89.5296 53.9622 90.1501 54.1266 90.4361 54.4898C90.7235 54.8544 90.9608 55.5636 90.8264 55.7395C90.8336 55.7452 91.3898 55.861 91.5814 56.4115C91.7744 56.9606 91.4041 57.7499 91.4041 57.7499L91.3998 57.747C91.3998 57.8543 91.397 57.9586 91.3869 58.0616C91.3083 58.8423 90.8565 59.5501 90.4146 60.0334Z" fill="#FFB092"/>
<path opacity="0.2" d="M88.2614 52.7502C88.4201 52.8803 88.5788 53.0133 88.6989 53.182C88.7976 53.3207 88.8934 53.4765 88.9448 53.6395C88.9892 53.7782 88.9806 53.9098 88.9763 54.0528C88.9749 54.13 88.9649 54.2272 89.0149 54.2901C89.065 54.3516 89.1636 54.3802 89.2337 54.4159C89.3924 54.4989 89.5268 54.6176 89.6655 54.7291C89.9586 54.9636 90.2131 55.2224 90.3933 55.557C90.5263 55.8015 90.6564 56.0932 90.5806 56.3749C90.5606 56.4521 90.5206 56.5264 90.5034 56.6051C90.4819 56.7037 90.5191 56.7023 90.5978 56.7495C90.735 56.8338 90.8423 56.9654 90.9366 57.0941C91.3299 57.6274 91.2169 58.258 91.041 58.8457C90.9781 59.0558 90.9123 59.266 90.8466 59.4748C91.1154 59.0644 91.3341 58.5797 91.3885 58.0607C91.3985 57.9591 91.4013 57.8533 91.4013 57.7461L91.4056 57.749C91.4056 57.749 91.776 56.9597 91.5829 56.4106C91.3913 55.8601 90.8337 55.7443 90.828 55.7386C90.9624 55.5627 90.725 54.8535 90.4376 54.4889C90.1516 54.1257 89.5311 53.9613 89.5311 53.9613C89.5311 53.9613 89.6054 53.641 89.4024 53.202C89.002 52.3298 87.9868 52.3712 87.9153 52.377C88.0126 52.52 88.1212 52.6358 88.2614 52.7502Z" fill="white"/>
<path opacity="0.2" d="M91.4957 44.9244C91.4957 44.9244 92.0805 45.6307 92.255 45.5178C92.4294 45.4048 92.7769 44.4268 92.5424 44.3524C92.3064 44.2795 91.5629 44.6827 91.4957 44.9244Z" fill="white"/>
</svg>
