<?xml version="1.0" standalone="no"?>
<!DOCTYPE svg PUBLIC "-//W3C//DTD SVG 20010904//EN"
 "http://www.w3.org/TR/2001/REC-SVG-20010904/DTD/svg10.dtd">
<svg version="1.0" xmlns="http://www.w3.org/2000/svg"
 width="126.000000pt" height="155.000000pt" viewBox="0 0 126.000000 155.000000"
 preserveAspectRatio="xMidYMid meet">
<metadata>
Created by potrace 1.16, written by Peter Selinger 2001-2019
</metadata>
<g transform="translate(0.000000,155.000000) scale(0.100000,-0.100000)"
fill="#000000" stroke="none">
<path d="M568 1535 c-37 -21 -52 -71 -37 -129 l11 -46 45 0 c44 0 44 0 41 32
-2 20 2 33 9 33 6 0 14 3 18 7 4 4 17 1 29 -6 38 -24 63 -28 80 -11 26 26 20
68 -14 100 -26 25 -40 30 -93 32 -42 2 -71 -2 -89 -12z"/>
<path d="M467 1304 c-55 -20 -157 -95 -199 -146 -127 -155 -220 -399 -238
-623 -5 -60 -14 -140 -19 -176 -13 -83 -1 -166 34 -224 28 -49 59 -74 137
-110 l53 -25 489 0 489 0 -24 26 c-38 41 -53 45 -93 29 -38 -16 -233 -42 -242
-32 -7 6 33 277 45 310 8 21 4 23 -71 39 -62 14 -208 72 -208 83 0 1 7 18 15
38 8 19 19 54 24 78 l10 42 -45 -51 c-58 -66 -104 -94 -157 -94 -56 -1 -100
25 -138 81 -26 40 -74 150 -67 156 5 5 228 115 232 115 2 0 9 -21 15 -46 14
-53 11 -54 103 35 54 52 57 57 52 92 -6 36 -6 37 50 62 31 15 56 32 56 41 0
37 -143 196 -176 196 -12 0 -37 14 -54 32 -26 25 -31 37 -26 60 6 32 5 32 -47
12z"/>
<path d="M1033 1267 c-45 -12 -87 -27 -93 -33 -9 -9 -10 -63 -4 -193 l7 -181
26 1 c14 0 64 11 111 22 l85 22 0 74 c0 71 -1 74 -25 78 -40 6 -45 20 -12 37
36 18 45 50 40 136 -3 51 -5 55 -28 57 -14 1 -62 -8 -107 -20z"/>
</g>
</svg>
