<?xml version="1.0" standalone="no"?>
<!DOCTYPE svg PUBLIC "-//W3C//DTD SVG 20010904//EN"
 "http://www.w3.org/TR/2001/REC-SVG-20010904/DTD/svg10.dtd">
<svg version="1.0" xmlns="http://www.w3.org/2000/svg"
 width="140.000000pt" height="158.000000pt" viewBox="0 0 140.000000 158.000000"
 preserveAspectRatio="xMidYMid meet">
<metadata>
Created by potrace 1.16, written by Peter Selinger 2001-2019
</metadata>
<g transform="translate(0.000000,158.000000) scale(0.100000,-0.100000)"
fill="#000000" stroke="none">
<path d="M473 1562 c-27 -21 -63 -84 -63 -112 0 -11 8 -25 19 -31 14 -10 17
-21 13 -54 -4 -37 -1 -44 23 -64 16 -11 45 -24 67 -27 32 -6 38 -10 38 -30 0
-32 -40 -51 -78 -38 -21 8 -27 16 -25 37 2 32 2 32 -40 11 -98 -51 -314 -264
-380 -375 -38 -64 -38 -65 -35 -159 3 -105 21 -154 94 -266 50 -75 56 -105 61
-297 l4 -157 360 0 c338 0 360 1 355 18 -2 9 -12 54 -21 99 -9 45 -24 110 -34
145 -13 46 -16 70 -9 88 6 14 12 71 15 127 l6 103 53 24 c69 32 131 75 222
154 73 64 73 64 147 69 41 3 79 11 84 17 4 6 12 39 18 73 l9 62 -25 3 c-21 2
-26 8 -26 33 0 23 5 30 25 35 31 7 50 43 50 93 0 32 -3 38 -17 33 -10 -2 -53
-7 -95 -11 -48 -4 -78 -11 -79 -18 0 -7 -10 -77 -23 -156 -14 -97 -26 -146
-35 -149 -11 -4 -12 8 -7 62 4 36 6 66 4 66 -2 0 -70 -20 -152 -45 -83 -24
-153 -42 -158 -39 -4 3 -8 11 -8 19 0 8 -25 63 -55 123 -56 110 -138 215 -176
227 -21 7 -21 7 2 19 20 9 24 20 26 61 2 43 1 47 -9 28 -7 -16 -20 -23 -38
-23 -15 0 -33 -7 -40 -15 -19 -22 -48 -1 -60 44 -10 38 -7 50 27 110 5 8 64
-22 71 -36 5 -7 24 -16 44 -19 51 -9 80 22 76 79 l-3 42 -50 5 c-27 3 -60 11
-72 18 -31 17 -74 15 -100 -6z m66 -828 c111 -33 194 -148 194 -269 0 -155
-118 -273 -279 -280 -34 -2 -71 -8 -82 -14 -31 -17 -42 -14 -55 17 -7 15 -31
45 -55 67 -24 21 -48 48 -54 59 -6 12 12 0 39 -27 54 -52 63 -55 86 -29 19 21
21 11 -55 261 l-41 135 38 33 c69 59 166 76 264 47z"/>
<path d="M437 590 c-3 -12 -14 -20 -26 -20 -12 0 -21 -6 -21 -14 0 -10 14 -16
42 -18 58 -4 64 -31 11 -48 -52 -17 -73 -38 -73 -72 0 -21 7 -32 25 -40 14 -6
25 -19 25 -29 0 -9 7 -19 15 -23 10 -3 15 1 15 13 0 13 10 20 30 25 40 7 42
38 3 35 -56 -4 -73 0 -73 20 0 14 13 24 49 36 68 22 83 67 35 104 -16 13 -24
27 -20 36 3 10 -1 15 -13 15 -10 0 -21 -9 -24 -20z"/>
</g>
</svg>
