<svg width="173" height="167" viewBox="0 0 173 167" fill="none" xmlns="http://www.w3.org/2000/svg">
<path d="M106.362 208.288C104.474 207.569 62.0555 172.815 61.2754 170.467C60.9746 169.578 65.6762 163.105 71.5788 155.445C72.853 153.791 74.1794 152.09 75.5362 150.371C84.3301 139.197 93.922 127.547 93.922 127.547L122.365 150.713L103.197 172.9L98.993 177.773C98.993 177.773 109.282 198.344 109.861 201.01C110.431 203.67 108.251 209.006 106.362 208.288Z" fill="#FFB092"/>
<path d="M106.362 208.292C104.474 207.573 62.0552 172.819 61.2751 170.471C60.9142 169.387 67.9281 160.057 75.5359 150.375L103.196 172.904L98.9919 177.778C98.9919 177.778 109.281 198.348 109.86 201.015C110.431 203.674 108.25 209.01 106.362 208.292Z" fill="#EBEBEB"/>
<path d="M106.362 208.288C104.474 207.569 62.0555 172.815 61.2754 170.468C60.9746 169.578 65.6762 163.105 71.5788 155.445L98.9923 177.773C98.9923 177.773 109.282 198.343 109.861 201.01C110.431 203.67 108.251 209.007 106.362 208.288Z" fill="#7966FF"/>
<path d="M71.5094 165.883C68.3087 163.276 64.2515 168.246 67.4577 170.857C70.6584 173.464 74.7155 168.494 71.5094 165.883Z" fill="white"/>
<path d="M88.8476 173.907C91.0141 176.318 94.1478 177.707 96.8918 179.324C97.1762 179.492 97.4708 179.249 97.5301 178.98C97.5908 178.98 97.6477 178.944 97.6368 178.867C97.202 175.719 95.6628 172.181 93.6194 169.726C92.3577 168.21 89.9083 166.875 88.1626 168.55C86.5128 170.134 87.5828 172.499 88.8476 173.907ZM88.4564 170.879C88.5312 166.86 92.3561 169.665 93.2414 170.819C93.8104 171.561 94.3006 172.386 94.7619 173.197C95.7298 174.897 96.4367 176.703 97.2253 178.484C95.9262 177.606 94.5632 176.849 93.2329 176.02C91.6477 175.035 88.4151 173.096 88.4564 170.879Z" fill="#263238"/>
<path d="M151.906 107.197C149.757 122.095 112.46 164.722 108.15 169.61C107.514 170.33 107.169 170.723 107.169 170.723L77.0358 146.978L77.3912 146.531L104.604 111.784L24.7129 110.342L55.334 87.1238C55.334 87.1238 57.778 88.5733 62.9028 87.8883C80.5669 85.5222 120.391 80.2907 129.761 80.7824C141.849 81.4277 153.879 93.5282 151.906 107.197Z" fill="#263238"/>
<path d="M114.381 98.8656C113.33 99.9052 112.484 101.211 111.575 102.373C110.613 103.603 109.636 104.821 108.675 106.053C108.666 106.065 108.657 106.077 108.647 106.089C108.82 105.728 108.988 105.364 109.166 105.005C109.778 103.776 110.272 102.505 110.992 101.332C111.036 101.26 110.926 101.192 110.881 101.263C110.141 102.427 109.286 103.532 108.651 104.76C108.351 105.338 108.068 105.922 107.803 106.516C107.658 106.842 107.509 107.168 107.378 107.499C107.318 107.65 107.243 107.811 107.198 107.975C106.767 108.546 106.341 109.121 105.928 109.704C105.01 111 104.197 112.371 103.269 113.656C103.219 113.726 103.329 113.791 103.379 113.726C104.318 112.519 105.369 111.395 106.323 110.197C107.294 108.977 108.216 107.723 109.127 106.459C110.016 105.225 110.887 103.979 111.774 102.744C112.668 101.5 113.726 100.276 114.456 98.928C114.481 98.8804 114.422 98.8251 114.381 98.8656Z" fill="#37474F"/>
<path d="M111.327 163.73C109.611 162.233 107.771 160.856 105.966 159.467C104.153 158.073 102.333 156.689 100.506 155.314C96.8484 152.564 93.2074 149.79 89.5127 147.09C87.4833 145.607 85.4392 144.144 83.3326 142.772C83.2383 142.711 83.1394 142.861 83.2228 142.933C86.697 145.905 90.3894 148.606 94.0429 151.35C97.7033 154.099 101.373 156.838 105.075 159.531C107.1 161.005 109.117 162.527 111.229 163.875C111.314 163.929 111.402 163.795 111.327 163.73Z" fill="#37474F"/>
<path d="M46.4724 47.7666C54.7597 63.5479 64.594 80.2955 73.9154 82.7215C82.7818 85.0299 103.876 62.9377 107.454 55.6035C108.687 53.0746 91.9864 41.998 89.6227 43.8591C85.1673 47.3668 75.4133 58.4846 74.0245 58.2064C72.5789 57.911 60.7994 47.3839 50.1235 38.5246C43.652 33.1551 40.7319 36.835 46.4724 47.7666Z" fill="#FFB092"/>
<path d="M92.6354 18.2259L86.252 40.5698C85.9909 41.2229 86.3057 41.7708 86.9549 41.791L98.5769 42.1565C99.2261 42.1768 99.9657 41.6624 100.227 41.0094L106.61 18.6654C106.872 18.0108 106.556 17.4645 105.908 17.4442L94.286 17.0787C93.636 17.0584 92.8972 17.5712 92.6354 18.2259Z" fill="#A6A6A6"/>
<path d="M94.0158 18.2571L87.6331 40.6011C87.3713 41.2541 87.6869 41.802 88.3361 41.8223L99.9581 42.1878C100.607 42.208 101.347 41.6937 101.608 41.0406L107.991 18.6967C108.253 18.042 107.938 17.4957 107.288 17.4755L95.6664 17.11C95.0172 17.0897 94.2784 17.6025 94.0158 18.2571Z" fill="#DBDBDB"/>
<path d="M97.17 19.3848C97.1411 19.9296 96.6751 20.3481 96.1303 20.3185C95.5856 20.2889 95.1679 19.8236 95.1967 19.2789C95.2256 18.7341 95.6908 18.3156 96.2363 18.3452C96.7811 18.3748 97.1988 18.8401 97.17 19.3848Z" fill="#455A64"/>
<path d="M112.829 42.9557C113.81 36.4608 113.065 34.6427 116.803 29.6012C119.256 26.293 118.196 23.3067 114.337 25.1661C108.026 28.2078 105.001 36.3206 104.762 39.4363L112.829 42.9557Z" fill="#FFB092"/>
<path d="M104.452 59.98C104.452 59.98 110.512 52.9037 112.242 46.0862C113.438 41.3713 114.896 30.8239 104.591 20.5985C102.146 18.1732 96.9424 16.4509 99.4962 21.8617C101.311 25.7054 103.622 27.5952 104.27 30.0228C104.27 30.0228 97.3921 28.6177 95.0572 31.1614C94.0145 32.2984 91.2393 35.4679 89.4313 38.2431C89.4313 38.2431 89.9301 38.7995 90.6626 39.4144C90.6626 39.4144 88.7065 41.9963 89.1172 46.9045L104.452 59.98Z" fill="#FFB092"/>
<path d="M112.664 41.4002C111.511 39.1261 108.987 34.3481 105.563 31.1576C101.76 27.6132 93.4778 21.8111 90.8904 24.6463C88.9935 26.7248 91.9604 29.2178 91.9604 29.2178C91.9604 29.2178 88.0319 27.5415 86.7288 29.7937C85.5411 31.8465 87.9524 33.6374 87.9524 33.6374C87.9524 33.6374 85.3946 33.0303 84.6317 35.2272C83.7144 37.8699 89.2258 38.7092 90.6091 42.1896C90.92 42.9705 112.664 41.4002 112.664 41.4002Z" fill="#FFB092"/>
<path d="M102.489 35.8096C101.054 33.8488 96.6531 30.232 92.0637 29.1924C91.9593 29.169 91.886 29.2352 91.9764 29.2765C96.7864 31.4937 100.82 34.477 102.456 35.8454C102.477 35.8641 102.504 35.8322 102.489 35.8096Z" fill="#263238"/>
<path d="M98.7992 39.5338C97.3878 37.969 92.6846 34.4441 87.9978 33.5502C87.8933 33.5307 87.824 33.6016 87.9159 33.639C93.0369 35.7487 97.0535 38.3025 98.768 39.5712C98.7906 39.5884 98.8171 39.5533 98.7992 39.5338Z" fill="#263238"/>
<path d="M83.8699 46.7417L101.268 65.1891C101.268 65.1891 82.8942 85.7881 74.2679 83.6341C65.6416 81.48 49.3304 58.13 44.1011 43.3049C40.4827 33.0467 46.1912 34.6934 52.1834 39.7232C58.1757 44.7521 73.8494 57.2345 74.5344 57.049C75.2194 56.8628 83.8699 46.7417 83.8699 46.7417Z" fill="#7966FF"/>
<path opacity="0.1" d="M77.9778 83.4435C76.621 83.8114 75.3639 83.9111 74.2674 83.6352C65.6442 81.4812 49.3314 58.1311 44.1029 43.3061C41.719 36.5447 43.3829 34.958 46.5181 36.1083C55.9159 50.0519 68.4264 68.7408 77.9778 83.4435Z" fill="black"/>
<path d="M95.6229 68.2535C93.1034 65.7098 83.1724 54.924 81.1852 52.4481C81.0472 52.2766 81.1221 52.1473 81.2888 52.307C89.0228 59.748 93.3761 65.529 95.7195 68.1499C95.778 68.2161 95.6868 68.3182 95.6229 68.2535Z" fill="#263238"/>
<path d="M65.8167 97.7164C65.8167 97.7164 8.70097 108.162 8.40794 107.813C8.14531 107.508 14.6932 45.72 34.0796 35.2771C37.1532 33.621 44.5716 32.6469 47.738 35.8779C56.7672 45.0934 66.5664 96.8786 65.8167 97.7164Z" fill="#7966FF"/>
<path d="M65.2226 92.5891L8.97266 102.239C9.18619 100.541 9.46753 98.5135 9.81978 96.234L64.1845 86.9062C64.6007 89.0603 64.9475 90.9837 65.2226 92.5891Z" fill="#EBEBEB"/>
<path d="M63.578 83.8896L10.3223 93.028C10.4867 92.0172 10.6652 90.9745 10.8592 89.9005L62.967 80.9609C63.1845 81.96 63.3855 82.9443 63.578 83.8896Z" fill="#EBEBEB"/>
<path d="M45.2191 45.2726C42.0317 45.2571 37.9691 39.3973 36.8282 35.1687C36.7518 34.8788 37.7961 32.2751 38.916 29.0511C39.5877 27.0918 40.2899 24.8949 40.7856 22.8438L52.8955 29.0791C52.8955 29.0791 50.5918 33.0731 49.7486 36.6549C49.6815 36.9549 49.6441 37.2402 49.6332 37.5176C49.6278 37.5574 49.6278 37.6072 49.6184 37.6618C49.4929 39.3241 48.3006 45.2867 45.2191 45.2726Z" fill="#FFB092"/>
<path d="M52.8985 29.0858C52.8985 29.0858 50.5917 33.0775 49.7485 36.6663C49.6838 36.9616 49.6386 37.2476 49.6347 37.5266C49.6324 37.5664 49.63 37.6155 49.6176 37.6646C49.2014 37.6334 48.7572 37.5508 48.2771 37.416C40.8346 35.4381 40.9624 25.6599 41.1385 23.0312L52.8985 29.0858Z" fill="#263238"/>
<path d="M40.2623 8.73355C38.3241 13.2412 39.3014 26.9884 42.2878 30.359C46.6169 35.2453 54.446 36.5304 58.7845 31.157C62.9905 25.948 61.3999 8.05476 57.995 4.91565C52.9793 0.291934 43.1248 2.07502 40.2623 8.73355Z" fill="#FFB092"/>
<path d="M52.8101 18.6252C52.8 18.5909 52.7423 18.6751 52.747 18.7125C52.8608 19.6274 52.8366 20.6951 52.0347 21.0762C52.0097 21.0879 52.0168 21.1339 52.0472 21.1269C53.047 20.8915 53.0642 19.4739 52.8101 18.6252Z" fill="#263238"/>
<path d="M51.9015 17.7423C50.4146 17.7657 50.5712 20.738 51.949 20.7154C53.3043 20.6936 53.1476 17.722 51.9015 17.7423Z" fill="#263238"/>
<path d="M58.2147 18.3375C58.2201 18.3017 58.2887 18.3773 58.2903 18.4155C58.3098 19.3374 58.4874 20.3903 59.3361 20.6521C59.3626 20.6607 59.3626 20.7067 59.3314 20.7035C58.3074 20.6139 58.0861 19.2143 58.2147 18.3375Z" fill="#263238"/>
<path d="M58.9859 17.3292C60.4603 17.1382 60.7331 20.102 59.367 20.2781C58.0226 20.4519 57.7499 17.4881 58.9859 17.3292Z" fill="#263238"/>
<path d="M50.6576 16.4504C51.0574 16.3273 51.4049 16.1473 51.7876 15.9844C52.2193 15.8005 52.5817 15.6992 52.849 15.2893C52.9924 15.0695 52.9083 14.6931 52.708 14.5341C52.2412 14.1631 51.6567 14.2566 51.1283 14.4569C50.5547 14.6736 50.1689 14.9877 49.8619 15.5168C49.5634 16.0288 50.1307 16.6125 50.6576 16.4504Z" fill="#263238"/>
<path d="M60.0583 15.7676C59.6429 15.7224 59.2673 15.611 58.8612 15.5237C58.4022 15.4255 58.0274 15.3935 57.6876 15.0421C57.5052 14.8535 57.5169 14.4685 57.6837 14.2736C58.071 13.8209 58.6625 13.8022 59.2197 13.8988C59.8237 14.0032 60.2625 14.2378 60.6646 14.6999C61.0527 15.1465 60.6069 15.8268 60.0583 15.7676Z" fill="#263238"/>
<path d="M52.2658 26.8104C52.4536 27.0551 52.6297 27.3808 52.957 27.4557C53.2711 27.5281 53.6639 27.4377 53.9709 27.3668C54.0013 27.3598 54.0263 27.3949 54.0037 27.419C53.7169 27.7354 53.1869 27.8835 52.7747 27.7487C52.3718 27.617 52.2182 27.2312 52.1723 26.8384C52.166 26.7839 52.2385 26.7745 52.2658 26.8104Z" fill="#263238"/>
<path d="M53.2864 24.1059C53.8436 24.8774 54.6245 25.2741 55.4521 25.3902C55.8215 25.4448 56.2073 25.437 56.5821 25.3824C56.6562 25.377 56.9227 25.324 56.9959 25.3053C57.1027 25.2835 57.1565 25.1915 57.1697 25.0894L57.1689 25.0832C57.1666 25.0497 57.0053 23.1177 57.0053 23.1177C57.271 23.2338 58.6232 23.7583 58.5826 23.3889C58.2374 20.3332 57.854 16.9354 56.8658 13.9669C56.8385 13.8672 56.685 13.8991 56.699 13.9996C56.9141 16.9494 57.6467 19.8414 57.9101 22.8013C57.4807 22.6634 56.7777 22.4031 56.4068 22.4304C56.3538 22.4459 56.6702 24.8353 56.6647 24.8556C55.4817 25.0707 54.5652 24.7582 53.3674 24.0194C53.2965 23.9703 53.2264 24.0358 53.2864 24.1059Z" fill="#263238"/>
<path d="M56.2812 25.2378C56.2812 25.2378 55.6235 26.1324 54.7194 26.4574C54.3867 26.5782 54.0274 26.6265 53.6502 26.5275C52.8763 26.3272 52.8545 25.6173 52.994 25.0094C53.107 24.5091 53.3377 24.0781 53.3377 24.0781C53.3377 24.0781 54.4701 25.1325 56.2812 25.2378Z" fill="#263238"/>
<path d="M54.7175 26.4558C54.3847 26.5766 54.0254 26.6249 53.6483 26.5259C52.8744 26.3256 52.8526 25.6157 52.9921 25.0078C53.822 25.0904 54.6442 25.65 54.7175 26.4558Z" fill="#FF9CBD"/>
<path d="M38.9964 21.1483C42.579 21.4265 44.4821 17.166 43.6685 13.7206C43.6685 13.7206 53.1902 15.0556 53.7038 7.40651C53.7038 7.40651 55.9685 10.8831 60.2906 11.028L60.9195 13.7159C61.8992 13.4408 62.9606 10.6695 60.5844 8.47185C60.5844 8.47185 60.4473 4.65628 57.6526 2.34637C54.858 0.0364616 52.0524 1.52107 52.0524 1.52107C52.0524 1.52107 49.8306 -0.361772 46.3158 0.0621792C42.8011 0.486131 41.3321 3.67746 41.3321 3.67746C41.3321 3.67746 36.6031 4.54484 35.7747 7.89281C34.9463 11.2408 36.6631 13.5024 36.6631 13.5024C36.6631 13.5024 35.4684 14.8109 36.049 17.678C36.4223 19.5211 37.921 21.0649 38.9964 21.1483Z" fill="#263238"/>
<path d="M53.4968 6.72656C53.5552 7.35158 53.5755 7.97815 53.5046 8.59538C53.464 9.21416 53.3308 9.81969 53.1453 10.4003C52.7525 11.5545 51.9818 12.5606 50.918 13.1303C49.8846 13.7825 48.6128 13.8768 47.3978 13.9867C46.7806 13.9634 46.1563 13.9844 45.536 13.9259C44.9164 13.8589 44.2969 13.7763 43.668 13.7218C44.2758 13.8745 44.8931 14 45.5103 14.141C46.1322 14.2439 46.7681 14.2626 47.4009 14.3265C48.6595 14.2844 49.989 14.1878 51.1362 13.5145C52.2756 12.8668 53.1282 11.7462 53.4687 10.5008C53.8054 9.25624 53.7929 7.94698 53.4968 6.72656Z" fill="#263238"/>
<path d="M58.3788 11.181C57.3205 10.7867 56.3339 10.291 55.4992 9.60288C55.0721 9.27089 54.7152 8.86408 54.3918 8.43078C54.0543 7.99981 53.8432 7.49169 53.6016 6.97656C53.6647 7.53612 53.8057 8.11048 54.105 8.61158C54.3817 9.12204 54.7666 9.57872 55.2194 9.94344C55.673 10.3066 56.1757 10.6074 56.7142 10.8108C57.2496 11.0166 57.8091 11.1631 58.3788 11.181Z" fill="#263238"/>
<path d="M50.9974 23.2771C49.2111 23.1906 47.6369 21.9039 47.2644 20.0733C46.8241 17.9075 48.2276 15.787 50.3926 15.3467C52.5591 14.9056 54.6781 16.3091 55.1192 18.4749C55.5595 20.6398 54.1567 22.7604 51.991 23.2015C51.6567 23.2685 51.3239 23.2927 50.9974 23.2771ZM51.3597 15.8049C51.0776 15.7909 50.7885 15.8119 50.4994 15.8712C48.6235 16.253 47.4078 18.0899 47.7889 19.9657C48.1715 21.8408 50.0092 23.0589 51.8834 22.6754C53.7593 22.2936 54.975 20.4567 54.5939 18.5801C54.2713 16.9942 52.9075 15.8797 51.3597 15.8049Z" fill="#263238"/>
<path d="M60.1697 22.5985C58.6375 22.5244 57.3244 20.8879 57.181 18.8016C57.1085 17.7487 57.3407 16.7349 57.8348 15.9485C58.3445 15.1341 59.0724 14.6548 59.8844 14.5995C60.6988 14.5418 61.4828 14.919 62.0993 15.6563C62.6955 16.3693 63.0633 17.3412 63.135 18.3932C63.2854 20.598 62.0736 22.4831 60.4323 22.5961C60.3435 22.6016 60.257 22.6031 60.1697 22.5985ZM60.1245 15.1318C60.0567 15.1287 59.9889 15.1294 59.9211 15.1341C59.2851 15.1778 58.7053 15.5682 58.2884 16.233C57.8551 16.925 57.6517 17.8243 57.7156 18.765C57.8473 20.6751 59.0443 22.1558 60.3957 22.0615C61.7423 21.9696 62.7305 20.34 62.6004 18.4307C62.5357 17.49 62.2115 16.6265 61.6878 15.9999C61.2381 15.4622 60.6895 15.1591 60.1245 15.1318Z" fill="#263238"/>
<path d="M55.0163 18.9476L54.6445 18.5619C55.2158 18.0109 56.5718 17.23 57.6192 18.2081L57.2537 18.5993C56.317 17.7218 55.0693 18.8978 55.0163 18.9476Z" fill="#263238"/>
<path d="M38.0699 21.2826L37.5781 21.0698C37.6779 20.8407 38.5827 18.8215 39.7633 18.5464C40.8669 18.2923 47.2791 18.3804 47.5854 18.3882L47.5714 18.9236C45.5038 18.8698 40.7375 18.8683 39.8857 19.0678C39.1056 19.2501 38.3107 20.7285 38.0699 21.2826Z" fill="#263238"/>
<path d="M42.3777 20.9044C42.3777 20.9044 39.7171 16.2627 37.6379 17.173C35.5586 18.0832 37.2848 24.6194 39.5332 25.6949C41.7807 26.7703 42.8172 24.7082 42.8172 24.7082L42.3777 20.9044Z" fill="#FFB092"/>
<path d="M38.1782 19.0319C38.1416 19.0249 38.1291 19.0771 38.1603 19.0927C39.7322 19.9001 40.4546 21.4899 40.9144 23.1124C40.4835 22.4648 39.853 22.0751 38.9926 22.5794C38.9474 22.6059 38.9817 22.676 39.0285 22.6706C39.7096 22.5879 40.1811 22.7469 40.584 23.3228C40.87 23.7304 41.0446 24.2292 41.2347 24.6874C41.2978 24.8402 41.5683 24.7856 41.5277 24.6126C41.5246 24.6002 41.5207 24.5869 41.5176 24.5737C41.7467 22.4983 40.3923 19.4426 38.1782 19.0319Z" fill="#263238"/>
<path d="M49.8061 39.1281C49.8045 39.1009 49.7632 39.0993 49.7616 39.1274C49.633 41.7256 49.1584 47.7303 44.9743 46.9066C43.2886 46.5746 41.8531 45.3884 40.6716 44.2498C39.4582 43.0809 36.8218 39.8132 35.0815 36.2283C35.0472 36.1581 34.9475 36.2104 34.9701 36.2875C35.2545 37.2656 36.0152 39.0183 37.0057 40.6299C37.9588 42.1815 39.0787 43.6505 40.4339 44.9053C41.7034 46.0805 43.2403 47.276 45.0343 47.5448C46.741 47.8004 48.1056 46.9229 48.782 45.4617C49.6705 43.5422 49.9035 41.2066 49.8061 39.1281Z" fill="#263238"/>
<path d="M27.673 40.205C18.7544 48.0224 -4.10155 78.7815 1.51035 85.373C7.16199 92.0113 42.3975 87.3891 52.5419 83.7481C55.5595 82.6649 46.4165 63.6104 43.0739 62.8514C40.291 62.2193 25.2212 67.3644 24.8877 66.4939C24.5105 65.5104 27.493 58.8246 32.2157 46.6547C37.66 32.623 31.6117 36.7526 27.673 40.205Z" fill="#FFB092"/>
<path d="M57.9629 58.4819C65.061 58.2091 66.9251 59.2285 72.7926 55.8174C76.6432 53.5792 79.7247 55.0771 77.2628 59.0009C73.2353 65.4187 64.1523 67.6935 60.7755 67.575L57.9629 58.4819Z" fill="#FFB092"/>
<path d="M38.6934 63.3549C38.6934 63.3549 46.9963 59.7762 54.5315 58.7374C59.7421 58.0189 71.2527 57.7204 81.0028 70.0259C83.315 72.9444 84.5409 78.7434 79.0319 75.3487C75.1189 72.9367 73.3662 70.2254 70.835 69.2364C70.835 69.2364 71.5176 76.7982 68.5032 79.0006C67.1565 79.9848 63.4166 82.5854 60.2159 84.1947C60.2159 84.1947 59.6782 83.5923 59.1046 82.7312C59.1046 82.7312 56.0941 84.5228 50.8695 83.491L38.6934 63.3549Z" fill="#FFB092"/>
<path d="M59.6142 58.8438C61.9194 60.3564 66.7512 63.6436 69.768 67.707C73.1191 72.2208 78.3584 81.819 75.0011 84.259C72.5392 86.0476 70.2169 82.5593 70.2169 82.5593C70.2169 82.5593 71.5464 86.9827 68.9684 88.1128C66.6195 89.1422 64.9845 86.3351 64.9845 86.3351C64.9845 86.3351 65.3297 89.1571 62.8764 89.7127C59.9259 90.3814 59.6867 84.3572 56.1135 82.4518C55.3108 82.0239 59.6142 58.8438 59.6142 58.8438Z" fill="#FFB092"/>
<path d="M64.4082 70.4604C66.3424 72.2381 69.7005 77.4026 70.2655 82.4604C70.278 82.575 70.1985 82.6459 70.1642 82.5438C68.3601 77.108 65.6395 72.4142 64.3653 70.4916C64.3489 70.4659 64.3871 70.4402 64.4082 70.4604Z" fill="#263238"/>
<path d="M59.9503 73.9694C61.4614 75.6746 64.6846 81.1532 65.0813 86.2975C65.0899 86.4121 65.0057 86.4783 64.9761 86.3747C63.3247 80.617 61.0631 75.9933 59.9058 73.9983C59.8902 73.9718 59.9308 73.9476 59.9503 73.9694Z" fill="#263238"/>
<path d="M70.843 69.1906C73.0563 70.0907 74.4279 71.3595 76.2188 72.8893C77.1049 73.646 78.005 74.391 78.9706 75.0457C79.8496 75.6419 81.1433 76.5389 82.2125 75.8507C82.8072 75.4681 82.8796 74.67 82.8196 74.0294C82.7526 73.3093 82.186 71.9362 81.826 71.308C81.8081 71.2761 81.8626 71.2434 81.8813 71.2753C82.2157 71.8356 82.857 73.0911 83.0207 73.7239C83.168 74.2967 83.2623 74.9553 83.048 75.525C82.5866 76.7493 81.0864 76.7656 80.071 76.3144C79.4631 76.0448 78.902 75.6504 78.3627 75.2654C77.8413 74.8929 77.3379 74.4947 76.8454 74.0855C75.8346 73.2439 74.8729 72.3453 73.8722 71.492C72.7726 70.5544 71.9964 70.0728 70.7994 69.2639C70.7604 69.2366 70.7986 69.1727 70.843 69.1906Z" fill="#263238"/>
<path d="M74.8133 77.703C74.3535 76.343 71.7007 70.6049 70.7897 69.2473C70.7663 69.2122 70.8139 69.1756 70.8411 69.2076C72.4504 71.0717 74.8585 75.8349 75.3807 77.3359C75.8966 78.8197 76.4733 80.7073 76.3143 82.2869C76.0758 84.6709 74.4494 84.9631 73.8532 85.0216C73.1417 85.0909 72.452 84.8735 71.8581 84.4862C71.1973 84.0552 70.598 83.2377 70.1927 82.5737C70.1717 82.5387 70.2192 82.4989 70.2442 82.534C70.976 83.5557 72.2548 84.6202 73.5672 84.5797C74.1369 84.5626 74.7315 84.3638 75.1212 83.9321C75.5794 83.4255 75.6838 82.7086 75.6948 82.0508C75.7189 80.5607 75.2856 79.0995 74.8133 77.703Z" fill="#263238"/>
<path d="M38.6953 63.3774L47.3988 87.6931C47.3988 87.6931 3.27201 93.0556 0.302016 85.1704C-2.66798 77.2852 17.0419 49.5655 25.4531 41.7614C35.2009 32.7173 35.9802 36.204 33.1692 44.8054C30.2257 53.8105 24.9925 66.7363 24.9925 66.7363L38.6953 63.3774Z" fill="#7966FF"/>
<path d="M11.2558 71.6002C13.388 70.4032 15.6379 69.4111 17.9198 68.5352C20.1798 67.6678 22.5225 67.0474 24.8831 66.5214C26.2313 66.2213 27.5896 65.9868 28.9488 65.7428C28.9901 65.7351 29.0002 65.799 28.9589 65.8075C26.582 66.2985 24.237 66.9999 21.9341 67.7605C19.6398 68.5188 17.3634 69.316 15.0994 70.1585C13.8182 70.6347 12.5604 71.1716 11.2963 71.6899C11.2356 71.714 11.2013 71.6306 11.2558 71.6002Z" fill="#263238"/>
<path d="M38.5869 63.304C38.3641 63.3391 26.1716 66.0511 25.7663 66.1929C25.8333 66.0199 28.5804 59.9568 28.9896 59.0699C29.0301 58.9819 29.0667 58.8915 29.1065 58.8034C29.3629 58.4153 29.6208 58.0288 29.8624 57.6305C30.171 57.1201 30.4758 56.6065 30.782 56.0945C30.7914 56.0789 30.7688 56.0625 30.7586 56.0781C30.4306 56.5753 30.1009 57.0717 29.7759 57.5705C29.6255 57.8012 29.4829 58.0366 29.3411 58.2727C29.6138 57.6446 29.8788 57.0141 30.1438 56.3797C30.5662 55.3689 30.955 54.3488 31.3416 53.324C31.3541 53.2913 31.305 53.2741 31.2901 53.3061C30.4804 55.0736 29.6154 56.8146 28.8002 58.579C27.9866 60.341 24.881 66.8359 24.9005 66.832C24.92 66.8515 38.3594 63.5495 38.6197 63.47C38.721 63.4388 38.696 63.2868 38.5869 63.304Z" fill="#263238"/>
<path d="M37.8624 78.5224C36.9077 75.8104 35.9741 73.0898 34.9189 70.412C34.3196 68.8908 33.7281 67.3656 33.114 65.8506C33.0906 65.793 32.9901 65.8249 33.008 65.8849C33.8582 68.6453 34.717 71.4111 35.6943 74.1325C36.6653 76.8399 37.6146 79.555 38.6214 82.2499C39.1942 83.7821 39.8107 85.2916 40.4755 86.7887C40.4887 86.8183 40.5401 86.8027 40.5308 86.7708C39.7733 83.9792 38.8233 81.2532 37.8624 78.5224Z" fill="#263238"/>
<path d="M47.9184 88.1178C47.5576 87.3603 47.1157 86.2755 46.7237 85.5336C46.6201 85.3372 46.4743 85.3613 46.553 85.564C46.8164 86.2451 47.0159 87.0026 47.2747 87.7009C46.6567 87.7609 46.0379 87.8068 45.4199 87.8731C44.7053 87.9495 43.9914 88.0297 43.2768 88.1038C41.8779 88.2487 40.4767 88.3797 39.0747 88.4958C36.2356 88.7311 33.3918 88.9065 30.545 89.021C24.8396 89.2509 19.11 89.2735 13.41 88.9112C11.8155 88.8098 10.2218 88.6774 8.63433 88.4958C7.02191 88.3119 5.2809 88.1022 3.96229 87.7998C3.92021 87.7905 3.90462 87.8614 3.9467 87.8747C5.30272 88.2978 6.5738 88.6033 7.97658 88.8137C9.40819 89.0288 10.8468 89.2042 12.2886 89.3328C15.1604 89.5876 18.0454 89.6897 20.9274 89.7139C26.6429 89.7622 32.3631 89.5619 38.0631 89.1348C39.6599 89.0156 41.256 88.8769 42.8497 88.7194C43.654 88.6399 44.4582 88.5605 45.2609 88.4662C46.066 88.3726 47.98 88.2472 47.9184 88.1178Z" fill="#263238"/>
<path d="M104.768 87.5703H49.2129V90.0587H104.768V87.5703Z" fill="#C7C7C7"/>
<path d="M104.769 87.5703V90.0587H67.0059L68.909 87.5703H104.769Z" fill="#A6A6A6"/>
<path d="M74.6426 90.0628H123.266L130.302 55.7578H81.6783L74.6426 90.0628Z" fill="#A6A6A6"/>
<path d="M76.9141 90.0628H125.538L132.573 55.7578H83.9498L76.9141 90.0628Z" fill="#C7C7C7"/>
<path d="M109.128 71.6286C109.179 73.2496 108.094 74.7981 106.705 75.088C105.317 75.3779 104.15 74.2993 104.099 72.6784C104.049 71.0574 105.134 69.5089 106.522 69.2189C107.911 68.929 109.078 70.0084 109.128 71.6286Z" fill="white"/>
<path d="M217.996 161.258C217.271 163.144 182.38 205.45 180.03 206.223C179.14 206.521 172.683 201.799 165.041 195.871C163.391 194.592 161.695 193.26 159.98 191.897C148.835 183.068 137.215 173.438 137.215 173.438L160.473 145.07L182.598 164.31L187.458 168.529C187.458 168.529 208.061 158.306 210.73 157.736C213.39 157.174 218.719 159.372 217.996 161.258Z" fill="#FFB092"/>
<path d="M217.996 161.26C217.272 163.146 182.381 205.452 180.031 206.225C178.946 206.582 169.638 199.538 159.98 191.899L182.598 164.312L187.458 168.531C187.458 168.531 208.062 158.308 210.73 157.738C213.391 157.176 218.72 159.374 217.996 161.26Z" fill="#EBEBEB"/>
<path d="M217.995 161.259C217.27 163.145 182.379 205.451 180.03 206.224C179.14 206.522 172.682 201.8 165.041 195.873L187.457 168.532C187.457 168.532 208.061 158.308 210.73 157.738C213.39 157.175 218.719 159.373 217.995 161.259Z" fill="#7966FF"/>
<path d="M181.454 159.975L155.56 190.668L77.4515 135.049L69.7596 129.569C69.7596 129.569 67.5455 131.02 64.2162 132.809C59.5925 135.292 52.8225 138.425 46.8584 139.229C36.8527 140.586 21.7938 140.244 13.5135 128.885C6.53937 119.32 8.92488 106.982 8.92488 106.982L19.9476 102.407C19.9476 102.407 46.1617 81.1009 62.9794 80.6535C70.1227 80.4564 80.4534 85.9942 90.0126 91.7643C99.564 97.5267 181.454 159.975 181.454 159.975Z" fill="#263238"/>
<path d="M69.76 129.567C69.76 129.567 67.546 131.018 64.2167 132.807C58.4567 125.738 46.2354 112.878 45.8652 112.422L69.76 129.567Z" fill="#37474F"/>
<path d="M29.5471 95.2867C27.983 96.345 26.4688 97.4712 24.925 98.5583C23.4069 99.6275 21.8396 100.631 20.3948 101.8C18.925 102.99 17.53 104.263 16.1428 105.548C15.4734 106.168 14.8102 106.793 14.1625 107.435C13.5212 108.071 12.8042 108.71 12.2696 109.44C12.2197 109.508 12.3171 109.59 12.3826 109.55C13.1292 109.084 13.8025 108.44 14.4821 107.883C15.2162 107.281 15.941 106.67 16.672 106.064C18.081 104.895 19.5173 103.76 20.9232 102.587C22.3197 101.423 23.6165 100.146 24.9998 98.9667C26.4813 97.7042 28.0407 96.5305 29.5775 95.3366C29.6064 95.314 29.5791 95.2649 29.5471 95.2867Z" fill="#37474F"/>
<path d="M173.458 157.026C171.89 158.677 170.436 160.456 168.971 162.202C167.502 163.954 166.041 165.713 164.59 167.481C161.687 171.018 158.761 174.538 155.907 178.115C154.339 180.079 152.791 182.06 151.331 184.106C151.266 184.197 151.411 184.303 151.486 184.223C154.603 180.878 157.458 177.304 160.355 173.77C163.257 170.23 166.149 166.68 168.998 163.096C170.557 161.135 172.162 159.184 173.598 157.132C173.656 157.047 173.526 156.954 173.458 157.026Z" fill="#37474F"/>
<path d="M114.755 161.523C110.79 158.32 101.765 152.05 97.6507 149.04C93.5577 146.046 89.4671 143.044 85.311 140.138C84.1178 139.304 82.9138 138.487 81.7113 137.665C80.5111 136.846 79.2603 136.088 78.0851 135.239C78.0165 135.19 77.9541 135.303 78.0204 135.352C79.0998 136.146 80.1168 137.034 81.1774 137.857C82.1898 138.643 83.1935 139.438 84.2144 140.213C86.2064 141.726 88.2186 143.21 90.2277 144.7C94.302 147.722 98.4067 150.707 102.555 153.626C104.91 155.284 112.165 160.189 114.574 161.767C114.716 161.86 114.89 161.633 114.755 161.523Z" fill="#37474F"/>
<path d="M140.406 128.593C136.744 125.482 128.383 119.487 124.541 116.606C120.655 113.691 116.789 110.75 112.887 107.857C109.015 104.986 105.144 102.115 101.272 99.2444C97.5198 96.4614 93.7853 93.6341 89.8162 91.162C87.6443 89.8091 85.4146 88.5529 83.1211 87.4174C80.893 86.3147 78.5776 85.1924 76.1898 84.4871C76.1181 84.4661 76.0775 84.5705 76.1407 84.6072C78.0991 85.7317 80.1573 86.6833 82.1391 87.7697C84.0983 88.8436 86.0272 89.972 87.9233 91.1535C91.8635 93.6083 95.5785 96.3874 99.3115 99.1415C107.063 104.861 114.799 110.604 122.608 116.245C126.977 119.402 135.684 125.921 140.227 128.83C140.369 128.922 140.537 128.704 140.406 128.593Z" fill="#37474F"/>
</svg>
