<?xml version="1.0" standalone="no"?>
<!DOCTYPE svg PUBLIC "-//W3C//DTD SVG 20010904//EN"
 "http://www.w3.org/TR/2001/REC-SVG-20010904/DTD/svg10.dtd">
<svg version="1.0" xmlns="http://www.w3.org/2000/svg"
 width="245.000000pt" height="241.000000pt" viewBox="0 0 245.000000 241.000000"
 preserveAspectRatio="xMidYMid meet">
<metadata>
Created by potrace 1.16, written by Peter Selinger 2001-2019
</metadata>
<g transform="translate(0.000000,241.000000) scale(0.100000,-0.100000)"
fill="#000000" stroke="none">
<path d="M680 2066 c-58 -42 -59 -44 -59 -100 1 -40 4 -53 14 -50 7 3 19 -2
27 -10 9 -8 24 -12 37 -9 14 4 27 -2 41 -18 l20 -24 -13 27 c-6 16 -20 28 -29
28 -11 0 -18 8 -18 20 0 15 7 20 25 20 14 0 37 11 51 25 l25 25 39 -19 c46
-22 47 -19 21 42 -20 47 -28 52 -101 62 -38 5 -50 2 -80 -19z"/>
<path d="M566 1708 c-123 -81 -327 -400 -297 -465 14 -30 94 -53 190 -54 l76
-1 -84 -17 c-48 -9 -86 -22 -89 -29 -3 -9 3 -11 20 -8 53 12 191 36 207 36 9
0 -13 -19 -47 -42 -45 -29 -82 -45 -125 -53 l-62 -11 -3 -74 c-4 -97 11 -150
59 -204 57 -65 123 -90 234 -90 99 0 160 15 257 67 l58 30 37 -26 c21 -15 51
-37 66 -49 l28 -23 -31 -37 -31 -37 146 -116 c80 -63 149 -115 154 -115 6 0
25 18 42 40 18 22 36 40 41 40 4 0 25 -15 45 -33 21 -19 109 -84 196 -146 132
-94 161 -111 171 -100 7 8 62 73 122 144 59 72 115 135 124 142 8 6 13 13 10
15 -62 50 -225 172 -242 181 -34 18 -168 120 -168 128 0 4 20 40 45 80 59 97
73 153 57 216 -24 89 -113 171 -195 180 l-45 5 -7 -46 -7 -46 -189 0 -190 0
-62 32 c-34 18 -64 33 -67 33 -3 1 -25 7 -50 15 -60 17 -108 14 -175 -11 -31
-11 -59 -19 -62 -16 -3 3 -22 52 -43 109 l-37 103 29 13 c53 23 141 42 198 42
59 0 100 8 100 19 0 7 -167 146 -197 164 -9 5 -15 2 -20 -10 -3 -10 -13 -26
-21 -35 -13 -15 -17 -16 -42 -3 -16 8 -36 33 -47 55 -10 21 -21 40 -24 40 -3
0 -27 -14 -53 -32z"/>
<path d="M964 516 c-5 -7 -27 -39 -48 -70 l-39 -57 29 -30 c57 -60 408 -349
424 -349 4 0 13 14 19 32 11 30 6 42 -58 173 -82 166 -104 197 -136 193 -15
-2 -44 14 -86 47 -97 77 -94 75 -105 61z"/>
<path d="M2350 503 c-8 -3 -60 -27 -115 -53 l-100 -48 -100 -123 c-55 -67
-104 -129 -108 -136 -5 -9 13 -28 60 -62 l68 -50 29 27 c37 35 336 393 344
411 10 27 -39 48 -78 34z"/>
</g>
</svg>
