<?xml version="1.0" standalone="no"?>
<!DOCTYPE svg PUBLIC "-//W3C//DTD SVG 20010904//EN"
 "http://www.w3.org/TR/2001/REC-SVG-20010904/DTD/svg10.dtd">
<svg version="1.0" xmlns="http://www.w3.org/2000/svg"
 width="92.000000pt" height="74.000000pt" viewBox="0 0 92.000000 74.000000"
 preserveAspectRatio="xMidYMid meet">
<metadata>
Created by potrace 1.16, written by Peter Selinger 2001-2019
</metadata>
<g transform="translate(0.000000,74.000000) scale(0.100000,-0.100000)"
fill="#000000" stroke="none">
<path d="M165 721 c-22 -10 -51 -30 -64 -45 -18 -19 -34 -26 -63 -26 l-38 0 0
-290 0 -290 49 0 c33 0 53 -5 62 -17 8 -9 32 -24 54 -34 35 -16 68 -19 255
-19 187 0 220 3 255 19 22 10 46 25 54 34 11 14 32 17 102 17 l89 0 0 290 0
290 -78 0 c-72 0 -81 2 -103 26 -52 57 -84 64 -319 64 -188 0 -220 -3 -255
-19z m409 -217 c19 -7 21 -24 3 -24 -21 0 -132 -58 -151 -79 -16 -18 -16 -18
9 -14 21 5 25 1 26 -18 2 -23 2 -23 6 -2 4 19 11 21 59 21 30 0 54 -5 54 -11
0 -6 5 -6 13 0 6 5 34 10 62 11 47 2 48 1 27 -14 -12 -8 -22 -22 -22 -30 0 -8
-4 -14 -10 -14 -5 0 -10 7 -10 15 0 9 -6 12 -16 8 -11 -4 -12 -8 -4 -13 9 -6
9 -9 -1 -15 -7 -5 -19 0 -29 13 -11 13 -21 17 -30 12 -10 -6 -8 -9 6 -12 17
-3 17 -4 2 -10 -10 -4 -24 -1 -33 8 -8 9 -15 11 -15 5 0 -6 -5 -11 -11 -11 -6
0 -9 9 -6 20 3 11 2 20 -3 20 -4 0 -10 -9 -13 -21 -3 -12 -11 -19 -19 -16 -7
2 -21 0 -30 -4 -12 -7 -21 -3 -32 12 -14 21 -15 20 -45 -21 -16 -23 -32 -47
-34 -53 -2 -7 -8 -9 -13 -4 -24 23 84 167 165 219 45 28 66 33 95 22z"/>
</g>
</svg>
