<svg width="20" height="20" viewBox="0 0 20 20" fill="none" xmlns="http://www.w3.org/2000/svg">
<g clip-path="url(#clip0_1194_1517)">
<path d="M9.22858 13.5653C9.38132 13.4126 9.38132 13.1654 9.22858 13.0126C9.0757 12.8604 8.82802 12.8604 8.67498 13.0126C8.5224 13.1654 8.5224 13.4126 8.67498 13.5653C8.82802 13.7176 9.0757 13.7176 9.22858 13.5653Z" fill="black"/>
<path d="M7.375 4.29566C7.375 6.66428 9.3058 8.59146 11.6791 8.59146C14.0523 8.59146 15.9831 6.66428 15.9831 4.29566C15.9831 1.92703 14.0523 0 11.6791 0C9.3058 0 7.375 1.92703 7.375 4.29566ZM15.2006 4.29566C15.2006 6.23368 13.6209 7.81037 11.6791 7.81037C9.73725 7.81037 8.15747 6.23368 8.15747 4.29566C8.15747 2.35779 9.73725 0.781098 11.6791 0.781098C13.6209 0.781098 15.2006 2.35779 15.2006 4.29566Z" fill="black"/>
<path d="M4.52643 19.8876C4.6781 20.0402 4.92501 20.0419 5.07866 19.8909L6.97568 18.0256C7.29796 17.704 7.39596 17.2277 7.25423 16.8138L7.66229 16.421C7.88199 16.2092 8.17125 16.0925 8.47702 16.0925H13.6787C14.6015 16.0925 15.4737 15.7388 16.135 15.0965C16.1622 15.0701 15.9284 15.345 19.6836 10.8656C20.2406 10.2079 20.1572 9.22038 19.4977 8.66389C18.8423 8.11259 17.8604 8.19178 17.3019 8.83815L14.993 11.2066C14.7015 10.8485 14.2569 10.6253 13.7765 10.6253H9.4133C8.79243 10.366 8.13364 10.2348 7.4539 10.2348C5.56973 10.2348 3.92452 11.1033 3.0416 12.7317C2.66963 12.6614 2.27732 12.7737 1.99509 13.0554L0.1337 14.9186C-0.0182697 15.0708 -0.0185754 15.3169 0.133088 15.4695L4.52643 19.8876ZM7.45375 11.0157C8.05307 11.0157 8.63251 11.1361 9.17632 11.3735C9.22586 11.3952 9.27922 11.4064 9.33319 11.4064H13.7765C14.2008 11.4064 14.5592 11.7517 14.5592 12.1873C14.5592 12.6181 14.2081 12.9684 13.7765 12.9684H10.5841C10.3681 12.9684 10.1929 13.1433 10.1929 13.3589C10.1929 13.5746 10.3681 13.7493 10.5841 13.7493H13.7765C14.6396 13.7493 15.3416 13.0487 15.3416 12.1873C15.3416 12.1186 15.3367 12.0506 15.3279 11.9831C17.5614 9.69172 17.8763 9.36976 17.8898 9.35374C18.1686 9.02522 18.6637 8.98356 18.993 9.26066C19.3226 9.53883 19.3644 10.0326 19.0847 10.363L15.5752 14.5503C15.0628 15.0413 14.3899 15.3115 13.6787 15.3115H8.47702C7.9673 15.3115 7.48479 15.5061 7.11878 15.859L6.78625 16.1793L3.72088 13.1201C4.4373 11.7787 5.78163 11.0157 7.45375 11.0157ZM2.54885 13.6073C2.67788 13.4785 2.87602 13.4553 3.03334 13.5524C3.10107 13.5935 2.9066 13.4169 6.42238 16.9209C6.57878 17.077 6.57037 17.3257 6.42452 17.4713L4.80729 19.0614L0.96265 15.195L2.54885 13.6073Z" fill="black"/>
<path d="M11.21 1.95313V2.41074C10.7545 2.57187 10.4274 3.00598 10.4274 3.51517C10.4274 4.16107 10.9539 4.68674 11.6012 4.68674C11.8169 4.68674 11.9925 4.86191 11.9925 5.07721C11.9925 5.29251 11.8169 5.46768 11.6012 5.46768C11.4341 5.46768 11.2536 5.36286 11.0932 5.17227C10.954 5.00717 10.7073 4.98596 10.5419 5.12467C10.3764 5.26352 10.355 5.5098 10.4942 5.6749C10.7033 5.92316 10.9493 6.09619 11.21 6.18347V6.63925C11.21 6.85501 11.3852 7.02973 11.6012 7.02973C11.8172 7.02973 11.9925 6.85501 11.9925 6.63925V6.18164C12.4479 6.02036 12.7751 5.58624 12.7751 5.07721C12.7751 4.43115 12.2485 3.90564 11.6012 3.90564C11.3855 3.90564 11.21 3.73047 11.21 3.51517C11.21 3.29987 11.3855 3.12454 11.6012 3.12454C11.7399 3.12454 11.8862 3.19519 12.0244 3.32871C12.1797 3.4787 12.4274 3.47458 12.5777 3.3197C12.728 3.16467 12.7239 2.91748 12.5687 2.76749C12.3701 2.57568 12.1713 2.46719 11.9925 2.40799V1.95313C11.9925 1.73737 11.8172 1.5625 11.6012 1.5625C11.3852 1.5625 11.21 1.73737 11.21 1.95313Z" fill="black"/>
</g>
<defs>
<clipPath id="clip0_1194_1517">
<rect width="20" height="20" fill="white"/>
</clipPath>
</defs>
</svg>
