<?xml version="1.0" standalone="no"?>
<!DOCTYPE svg PUBLIC "-//W3C//DTD SVG 20010904//EN"
 "http://www.w3.org/TR/2001/REC-SVG-20010904/DTD/svg10.dtd">
<svg version="1.0" xmlns="http://www.w3.org/2000/svg"
 width="22.000000pt" height="22.000000pt" viewBox="0 0 22.000000 22.000000"
 preserveAspectRatio="xMidYMid meet">
<metadata>
Created by potrace 1.16, written by Peter Selinger 2001-2019
</metadata>
<g transform="translate(0.000000,22.000000) scale(0.100000,-0.100000)"
fill="#000000" stroke="none">
<path d="M11 206 c-8 -9 -11 -43 -9 -92 l3 -78 33 -10 c18 -5 34 -7 37 -5 2 3
0 20 -4 40 -6 26 -4 38 7 49 14 13 13 15 -9 21 -20 6 -19 7 12 8 21 1 43 9 52
19 21 23 21 27 1 46 -20 20 -107 22 -123 2z"/>
</g>
</svg>
