<svg width="32" height="32" viewBox="0 0 32 32" fill="none" xmlns="http://www.w3.org/2000/svg">
<path fill-rule="evenodd" clip-rule="evenodd" d="M24.204 25.9465C25.1482 25.9465 25.9135 25.1791 25.9135 24.2323V21.4895C25.9135 20.9213 26.3727 20.4609 26.9391 20.4609C27.5056 20.4609 27.9648 20.9213 27.9648 21.4895V24.2323C27.9648 26.3152 26.2811 28.0037 24.204 28.0037H21.4691C20.9026 28.0037 20.4434 27.5432 20.4434 26.9752C20.4434 26.4071 20.9026 25.9465 21.4691 25.9465H24.204Z" fill="white"/>
<path fill-rule="evenodd" clip-rule="evenodd" d="M24.204 6.05715C25.1482 6.05715 25.9135 6.82465 25.9135 7.77143V10.5143C25.9135 11.0823 26.3727 11.5429 26.9391 11.5429C27.5056 11.5429 27.9648 11.0823 27.9648 10.5143V7.77143C27.9648 5.68852 26.2811 4 24.204 4H21.4691C20.9026 4 20.4434 4.46051 20.4434 5.02857C20.4434 5.59664 20.9026 6.05715 21.4691 6.05715H24.204Z" fill="white"/>
<path fill-rule="evenodd" clip-rule="evenodd" d="M7.79388 25.9465C6.84982 25.9465 6.08448 25.1791 6.08448 24.2323V21.4895C6.08448 20.9213 5.6253 20.4609 5.05884 20.4609C4.4924 20.4609 4.0332 20.9213 4.0332 21.4895V24.2323C4.0332 26.3152 5.71692 28.0037 7.79388 28.0037H10.5289C11.0954 28.0037 11.5546 27.5432 11.5546 26.9752C11.5546 26.4071 11.0954 25.9465 10.5289 25.9465H7.79388Z" fill="white"/>
<path fill-rule="evenodd" clip-rule="evenodd" d="M7.79388 6.05715C6.84982 6.05715 6.08448 6.82465 6.08448 7.77143V10.5143C6.08448 11.0823 5.6253 11.5429 5.05884 11.5429C4.4924 11.5429 4.0332 11.0823 4.0332 10.5143V7.77143C4.0332 5.68853 5.71692 4 7.79388 4H10.5289C11.0954 4 11.5546 4.46051 11.5546 5.02857C11.5546 5.59664 11.0954 6.05715 10.5289 6.05715H7.79388Z" fill="white"/>
<path fill-rule="evenodd" clip-rule="evenodd" d="M29.3327 15.9973C29.3327 16.5653 28.8735 17.0258 28.3071 17.0258H3.69166C3.12522 17.0258 2.66602 16.5653 2.66602 15.9973C2.66602 15.4293 3.12522 14.9688 3.69166 14.9688H28.3071C28.8735 14.9688 29.3327 15.4293 29.3327 15.9973Z" fill="white"/>
</svg>
