<svg width="14" height="14" viewBox="0 0 14 14" fill="none" xmlns="http://www.w3.org/2000/svg">
<g clip-path="url(#clip0_1374_2860)">
<path d="M12.0234 13.1771L6.51701 10.2616C6.37351 10.1854 6.19851 10.1959 6.06288 10.2878L1.85238 13.2033C1.69488 13.3127 1.62663 13.5113 1.68438 13.6942C1.74038 13.8753 1.91013 14.0004 2.10088 14.0004H11.8178C12.0181 14.0004 12.194 13.8639 12.2421 13.6679C12.2911 13.4728 12.2001 13.2707 12.0234 13.1771Z" fill="#7966FF"/>
<path d="M13.8631 12.3446L12.5681 6.51445C12.5366 6.37182 12.4359 6.25545 12.3003 6.20207C12.1638 6.1487 12.0107 6.16707 11.8917 6.24932L7.68031 9.16482C7.55431 9.25232 7.48343 9.39845 7.49306 9.54982C7.50181 9.70295 7.59018 9.83945 7.72493 9.91032L13.2304 12.8258C13.2952 12.8599 13.3652 12.8774 13.4352 12.8774C13.5288 12.8774 13.6224 12.8477 13.7003 12.7873C13.8359 12.6841 13.8998 12.5117 13.8631 12.3446Z" fill="#7966FF"/>
<path d="M10.8163 5.55712C10.7585 5.37425 10.5897 5.25 10.398 5.25H6.40454C5.67829 6.56512 4.60379 7.8225 4.16191 8.31425C3.91341 8.59075 3.55729 8.75 3.18541 8.75C2.81354 8.75 2.45741 8.59075 2.20891 8.31425C2.03829 8.12437 1.77404 7.82075 1.47129 7.4445L0.412538 12.2098C0.374038 12.3856 0.446663 12.5667 0.595413 12.6674C0.668913 12.7172 0.754663 12.7417 0.839538 12.7417C0.927038 12.7417 1.01366 12.7164 1.08891 12.6639L10.6465 6.04625C10.8049 5.93862 10.8723 5.74 10.8163 5.55712Z" fill="#7966FF"/>
<path d="M3.1875 0C1.49875 0 0.125 1.37375 0.125 3.0625C0.125 4.634 2.582 7.41737 2.862 7.72975C2.94513 7.82162 3.06325 7.875 3.1875 7.875C3.31175 7.875 3.42987 7.82162 3.513 7.72975C3.793 7.41737 6.25 4.634 6.25 3.0625C6.25 1.37375 4.87625 0 3.1875 0ZM3.1875 4.375C2.463 4.375 1.875 3.787 1.875 3.0625C1.875 2.338 2.463 1.75 3.1875 1.75C3.912 1.75 4.5 2.338 4.5 3.0625C4.5 3.787 3.912 4.375 3.1875 4.375Z" fill="#7966FF"/>
</g>
<defs>
<clipPath id="clip0_1374_2860">
<rect width="14" height="14" fill="white"/>
</clipPath>
</defs>
</svg>
