<svg width="16" height="16" viewBox="0 0 16 16" fill="none" xmlns="http://www.w3.org/2000/svg">
<g clip-path="url(#clip0_1097_1033)">
<path d="M10.0007 4.33594C9.63265 4.33594 9.33398 4.03727 9.33398 3.66927V2.66927H6.66732V3.66927C6.66732 4.03727 6.36865 4.33594 6.00065 4.33594C5.63265 4.33594 5.33398 4.03727 5.33398 3.66927V2.66927C5.33398 1.93394 5.93198 1.33594 6.66732 1.33594H9.33398C10.0693 1.33594 10.6673 1.93394 10.6673 2.66927V3.66927C10.6673 4.03727 10.3687 4.33594 10.0007 4.33594Z" fill="black" fill-opacity="0.14"/>
<path d="M8.47333 10.2567C8.35333 10.3033 8.18 10.3367 8 10.3367C7.82 10.3367 7.64667 10.3033 7.48667 10.2433L0 7.75V12.8367C0 13.85 0.82 14.67 1.83333 14.67H14.1667C15.18 14.67 16 13.85 16 12.8367V7.75L8.47333 10.2567Z" fill="black" fill-opacity="0.14"/>
<path d="M16 5.16927V6.69594L8.16 9.30927C8.10667 9.32927 8.05333 9.33594 8 9.33594C7.94667 9.33594 7.89333 9.32927 7.84 9.30927L0 6.69594V5.16927C0 4.15594 0.82 3.33594 1.83333 3.33594H14.1667C15.18 3.33594 16 4.15594 16 5.16927Z" fill="black" fill-opacity="0.14"/>
</g>
<defs>
<clipPath id="clip0_1097_1033">
<rect width="16" height="16" fill="white"/>
</clipPath>
</defs>
</svg>
