<svg width="15" height="15" viewBox="0 0 15 15" fill="none" xmlns="http://www.w3.org/2000/svg">
<path d="M3 11.25V10.75H2.5H1.875C1.84185 10.75 1.81005 10.7368 1.78661 10.7134C1.76317 10.6899 1.75 10.6582 1.75 10.625C1.75 10.5918 1.76317 10.5601 1.78661 10.5366C1.81005 10.5132 1.84185 10.5 1.875 10.5H2.5H3V10V5V4.5H2.5H1.875C1.84185 4.5 1.81005 4.48683 1.78661 4.46339C1.76317 4.43995 1.75 4.40815 1.75 4.375C1.75 4.34185 1.76317 4.31005 1.78661 4.28661C1.81005 4.26317 1.84185 4.25 1.875 4.25H2.5H3V3.75V3.125C3 2.76033 3.14487 2.41059 3.40273 2.15273C3.66059 1.89487 4.01033 1.75 4.375 1.75H11.875C12.2397 1.75 12.5894 1.89487 12.8473 2.15273C13.1051 2.41059 13.25 2.76033 13.25 3.125V11.875C13.25 12.2397 13.1051 12.5894 12.8473 12.8473C12.5894 13.1051 12.2397 13.25 11.875 13.25H4.375C4.01033 13.25 3.66059 13.1051 3.40273 12.8473C3.14487 12.5894 3 12.2397 3 11.875V11.25ZM10.125 5C10.125 5.03315 10.1118 5.06495 10.0884 5.08839C10.0649 5.11183 10.0332 5.125 10 5.125H6.25C6.21685 5.125 6.18505 5.11183 6.16161 5.08839C6.13817 5.06495 6.125 5.03315 6.125 5C6.125 4.96685 6.13817 4.93505 6.16161 4.91161C6.18505 4.88817 6.21685 4.875 6.25 4.875H10C10.0332 4.875 10.0649 4.88817 10.0884 4.91161C10.1118 4.93505 10.125 4.96685 10.125 5ZM6.25 7.375H10C10.0332 7.375 10.0649 7.38817 10.0884 7.41161C10.1118 7.43505 10.125 7.46685 10.125 7.5C10.125 7.53315 10.1118 7.56495 10.0884 7.58839C10.0649 7.61183 10.0332 7.625 10 7.625H6.25C6.21685 7.625 6.18505 7.61183 6.16161 7.58839C6.13817 7.56495 6.125 7.53315 6.125 7.5C6.125 7.46685 6.13817 7.43505 6.16161 7.41161C6.18505 7.38817 6.21685 7.375 6.25 7.375ZM6.25 9.875H8.125C8.15815 9.875 8.18995 9.88817 8.21339 9.91161C8.23683 9.93505 8.25 9.96685 8.25 10C8.25 10.0332 8.23683 10.0649 8.21339 10.0884C8.18995 10.1118 8.15815 10.125 8.125 10.125H6.25C6.21685 10.125 6.18505 10.1118 6.16161 10.0884C6.13817 10.0649 6.125 10.0332 6.125 10C6.125 9.96685 6.13817 9.93505 6.16161 9.91161C6.18505 9.88817 6.21685 9.875 6.25 9.875ZM13 3.125C13 2.82663 12.8815 2.54048 12.6705 2.3295C12.4595 2.11853 12.1734 2 11.875 2H4.375C4.07663 2 3.79048 2.11853 3.5795 2.3295C3.36853 2.54048 3.25 2.82663 3.25 3.125V4.375V10.625V11.875C3.25 12.1734 3.36853 12.4595 3.5795 12.6705C3.79048 12.8815 4.07663 13 4.375 13H11.875C12.1734 13 12.4595 12.8815 12.6705 12.6705C12.8815 12.4595 13 12.1734 13 11.875V3.125Z" fill="#222221" stroke="#6A6A6A"/>
</svg>
