<svg width="15" height="15" viewBox="0 0 15 15" fill="none" xmlns="http://www.w3.org/2000/svg">
<path d="M1.27148 4.38281C1.66844 4.38281 1.99023 4.70461 1.99023 5.10156V13.0078H9.89648C10.2934 13.0078 10.6152 13.3296 10.6152 13.7265C10.6152 14.1235 10.2934 14.4453 9.89648 14.4453H1.27148C0.874533 14.4453 0.552734 14.1235 0.552734 13.7265V5.10156C0.552734 4.70461 0.874533 4.38281 1.27148 4.38281Z" fill="#292929"/>
<path d="M13.9773 1.02301C14.258 1.30371 14.258 1.75879 13.9773 2.03948L1.77971 14.2371C1.49903 14.5177 1.04394 14.5177 0.763249 14.2371C0.482563 13.9565 0.482563 13.5013 0.763249 13.2206L12.9609 1.02301C13.2416 0.742328 13.6966 0.742328 13.9773 1.02301Z" fill="#292929"/>
</svg>
