<svg width="17" height="17" viewBox="0 0 17 17" fill="none" xmlns="http://www.w3.org/2000/svg">
<g clip-path="url(#clip0_1330_2998)">
<path d="M16.6598 8.50375C16.6598 13.0031 12.9992 16.6637 8.49984 16.6637C4.00045 16.6637 0.339844 13.0031 0.339844 8.50375C0.339844 8.22206 0.567984 7.99375 0.849844 7.99375C1.1317 7.99375 1.35984 8.22206 1.35984 8.50375C1.35984 12.4408 4.56281 15.6438 8.49984 15.6438C12.4369 15.6438 15.6398 12.4408 15.6398 8.50375C15.6398 4.56672 12.4369 1.36375 8.49984 1.36375C6.60247 1.36375 4.84042 2.10138 3.5151 3.40375H5.43984C5.7217 3.40375 5.94984 3.63206 5.94984 3.91375C5.94984 4.19544 5.7217 4.42375 5.43984 4.42375H2.37984C2.09798 4.42375 1.86984 4.19544 1.86984 3.91375V0.85375C1.86984 0.57206 2.09798 0.34375 2.37984 0.34375C2.6617 0.34375 2.88984 0.57206 2.88984 0.85375V2.59336C4.39451 1.1572 6.37161 0.34375 8.49984 0.34375C12.9992 0.34375 16.6598 4.00436 16.6598 8.50375ZM9.00984 7.99375H7.98984C7.70849 7.99375 7.47984 7.76493 7.47984 7.48375C7.47984 7.20257 7.70849 6.97375 7.98984 6.97375H10.0298C10.3117 6.97375 10.5398 6.74544 10.5398 6.46375C10.5398 6.18206 10.3117 5.95375 10.0298 5.95375H9.00984V5.44375C9.00984 5.16206 8.7817 4.93375 8.49984 4.93375C8.21798 4.93375 7.98984 5.16206 7.98984 5.44375V5.95375C7.14613 5.95375 6.45984 6.64004 6.45984 7.48375C6.45984 8.32746 7.14613 9.01375 7.98984 9.01375H9.00984C9.29119 9.01375 9.51984 9.24257 9.51984 9.52375C9.51984 9.80493 9.29119 10.0338 9.00984 10.0338H6.96984C6.68798 10.0338 6.45984 10.2621 6.45984 10.5437C6.45984 10.8254 6.68798 11.0538 6.96984 11.0538H7.98984V11.5638C7.98984 11.8454 8.21798 12.0738 8.49984 12.0738C8.7817 12.0738 9.00984 11.8454 9.00984 11.5638V11.0538C9.85355 11.0538 10.5398 10.3675 10.5398 9.52375C10.5398 8.68004 9.85355 7.99375 9.00984 7.99375Z" fill="#292929"/>
</g>
<defs>
<clipPath id="clip0_1330_2998">
<rect width="17" height="17" fill="white"/>
</clipPath>
</defs>
</svg>
