<svg width="22" height="22" viewBox="0 0 22 22" fill="none" xmlns="http://www.w3.org/2000/svg">
<g clip-path="url(#clip0_1429_2552)">
<path d="M21.3125 13.7474C20.933 13.7474 20.625 13.4394 20.625 13.0599C20.625 10.4062 18.4663 8.24742 15.8125 8.24742H9.16667V11.2266C9.16667 11.8316 8.43883 12.1378 8.00433 11.7234L2.96267 6.91092C2.827 6.78167 2.75 6.60201 2.75 6.41409C2.75 6.22617 2.827 6.04651 2.96267 5.91726L8.00433 1.10476C8.44067 0.688588 9.16667 0.998422 9.16667 1.60159V4.58075H14.8958C18.8127 4.58075 22 7.76801 22 11.6849V13.0599C22 13.4394 21.692 13.7474 21.3125 13.7474Z" fill="#C9C2FF"/>
<path d="M12.8333 20.3958V17.4167H7.10417C3.18725 17.4167 0 14.2294 0 10.3125V8.9375C0 8.558 0.308 8.25 0.6875 8.25C1.067 8.25 1.375 8.558 1.375 8.9375C1.375 11.5912 3.53375 13.75 6.1875 13.75H12.8333V10.7708C12.8333 10.1686 13.5584 9.856 13.9957 10.274L19.0373 15.0865C19.173 15.2158 19.25 15.3954 19.25 15.5833C19.25 15.7713 19.173 15.9509 19.0373 16.0802L13.9957 20.8927C13.5584 21.3088 12.8333 20.999 12.8333 20.3958Z" fill="#7966FF"/>
</g>
<defs>
<clipPath id="clip0_1429_2552">
<rect width="22" height="22" fill="white"/>
</clipPath>
</defs>
</svg>
