<svg width="19" height="19" viewBox="0 0 19 19" fill="none" xmlns="http://www.w3.org/2000/svg">
<g clip-path="url(#clip0_1097_951)">
<path d="M9.39318 0.296875C6.79112 0.296875 4.66406 2.42393 4.66406 5.02599C4.66406 7.62805 6.79112 9.7551 9.39318 9.7551C11.9952 9.7551 14.1223 7.62805 14.1223 5.02599C14.1223 2.42393 11.9952 0.296875 9.39318 0.296875Z" fill="#7966FF"/>
<path d="M17.5094 13.5346C17.3855 13.2248 17.2203 12.9357 17.0344 12.6672C16.0845 11.263 14.6183 10.3337 12.9662 10.1065C12.7597 10.0859 12.5325 10.1271 12.3673 10.251C11.4999 10.8912 10.4674 11.2216 9.39351 11.2216C8.31963 11.2216 7.28709 10.8912 6.41973 10.251C6.25451 10.1271 6.02734 10.0652 5.82085 10.1065C4.16876 10.3337 2.68189 11.263 1.7526 12.6672C1.56674 12.9357 1.40152 13.2455 1.27764 13.5346C1.2157 13.6585 1.23633 13.8031 1.29827 13.927C1.4635 14.2161 1.66999 14.5052 1.85585 14.753C2.14495 15.1454 2.45473 15.4965 2.80581 15.8269C3.09492 16.116 3.42533 16.3845 3.75578 16.6529C5.3872 17.8714 7.34907 18.5115 9.37288 18.5115C11.3967 18.5115 13.3586 17.8713 14.99 16.6529C15.3204 16.4051 15.6508 16.116 15.9399 15.8269C16.2703 15.4965 16.6008 15.1454 16.8899 14.753C17.0964 14.4846 17.2823 14.2161 17.4475 13.927C17.5507 13.8031 17.5713 13.6585 17.5094 13.5346Z" fill="#7966FF"/>
</g>
<defs>
<clipPath id="clip0_1097_951">
<rect width="18.2143" height="18.2143" fill="white" transform="translate(0.285156 0.296875)"/>
</clipPath>
</defs>
</svg>
