<svg width="22" height="22" viewBox="0 0 22 22" fill="none" xmlns="http://www.w3.org/2000/svg">
<path fill-rule="evenodd" clip-rule="evenodd" d="M16.5 7.5625H5.5V17.875C5.5 18.4223 5.71725 18.9468 6.10431 19.3332C6.49069 19.7202 7.01525 19.9375 7.5625 19.9375H14.4375C14.9848 19.9375 15.5093 19.7202 15.8957 19.3332C16.2827 18.9468 16.5 18.4223 16.5 17.875V7.5625ZM10.3125 10.3036C9.88212 10.4108 9.51706 10.6336 9.27094 10.9649C9.06813 11.2379 8.9375 11.5885 8.9375 12.0361C8.9375 12.9222 9.55006 13.3719 10.4005 13.6201C10.7085 13.7094 11.0481 13.7754 11.3438 13.8744C11.4352 13.9054 11.5211 13.9384 11.5961 13.9817C11.6421 14.0085 11.6875 14.0367 11.6875 14.0986C11.6875 14.3722 11.4799 14.4774 11.2516 14.5083C10.8378 14.564 10.3407 14.4396 10.0093 14.2161C9.69513 14.0037 9.2675 14.0869 9.05506 14.4011C8.84263 14.7159 8.92581 15.1436 9.24069 15.356C9.54044 15.5581 9.91719 15.7121 10.3125 15.8015V15.8125C10.3125 16.192 10.6205 16.5 11 16.5C11.3761 16.5 11.682 16.1975 11.6875 15.8228C11.7604 15.8056 11.8319 15.785 11.8999 15.7609C12.5751 15.5224 13.0625 15.0019 13.0625 14.0986C13.0625 13.2124 12.4499 12.7627 11.5995 12.5146C11.2915 12.4245 10.9519 12.3585 10.6562 12.2595C10.5648 12.2293 10.4789 12.1956 10.4039 12.1529C10.3579 12.1261 10.3125 12.0972 10.3125 12.0361C10.3125 11.759 10.5208 11.6497 10.7511 11.6174C11.1616 11.5603 11.6531 11.6827 11.9811 11.9123C12.2925 12.1296 12.7215 12.0533 12.9388 11.7418C13.156 11.4311 13.0797 11.0021 12.7689 10.7848C12.4664 10.5731 12.0856 10.4122 11.6875 10.3194V10.3125C11.6875 9.933 11.3795 9.625 11 9.625C10.6239 9.625 10.3173 9.92819 10.3125 10.3036ZM4.125 7.5625H1.375V9.625C1.375 10.7642 2.29831 11.6875 3.4375 11.6875H4.125V7.5625ZM20.625 7.5625H17.875V11.6875H18.5625C19.7017 11.6875 20.625 10.7642 20.625 9.625V7.5625ZM20.625 6.1875V4.125C20.625 2.98581 19.7017 2.0625 18.5625 2.0625H3.4375C2.29831 2.0625 1.375 2.98581 1.375 4.125V6.1875H20.625ZM15.8125 4.8125H17.1875C17.567 4.8125 17.875 4.5045 17.875 4.125C17.875 3.7455 17.567 3.4375 17.1875 3.4375H15.8125C15.433 3.4375 15.125 3.7455 15.125 4.125C15.125 4.5045 15.433 4.8125 15.8125 4.8125Z" fill="#7966FF"/>
<mask id="mask0_1429_2549" style="mask-type:alpha" maskUnits="userSpaceOnUse" x="1" y="2" width="20" height="18">
<path fill-rule="evenodd" clip-rule="evenodd" d="M16.5 7.5625H5.5V17.875C5.5 18.4223 5.71725 18.9468 6.10431 19.3332C6.49069 19.7202 7.01525 19.9375 7.5625 19.9375H14.4375C14.9848 19.9375 15.5093 19.7202 15.8957 19.3332C16.2827 18.9468 16.5 18.4223 16.5 17.875V7.5625ZM10.3125 10.3036C9.88212 10.4108 9.51706 10.6336 9.27094 10.9649C9.06813 11.2379 8.9375 11.5885 8.9375 12.0361C8.9375 12.9222 9.55006 13.3719 10.4005 13.6201C10.7085 13.7094 11.0481 13.7754 11.3438 13.8744C11.4352 13.9054 11.5211 13.9384 11.5961 13.9817C11.6421 14.0085 11.6875 14.0367 11.6875 14.0986C11.6875 14.3722 11.4799 14.4774 11.2516 14.5083C10.8378 14.564 10.3407 14.4396 10.0093 14.2161C9.69513 14.0037 9.2675 14.0869 9.05506 14.4011C8.84263 14.7159 8.92581 15.1436 9.24069 15.356C9.54044 15.5581 9.91719 15.7121 10.3125 15.8015V15.8125C10.3125 16.192 10.6205 16.5 11 16.5C11.3761 16.5 11.682 16.1975 11.6875 15.8228C11.7604 15.8056 11.8319 15.785 11.8999 15.7609C12.5751 15.5224 13.0625 15.0019 13.0625 14.0986C13.0625 13.2124 12.4499 12.7627 11.5995 12.5146C11.2915 12.4245 10.9519 12.3585 10.6562 12.2595C10.5648 12.2293 10.4789 12.1956 10.4039 12.1529C10.3579 12.1261 10.3125 12.0972 10.3125 12.0361C10.3125 11.759 10.5208 11.6497 10.7511 11.6174C11.1616 11.5603 11.6531 11.6827 11.9811 11.9123C12.2925 12.1296 12.7215 12.0533 12.9388 11.7418C13.156 11.4311 13.0797 11.0021 12.7689 10.7848C12.4664 10.5731 12.0856 10.4122 11.6875 10.3194V10.3125C11.6875 9.933 11.3795 9.625 11 9.625C10.6239 9.625 10.3173 9.92819 10.3125 10.3036ZM4.125 7.5625H1.375V9.625C1.375 10.7642 2.29831 11.6875 3.4375 11.6875H4.125V7.5625ZM20.625 7.5625H17.875V11.6875H18.5625C19.7017 11.6875 20.625 10.7642 20.625 9.625V7.5625ZM20.625 6.1875V4.125C20.625 2.98581 19.7017 2.0625 18.5625 2.0625H3.4375C2.29831 2.0625 1.375 2.98581 1.375 4.125V6.1875H20.625ZM15.8125 4.8125H17.1875C17.567 4.8125 17.875 4.5045 17.875 4.125C17.875 3.7455 17.567 3.4375 17.1875 3.4375H15.8125C15.433 3.4375 15.125 3.7455 15.125 4.125C15.125 4.5045 15.433 4.8125 15.8125 4.8125Z" fill="#7966FF"/>
</mask>
<g mask="url(#mask0_1429_2549)">
<rect x="5.5" y="7.33594" width="11" height="14.6667" fill="#C9C2FF"/>
</g>
</svg>
