<svg width="12" height="13" viewBox="0 0 12 13" fill="none" xmlns="http://www.w3.org/2000/svg">
<path d="M7.95312 6.56731L11.9986 9.33794V3.67969L7.95312 6.56731Z" fill="#7966FF"/>
<path d="M0 3.67969V9.33794L4.0455 6.56731L0 3.67969Z" fill="#7966FF"/>
<path d="M11.2509 2.03125H0.750937C0.376687 2.03125 0.0796875 2.3335 0.0234375 2.72269L6.00094 6.98913L11.9784 2.72269C11.9222 2.3335 11.6252 2.03125 11.2509 2.03125Z" fill="#7966FF"/>
<path d="M7.26694 7.0555L6.20569 7.81275C6.14269 7.85744 6.07144 7.87937 5.99944 7.87937C5.92744 7.87937 5.85619 7.85744 5.79319 7.81275L4.73194 7.05469L0.0234375 10.2811C0.0811875 10.6671 0.376688 10.9669 0.749438 10.9669H11.2494C11.6222 10.9669 11.9177 10.6671 11.9754 10.2811L7.26694 7.0555Z" fill="#7966FF"/>
</svg>
