<?xml version="1.0" standalone="no"?>
<!DOCTYPE svg PUBLIC "-//W3C//DTD SVG 20010904//EN"
 "http://www.w3.org/TR/2001/REC-SVG-20010904/DTD/svg10.dtd">
<svg version="1.0" xmlns="http://www.w3.org/2000/svg"
 width="16.000000pt" height="16.000000pt" viewBox="0 0 16.000000 16.000000"
 preserveAspectRatio="xMidYMid meet">
<metadata>
Created by potrace 1.16, written by Peter Selinger 2001-2019
</metadata>
<g transform="translate(0.000000,16.000000) scale(0.100000,-0.100000)"
fill="#000000" stroke="none">
<path d="M0 145 c0 -8 7 -15 16 -15 13 0 14 -3 5 -14 -7 -8 -11 -34 -9 -58 l3
-43 58 -9 c42 -6 61 -5 72 4 17 14 20 75 5 85 -5 3 -6 13 -3 21 4 10 -2 17
-16 21 -11 3 -21 9 -21 14 0 5 -25 9 -55 9 -42 0 -55 -3 -55 -15z"/>
</g>
</svg>
