<svg width="18" height="18" viewBox="0 0 18 18" fill="none" xmlns="http://www.w3.org/2000/svg">
<path fill-rule="evenodd" clip-rule="evenodd" d="M16.8506 10.2117C16.9622 9.66229 17.0208 9.09308 17.0208 8.51042C17.0208 3.81346 13.2074 0 8.51042 0C3.81346 0 0 3.81346 0 8.51042C0 13.2074 3.81346 17.0208 8.51042 17.0208C9.09308 17.0208 9.66229 16.9622 10.2117 16.8506C10.5331 16.7849 10.7405 16.4714 10.6756 16.15C10.6099 15.8294 10.2964 15.6212 9.97579 15.6869C9.50237 15.7827 9.01233 15.8333 8.51042 15.8333C4.46896 15.8333 1.1875 12.5519 1.1875 8.51042C1.1875 4.46896 4.46896 1.1875 8.51042 1.1875C12.5519 1.1875 15.8333 4.46896 15.8333 8.51042C15.8333 9.01233 15.7827 9.50237 15.6869 9.97579C15.6212 10.2964 15.8294 10.6099 16.15 10.6756C16.4714 10.7405 16.7849 10.5331 16.8506 10.2117Z" fill="#292929"/>
<path fill-rule="evenodd" clip-rule="evenodd" d="M8.31295 4.15625V7.86838L5.32045 10.8617C5.08849 11.0928 5.08849 11.4697 5.32045 11.7008C5.55162 11.9328 5.92845 11.9328 6.15962 11.7008L9.32629 8.53417C9.43791 8.42333 9.50045 8.27213 9.50045 8.11458V4.15625C9.50045 3.8285 9.23445 3.5625 8.9067 3.5625C8.57895 3.5625 8.31295 3.8285 8.31295 4.15625Z" fill="#292929"/>
</svg>
