<svg width="54" height="54" viewBox="0 0 54 54" fill="none" xmlns="http://www.w3.org/2000/svg">
<ellipse cx="26.7371" cy="26.5817" rx="26.7371" ry="26.5817" fill="#F1EFFF"/>
<path d="M27.0024 36.1094H25.5052C24.4507 36.1094 23.5938 36.9663 23.5938 38.0208V40.0883C23.5938 41.1428 24.4507 41.9997 25.5052 41.9997H27.0024C28.0569 41.9997 28.9139 41.1428 28.9139 40.0883V38.0208C28.9139 36.9632 28.0569 36.1094 27.0024 36.1094Z" fill="#7966FF"/>
<path d="M16.4439 20.1047L19.2059 20.4488C20.082 20.5571 20.9134 20.0537 21.2288 19.2287C21.627 18.1869 22.1813 17.365 22.8917 16.7661C23.8985 15.9187 25.1504 15.4918 26.6477 15.4918C28.1991 15.4918 29.4352 15.8996 30.3526 16.712C31.2701 17.5275 31.7257 18.5023 31.7257 19.646C31.7257 20.4679 31.4676 21.2197 30.9515 21.9015C30.617 22.3347 29.5881 23.2458 27.871 24.638C26.1507 26.0301 25.0071 27.2852 24.4336 28.4002C23.8475 29.5407 23.6436 30.8054 23.5926 32.0734C23.5481 33.1597 24.4145 34.0644 25.504 34.0644H27.065C28.059 34.0644 28.8809 33.3031 28.9701 32.3155C29.0338 31.6051 29.1517 31.0667 29.3301 30.7004C29.6295 30.0728 30.4036 29.2445 31.6461 28.2123C34.0512 26.2213 35.6186 24.6475 36.3545 23.4879C37.0872 22.3315 37.4568 21.105 37.4568 19.8084C37.4568 17.467 36.4596 15.4122 34.4622 13.6473C32.468 11.8824 29.7792 11 26.4024 11C23.1912 11 20.6013 11.8697 18.6261 13.6123C16.9441 15.0968 15.9215 16.8553 15.5615 18.8846C15.45 19.4771 15.8545 20.0314 16.4439 20.1047Z" fill="#7966FF"/>
</svg>
