<?xml version="1.0" standalone="no"?>
<!DOCTYPE svg PUBLIC "-//W3C//DTD SVG 20010904//EN"
 "http://www.w3.org/TR/2001/REC-SVG-20010904/DTD/svg10.dtd">
<svg version="1.0" xmlns="http://www.w3.org/2000/svg"
 width="54.000000pt" height="54.000000pt" viewBox="0 0 54.000000 54.000000"
 preserveAspectRatio="xMidYMid meet">
<metadata>
Created by potrace 1.16, written by Peter Selinger 2001-2019
</metadata>
<g transform="translate(0.000000,54.000000) scale(0.100000,-0.100000)"
fill="#000000" stroke="none">
<path d="M223 419 c-32 -9 -63 -42 -63 -66 0 -22 41 -14 62 12 22 28 59 33 82
9 25 -25 19 -46 -25 -86 -29 -26 -40 -44 -37 -60 4 -28 36 -36 45 -11 3 10 24
37 45 60 41 46 47 76 23 110 -13 18 -75 45 -95 42 -3 0 -19 -5 -37 -10z"/>
</g>
</svg>
