<svg width="16" height="16" viewBox="0 0 16 16" fill="none" xmlns="http://www.w3.org/2000/svg">
<path d="M11.8971 9.27475C12.3268 9.27475 12.6751 8.92643 12.6751 8.49675C12.6751 8.06707 12.3268 7.71875 11.8971 7.71875C11.4675 7.71875 11.1191 8.06707 11.1191 8.49675C11.1191 8.92643 11.4675 9.27475 11.8971 9.27475Z" fill="#7966FF"/>
<path fill-rule="evenodd" clip-rule="evenodd" d="M14.7501 4.111H3.34261C3.06267 4.111 2.7942 3.9998 2.59626 3.80185C2.39831 3.60391 2.28711 3.33544 2.28711 3.0555C2.28711 2.77556 2.39831 2.50709 2.59626 2.30915C2.7942 2.1112 3.06267 2 3.34261 2H13.1926C13.3252 2 13.4524 1.94732 13.5462 1.85355C13.6399 1.75979 13.6926 1.63261 13.6926 1.5C13.6926 1.36739 13.6399 1.24021 13.5462 1.14645C13.4524 1.05268 13.3252 1 13.1926 1H3.34261C2.79754 1.00026 2.27487 1.21691 1.88944 1.60233C1.50402 1.98776 1.28737 2.51043 1.28711 3.0555V7.9265C1.28711 8.05911 1.33979 8.18629 1.43356 8.28005C1.52732 8.37382 1.6545 8.4265 1.78711 8.4265C1.91972 8.4265 2.04689 8.37382 2.14066 8.28005C2.23443 8.18629 2.28711 8.05911 2.28711 7.9265V4.8195C2.60594 5.01071 2.97083 5.11149 3.34261 5.111H14.2501V11.35C14.2501 11.6299 14.1389 11.8984 13.941 12.0964C13.743 12.2943 13.4745 12.4055 13.1946 12.4055H7.99061C7.858 12.4055 7.73082 12.4582 7.63705 12.5519C7.54329 12.6457 7.49061 12.7729 7.49061 12.9055C7.49061 13.0381 7.54329 13.1653 7.63705 13.2591C7.73082 13.3528 7.858 13.4055 7.99061 13.4055H13.1946C13.7397 13.4054 14.2625 13.1888 14.6479 12.8033C15.0334 12.4179 15.25 11.8951 15.2501 11.35V4.611C15.2501 4.47839 15.1974 4.35121 15.1037 4.25745C15.0099 4.16368 14.8827 4.111 14.7501 4.111Z" fill="#7966FF"/>
<path fill-rule="evenodd" clip-rule="evenodd" d="M13.1952 2.55469H6.97266C6.84005 2.55469 6.71287 2.60737 6.6191 2.70113C6.52533 2.7949 6.47266 2.92208 6.47266 3.05469C6.47266 3.1873 6.52533 3.31447 6.6191 3.40824C6.71287 3.50201 6.84005 3.55469 6.97266 3.55469H13.1952C13.3278 3.55469 13.4549 3.50201 13.5487 3.40824C13.6425 3.31447 13.6952 3.1873 13.6952 3.05469C13.6952 2.92208 13.6425 2.7949 13.5487 2.70113C13.4549 2.60737 13.3278 2.55469 13.1952 2.55469Z" fill="#7966FF"/>
<path fill-rule="evenodd" clip-rule="evenodd" d="M3.86133 2.55469C3.72872 2.55469 3.60154 2.60737 3.50777 2.70113C3.41401 2.7949 3.36133 2.92208 3.36133 3.05469C3.36133 3.1873 3.41401 3.31447 3.50777 3.40824C3.60154 3.50201 3.72872 3.55469 3.86133 3.55469H4.90033C5.03294 3.55469 5.16011 3.50201 5.25388 3.40824C5.34765 3.31447 5.40033 3.1873 5.40033 3.05469C5.40033 2.92208 5.34765 2.7949 5.25388 2.70113C5.16011 2.60737 5.03294 2.55469 4.90033 2.55469H3.86133Z" fill="#7966FF"/>
<path fill-rule="evenodd" clip-rule="evenodd" d="M3.99499 8.57588C3.01319 8.52701 2.04239 8.80096 1.23099 9.35588C1.08209 9.46338 0.960843 9.6047 0.877223 9.7682C0.793603 9.93171 0.75 10.1127 0.75 10.2964C0.75 10.48 0.793603 10.6611 0.877223 10.8246C0.960843 10.9881 1.08209 11.1294 1.23099 11.2369C2.04239 11.7918 3.01319 12.0658 3.99499 12.0169C4.97678 12.0658 5.94758 11.7918 6.75899 11.2369C6.90807 11.1295 7.0295 10.9882 7.11325 10.8247C7.19701 10.6612 7.24068 10.4801 7.24068 10.2964C7.24068 10.1127 7.19701 9.93156 7.11325 9.76804C7.0295 9.60452 6.90807 9.46325 6.75899 9.35588C5.94758 8.80096 4.97678 8.52701 3.99499 8.57588ZM6.17099 10.4174C6.1062 10.485 6.03212 10.5431 5.95099 10.5899C5.34616 10.8969 4.67275 11.0439 3.99499 11.0169C3.31722 11.0439 2.64384 10.8969 2.03899 10.5899C1.95803 10.5428 1.88399 10.4848 1.81899 10.4174C1.78233 10.3867 1.75786 10.344 1.74999 10.2969C1.75751 10.2496 1.78205 10.2068 1.81899 10.1764C1.88385 10.1088 1.95792 10.0508 2.03899 10.0039C2.6437 9.69646 3.31716 9.54927 3.99499 9.57638C4.67282 9.54921 5.34629 9.6964 5.95099 10.0039C6.03223 10.0505 6.10633 10.1086 6.17099 10.1764C6.20822 10.2066 6.23297 10.2495 6.24049 10.2969C6.23274 10.3442 6.20804 10.387 6.17099 10.4174Z" fill="#7966FF"/>
<path fill-rule="evenodd" clip-rule="evenodd" d="M6.16703 11.9587C6.02327 12.1112 5.84441 12.2262 5.64603 12.2937C5.1186 12.4905 4.55885 12.5861 3.99603 12.5757C3.4332 12.5862 2.87345 12.4905 2.34603 12.2937C2.14756 12.2261 1.96856 12.1111 1.82453 11.9587C1.78447 11.9051 1.73404 11.86 1.67622 11.8262C1.61841 11.7924 1.55439 11.7705 1.48798 11.7619C1.42156 11.7534 1.35409 11.7582 1.28958 11.7762C1.22507 11.7942 1.16482 11.8249 1.11243 11.8666C1.06003 11.9083 1.01655 11.9601 0.984556 12.019C0.952567 12.0778 0.932723 12.1425 0.926203 12.2091C0.919683 12.2758 0.92662 12.3431 0.946602 12.407C0.966584 12.4709 0.999204 12.5302 1.04253 12.5812C1.47553 13.1257 2.62453 13.5757 3.99603 13.5757C5.36753 13.5757 6.51703 13.1257 6.95003 12.5812C6.99197 12.53 7.02331 12.4709 7.04222 12.4074C7.06113 12.3439 7.06725 12.2773 7.0602 12.2115C7.05316 12.1456 7.0331 12.0818 7.00119 12.0238C6.96928 11.9657 6.92615 11.9146 6.87432 11.8733C6.82248 11.8321 6.76297 11.8016 6.69924 11.7835C6.63551 11.7655 6.56882 11.7603 6.50306 11.7682C6.43731 11.7762 6.37378 11.7971 6.31618 11.8298C6.25858 11.8625 6.20805 11.9063 6.16753 11.9587H6.16703Z" fill="#7966FF"/>
<path fill-rule="evenodd" clip-rule="evenodd" d="M6.16558 13.3833C6.02183 13.5358 5.84297 13.6508 5.64458 13.7183C5.11701 13.9151 4.55708 14.0108 3.99408 14.0003C3.43126 14.0107 2.8715 13.9151 2.34408 13.7183C2.14562 13.6506 1.96662 13.5357 1.82258 13.3833C1.78216 13.3306 1.73163 13.2864 1.67394 13.2534C1.61626 13.2205 1.55258 13.1993 1.48663 13.1912C1.42068 13.1831 1.35378 13.1883 1.28984 13.2063C1.2259 13.2244 1.1662 13.255 1.11423 13.2964C1.06226 13.3378 1.01906 13.3892 0.987165 13.4475C0.955267 13.5058 0.935307 13.5698 0.92845 13.6359C0.921594 13.702 0.927979 13.7688 0.947233 13.8324C0.966486 13.896 0.998222 13.9551 1.04058 14.0063C1.47358 14.5503 2.62258 15.0003 3.99408 15.0003C5.36558 15.0003 6.51508 14.5503 6.94808 14.0063C6.98899 13.9549 7.01938 13.896 7.03751 13.8328C7.05564 13.7697 7.06116 13.7036 7.05375 13.6384C7.04635 13.5731 7.02616 13.51 6.99435 13.4525C6.96253 13.3951 6.91971 13.3444 6.86833 13.3035C6.81695 13.2626 6.75802 13.2322 6.6949 13.2141C6.63177 13.196 6.5657 13.1905 6.50044 13.1979C6.43519 13.2053 6.37203 13.2255 6.31457 13.2573C6.25712 13.2891 6.20649 13.3319 6.16558 13.3833Z" fill="#7966FF"/>
</svg>
