<svg width="21" height="21" viewBox="0 0 21 21" fill="none" xmlns="http://www.w3.org/2000/svg">
<path d="M14.6209 9.37483L11.1209 12.8748C11.0396 12.9568 10.9428 13.0219 10.8362 13.0664C10.7296 13.1108 10.6152 13.1337 10.4997 13.1337C10.3842 13.1337 10.2698 13.1108 10.1632 13.0664C10.0565 13.0219 9.95977 12.9568 9.87842 12.8748L6.37842 9.37483C6.29684 9.29325 6.23212 9.19639 6.18797 9.0898C6.14382 8.9832 6.12109 8.86896 6.12109 8.75358C6.12109 8.6382 6.14382 8.52396 6.18797 8.41736C6.23212 8.31077 6.29684 8.21391 6.37842 8.13233C6.46001 8.05075 6.55686 7.98603 6.66346 7.94188C6.77005 7.89772 6.8843 7.875 6.99967 7.875C7.11505 7.875 7.2293 7.89772 7.33589 7.94188C7.44249 7.98603 7.53934 8.05075 7.62092 8.13233L10.4997 11.0198L13.3784 8.13233C13.5432 7.96756 13.7667 7.875 13.9997 7.875C14.2327 7.875 14.4562 7.96756 14.6209 8.13233C14.7857 8.2971 14.8783 8.52057 14.8783 8.75358C14.8783 8.98659 14.7857 9.21006 14.6209 9.37483Z" fill="#555555"/>
</svg>
