<?xml version="1.0" standalone="no"?>
<!DOCTYPE svg PUBLIC "-//W3C//DTD SVG 20010904//EN"
 "http://www.w3.org/TR/2001/REC-SVG-20010904/DTD/svg10.dtd">
<svg version="1.0" xmlns="http://www.w3.org/2000/svg"
 width="74.000000pt" height="74.000000pt" viewBox="0 0 74.000000 74.000000"
 preserveAspectRatio="xMidYMid meet">
<metadata>
Created by potrace 1.16, written by Peter Selinger 2001-2019
</metadata>
<g transform="translate(0.000000,74.000000) scale(0.100000,-0.100000)"
fill="#000000" stroke="none">
<path d="M115 721 c-48 -22 -79 -54 -100 -103 -22 -54 -22 -442 0 -496 21 -49
52 -81 100 -103 35 -16 67 -19 255 -19 233 0 267 7 317 61 47 52 53 84 53 309
0 225 -6 257 -53 309 -50 54 -84 61 -317 61 -188 0 -220 -3 -255 -19z m196
-148 l59 -56 59 56 c53 51 64 57 101 57 59 0 100 -41 100 -101 0 -37 -5 -48
-46 -86 -44 -43 -47 -44 -69 -29 -14 9 -27 16 -30 16 -10 0 51 -83 84 -114 17
-17 31 -32 31 -35 0 -3 -37 -6 -83 -6 -77 0 -85 -2 -127 -32 -45 -34 -88 -43
-94 -21 -2 7 -9 33 -16 57 -9 33 -31 65 -91 127 -72 75 -79 86 -79 122 0 57
45 102 102 102 34 0 47 -7 99 -57z"/>
</g>
</svg>
