<svg width="14" height="14" viewBox="0 0 14 14" fill="none" xmlns="http://www.w3.org/2000/svg">
<path d="M7.95076 1.84213C7.30356 1.99393 6.71292 2.32695 6.24805 2.80215C5.78318 3.27735 5.46331 3.87506 5.32576 4.52545C5.2023 5.10578 5.22833 5.70797 5.40153 6.27544L1.75 9.92712V12.2605H3.5C3.65471 12.2605 3.80304 12.199 3.91243 12.0896C4.02183 11.9802 4.08333 11.8318 4.08333 11.6771V11.0238H5.31993V9.78712H6.55666L7.72333 8.62046C8.2908 8.79366 8.893 8.81975 9.47333 8.69629C10.1226 8.55775 10.719 8.23738 11.1931 7.77259C11.6672 7.30779 11.9994 6.71774 12.1507 6.07129C12.2909 5.49044 12.2801 4.88339 12.1193 4.30791C11.9584 3.73243 11.6529 3.20768 11.2319 2.78371C10.8108 2.35973 10.2882 2.0506 9.71387 1.88578C9.13951 1.72096 8.53257 1.70594 7.95076 1.84213V1.84213Z" stroke="#6A6A6A" stroke-linejoin="round"/>
<path d="M8.7487 6.41927C9.39303 6.41927 9.91536 5.89694 9.91536 5.2526C9.91536 4.60827 9.39303 4.08594 8.7487 4.08594C8.10437 4.08594 7.58203 4.60827 7.58203 5.2526C7.58203 5.89694 8.10437 6.41927 8.7487 6.41927Z" fill="#6A6A6A"/>
</svg>
