<svg width="16" height="16" viewBox="0 0 16 16" fill="none" xmlns="http://www.w3.org/2000/svg">
<path d="M8.80867 6.00006V6.50006H9.30867H13.9745C14.0045 6.50023 14.0338 6.50848 14.0595 6.52395C14.0852 6.5394 14.1062 6.56148 14.1204 6.58786C14.1342 6.6142 14.1407 6.64377 14.1393 6.67349C14.1378 6.70325 14.1284 6.73207 14.112 6.75696C14.1119 6.75709 14.1119 6.75722 14.1118 6.75735L8.78032 14.7545C8.7802 14.7547 8.78008 14.7549 8.77997 14.7551C8.76012 14.7844 8.73146 14.8066 8.69813 14.8185C8.6646 14.8305 8.62811 14.8314 8.59401 14.8212C8.5599 14.8109 8.52998 14.79 8.50862 14.7616C8.48752 14.7334 8.47587 14.6993 8.47533 14.6641V10.0001V9.50006H7.97533H3.33005C3.30481 9.49681 3.2806 9.48781 3.25931 9.4737L2.98312 9.89049L3.25931 9.4737C3.23504 9.45761 3.21541 9.43545 3.20236 9.40942L3.19574 9.3962L3.18834 9.3834C3.17372 9.35806 3.16602 9.32932 3.16602 9.30006C3.16602 9.27439 3.17194 9.24913 3.18327 9.2262L8.50368 1.24559C8.50379 1.24542 8.5039 1.24526 8.50402 1.24509C8.52386 1.21578 8.55253 1.19355 8.58587 1.18162C8.6194 1.16962 8.65589 1.16868 8.68999 1.17893L8.83266 0.704234L8.68999 1.17893C8.72409 1.18918 8.75401 1.21008 8.77537 1.23857C8.79648 1.26672 8.80812 1.30082 8.80867 1.33598V6.00006ZM8.80867 12.4667V14.119L9.72477 12.744L13.1448 7.61062L13.6626 6.8334H12.7287H8.642C8.5978 6.8334 8.5554 6.81584 8.52415 6.78458C8.49289 6.75332 8.47533 6.71093 8.47533 6.66673V3.5334V1.88111L7.55922 3.25617L4.13922 8.3895L3.62141 9.16673H4.55533H8.642C8.6862 9.16673 8.72859 9.18429 8.75985 9.21554C8.79111 9.2468 8.80867 9.28919 8.80867 9.3334V12.4667Z" fill="#222221" stroke="#7966FF"/>
</svg>
