<svg width="13" height="13" viewBox="0 0 13 13" fill="none" xmlns="http://www.w3.org/2000/svg">
<g clip-path="url(#clip0_1374_2876)">
<path d="M12.4583 11.9168V5.14601C12.4583 5.03768 12.3939 4.93963 12.2942 4.89684L8.50254 3.27184C8.41858 3.23555 8.32271 3.24422 8.24688 3.29459C8.1705 3.34497 8.125 3.43001 8.125 3.52101V11.9168H7.58333V0.406426C7.58333 0.272634 7.51779 0.147509 7.40783 0.0716757C7.29733 -0.00415763 7.15758 -0.0209493 7.03246 0.0267174L1.34496 2.19338C1.18733 2.25351 1.08333 2.40463 1.08333 2.57309V11.9168H0.541667C0.242667 11.9168 0 12.159 0 12.4585C0 12.7581 0.242667 13.0002 0.541667 13.0002H12.4583C12.7573 13.0002 13 12.7581 13 12.4585C13 12.159 12.7573 11.9168 12.4583 11.9168ZM10.8333 6.90643C10.8333 6.68218 11.0153 6.50018 11.2396 6.50018C11.4638 6.50018 11.6458 6.68218 11.6458 6.90643V7.71893C11.6458 7.94318 11.4638 8.12518 11.2396 8.12518C11.0153 8.12518 10.8333 7.94318 10.8333 7.71893V6.90643ZM10.8333 10.1564C10.8333 9.93218 11.0153 9.75018 11.2396 9.75018C11.4638 9.75018 11.6458 9.93218 11.6458 10.1564V10.9689C11.6458 11.1932 11.4638 11.3752 11.2396 11.3752C11.0153 11.3752 10.8333 11.1932 10.8333 10.9689V10.1564ZM8.9375 6.90643C8.9375 6.68218 9.1195 6.50018 9.34375 6.50018C9.568 6.50018 9.75 6.68218 9.75 6.90643V7.71893C9.75 7.94318 9.568 8.12518 9.34375 8.12518C9.1195 8.12518 8.9375 7.94318 8.9375 7.71893V6.90643ZM8.9375 10.1564C8.9375 9.93218 9.1195 9.75018 9.34375 9.75018C9.568 9.75018 9.75 9.93218 9.75 10.1564V10.9689C9.75 11.1932 9.568 11.3752 9.34375 11.3752C9.1195 11.3752 8.9375 11.1932 8.9375 10.9689V10.1564ZM5.14583 3.65643C5.14583 3.43218 5.32783 3.25018 5.55208 3.25018C5.77633 3.25018 5.95833 3.43218 5.95833 3.65643V4.46893C5.95833 4.69318 5.77633 4.87518 5.55208 4.87518C5.32783 4.87518 5.14583 4.69318 5.14583 4.46893V3.65643ZM5.14583 6.90643C5.14583 6.68218 5.32783 6.50018 5.55208 6.50018C5.77633 6.50018 5.95833 6.68218 5.95833 6.90643V7.71893C5.95833 7.94318 5.77633 8.12518 5.55208 8.12518C5.32783 8.12518 5.14583 7.94318 5.14583 7.71893V6.90643ZM5.14583 10.1564C5.14583 9.93218 5.32783 9.75018 5.55208 9.75018C5.77633 9.75018 5.95833 9.93218 5.95833 10.1564V10.9689C5.95833 11.1932 5.77633 11.3752 5.55208 11.3752C5.32783 11.3752 5.14583 11.1932 5.14583 10.9689V10.1564ZM2.70833 3.65643C2.70833 3.43218 2.89033 3.25018 3.11458 3.25018C3.33883 3.25018 3.52083 3.43218 3.52083 3.65643V4.46893C3.52083 4.69318 3.33883 4.87518 3.11458 4.87518C2.89033 4.87518 2.70833 4.69318 2.70833 4.46893V3.65643ZM2.70833 6.90643C2.70833 6.68218 2.89033 6.50018 3.11458 6.50018C3.33883 6.50018 3.52083 6.68218 3.52083 6.90643V7.71893C3.52083 7.94318 3.33883 8.12518 3.11458 8.12518C2.89033 8.12518 2.70833 7.94318 2.70833 7.71893V6.90643ZM2.70833 10.1564C2.70833 9.93218 2.89033 9.75018 3.11458 9.75018C3.33883 9.75018 3.52083 9.93218 3.52083 10.1564V10.9689C3.52083 11.1932 3.33883 11.3752 3.11458 11.3752C2.89033 11.3752 2.70833 11.1932 2.70833 10.9689V10.1564Z" fill="#7966FF"/>
</g>
<defs>
<clipPath id="clip0_1374_2876">
<rect width="13" height="13" fill="white"/>
</clipPath>
</defs>
</svg>
