<svg width="21" height="21" viewBox="0 0 21 21" fill="none" xmlns="http://www.w3.org/2000/svg">
<path d="M15.3929 13.9234C15.5538 14.0843 15.6443 14.3026 15.6443 14.5302C15.6443 14.7578 15.5538 14.9761 15.3929 15.137C15.232 15.298 15.0137 15.3884 14.7861 15.3884C14.5585 15.3884 14.3402 15.298 14.1792 15.137L10.5126 11.4618L6.8459 15.137C6.68495 15.298 6.46667 15.3884 6.23906 15.3884C6.01145 15.3884 5.79316 15.298 5.63222 15.137C5.47128 14.9761 5.38086 14.7578 5.38086 14.5302C5.38086 14.3026 5.47128 14.0843 5.63222 13.9234L9.30743 10.2567L5.63222 6.59004C5.47128 6.42909 5.38086 6.21081 5.38086 5.9832C5.38086 5.75559 5.47128 5.5373 5.63222 5.37636C5.79316 5.21542 6.01145 5.125 6.23906 5.125C6.46667 5.125 6.68495 5.21542 6.8459 5.37636L10.5126 9.05157L14.1792 5.37636C14.3402 5.21542 14.5585 5.125 14.7861 5.125C15.0137 5.125 15.232 5.21542 15.3929 5.37636C15.5538 5.5373 15.6443 5.75559 15.6443 5.9832C15.6443 6.21081 15.5538 6.42909 15.3929 6.59004L11.7177 10.2567L15.3929 13.9234Z" fill="#555555"/>
</svg>
