<svg width="13" height="13" viewBox="0 0 13 13" fill="none" xmlns="http://www.w3.org/2000/svg">
<g clip-path="url(#clip0_1374_2722)">
<path d="M7.10156 0.0078125C7.84171 1.07979 8.41849 2.25581 8.813 3.4973C9.71573 3.35569 10.5852 3.05111 11.379 2.59848L11.6119 2.45402C10.5069 1.05546 8.87656 0.171268 7.10156 0.0078125Z" fill="#7966FF"/>
<path d="M8.12906 4.54688C7.58766 4.60888 7.04316 4.64 6.49824 4.64006C5.9533 4.63997 5.40882 4.60888 4.86742 4.54688C4.7524 5.0368 4.67915 5.53561 4.64844 6.03791H8.34807C8.31736 5.53561 8.24408 5.0368 8.12906 4.54688Z" fill="#7966FF"/>
<path d="M6.49956 9.29688C6.04045 9.29728 5.58168 9.32106 5.125 9.36816C5.46095 10.3713 5.92284 11.3278 6.49956 12.2146C7.07628 11.3278 7.53815 10.3713 7.87412 9.36816C7.41745 9.32106 6.95867 9.29728 6.49956 9.29688Z" fill="#7966FF"/>
<path d="M9.27695 6.96875C9.24856 7.51853 9.17421 8.065 9.05469 8.60238C10.0468 8.76717 11.0008 9.11005 11.8709 9.61443L12.1342 9.77843C12.6339 8.9205 12.9298 7.9592 12.999 6.96875H9.27695Z" fill="#7966FF"/>
<path d="M12.1342 3.22656L11.8709 3.39059C11.001 3.89578 10.0469 4.23943 9.05469 4.40496C9.17405 4.94144 9.24839 5.48693 9.27695 6.03578H12.999C12.9297 5.04549 12.6338 4.08438 12.1342 3.22656Z" fill="#7966FF"/>
<path d="M4.64844 6.96875C4.67942 7.4711 4.753 7.96991 4.86835 8.45978C5.95204 8.33599 7.04629 8.33599 8.13001 8.45978C8.24473 7.96982 8.31768 7.47102 8.34807 6.96875H4.64844Z" fill="#7966FF"/>
<path d="M1.12805 3.39059L0.864783 3.22656C0.365161 4.08438 0.0692918 5.04549 0 6.03578H3.72202C3.75058 5.48693 3.82492 4.94141 3.94428 4.40496C2.95206 4.23943 1.99794 3.89578 1.12805 3.39059Z" fill="#7966FF"/>
<path d="M4.18567 9.50781C3.28302 9.64948 2.41359 9.95387 1.61968 10.4062L1.38672 10.5511C2.49173 11.9497 4.12214 12.8338 5.8971 12.9969C5.15684 11.9251 4.58007 10.7492 4.18567 9.50781Z" fill="#7966FF"/>
<path d="M6.49956 0.789062C5.92292 1.67582 5.46106 2.63212 5.125 3.63508C5.58165 3.68242 6.04045 3.7062 6.49956 3.70636C6.95867 3.7062 7.41745 3.68239 7.87412 3.63508C7.53806 2.63212 7.0762 1.67582 6.49956 0.789062Z" fill="#7966FF"/>
<path d="M11.3804 10.4062C10.5865 9.9539 9.71704 9.64951 8.81439 9.50781C8.41958 10.7493 7.84231 11.9252 7.10156 12.9968C8.87656 12.8338 10.5069 11.9497 11.6119 10.5511L11.3804 10.4062Z" fill="#7966FF"/>
<path d="M1.39062 2.45402L1.6222 2.59848C2.416 3.05111 3.28545 3.35566 4.18818 3.4973C4.5831 2.2557 5.16037 1.07971 5.90101 0.0078125C4.12604 0.171241 2.49575 1.05544 1.39062 2.45402Z" fill="#7966FF"/>
<path d="M3.72202 6.96875H0C0.0692099 7.9592 0.365079 8.9205 0.86481 9.77843L1.12808 9.61443C1.99813 9.11005 2.95222 8.7672 3.94428 8.60238C3.82473 8.06497 3.75039 7.51853 3.72202 6.96875Z" fill="#7966FF"/>
</g>
<defs>
<clipPath id="clip0_1374_2722">
<rect width="13" height="13" fill="white"/>
</clipPath>
</defs>
</svg>
