<svg width="23" height="23" viewBox="0 0 23 23" fill="none" xmlns="http://www.w3.org/2000/svg">
<path d="M5.27148 8.38281C5.66844 8.38281 5.99023 8.70461 5.99023 9.10156V17.0078H13.8965C14.2934 17.0078 14.6152 17.3296 14.6152 17.7265C14.6152 18.1235 14.2934 18.4453 13.8965 18.4453H5.27148C4.87453 18.4453 4.55273 18.1235 4.55273 17.7265V9.10156C4.55273 8.70461 4.87453 8.38281 5.27148 8.38281Z" fill="#292929"/>
<path d="M17.9773 5.02301C18.258 5.30371 18.258 5.75879 17.9773 6.03948L5.77971 18.2371C5.49903 18.5177 5.04394 18.5177 4.76325 18.2371C4.48256 17.9565 4.48256 17.5013 4.76325 17.2206L16.9609 5.02301C17.2416 4.74233 17.6966 4.74233 17.9773 5.02301Z" fill="#292929"/>
</svg>
