<svg width="22" height="22" viewBox="0 0 22 22" fill="none" xmlns="http://www.w3.org/2000/svg">
<path fill-rule="evenodd" clip-rule="evenodd" d="M11 5.83253C10.5182 4.71185 9.84434 3.31859 9.25166 2.72613C8.36682 1.84129 6.93 1.84129 6.04516 2.72613C5.16032 3.61119 5.16032 5.04801 6.04516 5.93285C6.38902 6.27671 7.00282 6.64829 7.67668 6.99369H4.125C2.98584 6.99347 2.0625 7.91703 2.0625 9.05597V17.8749C2.0625 19.014 2.98584 19.9374 4.125 19.9374H17.875C19.0142 19.9374 19.9375 19.014 19.9375 17.8749V9.05597C19.9375 7.91703 19.0142 6.99347 17.875 6.99369H14.3233C14.9972 6.64829 15.611 6.27671 15.9548 5.93285C16.8397 5.04801 16.8397 3.61119 15.9548 2.72613C15.07 1.84129 13.6332 1.84129 12.7483 2.72613C12.1557 3.31859 11.4818 4.71185 11 5.83253ZM18.5625 15.8372V17.8749C18.5625 18.2546 18.2547 18.5624 17.875 18.5624H4.125C3.74528 18.5624 3.4375 18.2546 3.4375 17.8749V15.8372H18.5625ZM9.34032 8.36869H4.125C3.74528 8.36869 3.4375 8.67647 3.4375 9.05597V14.4622H18.5625V9.05597C18.5625 8.67647 18.2547 8.36869 17.875 8.36869H12.6597L14.3218 10.0306C14.5902 10.299 14.5902 10.7346 14.3218 11.003C14.0536 11.2711 13.6178 11.2711 13.3496 11.003L11 8.65337L8.6504 11.003C8.38222 11.2711 7.9464 11.2711 7.67822 11.003C7.40982 10.7346 7.40982 10.299 7.67822 10.0306L9.34032 8.36869ZM12.1909 6.49011C12.6047 5.48581 13.1912 4.22763 13.7205 3.69853C14.0688 3.35027 14.6344 3.35027 14.9827 3.69853C15.3309 4.04679 15.3309 4.61219 14.9827 4.96067C14.4533 5.48977 13.1954 6.07651 12.1909 6.49011ZM9.80914 6.49011C8.80462 6.07651 7.54666 5.48977 7.01734 4.96067C6.66908 4.61219 6.66908 4.04679 7.01734 3.69853C7.3656 3.35027 7.93122 3.35027 8.27948 3.69853C8.8088 4.22763 9.39532 5.48581 9.80914 6.49011Z" fill="#777777"/>
</svg>
