<?xml version="1.0" standalone="no"?>
<!DOCTYPE svg PUBLIC "-//W3C//DTD SVG 20010904//EN"
 "http://www.w3.org/TR/2001/REC-SVG-20010904/DTD/svg10.dtd">
<svg version="1.0" xmlns="http://www.w3.org/2000/svg"
 width="18.000000pt" height="18.000000pt" viewBox="0 0 18.000000 18.000000"
 preserveAspectRatio="xMidYMid meet">
<metadata>
Created by potrace 1.16, written by Peter Selinger 2001-2019
</metadata>
<g transform="translate(0.000000,18.000000) scale(0.100000,-0.100000)"
fill="#000000" stroke="none">
<path d="M32 155 c4 -19 1 -25 -13 -25 -17 0 -19 -8 -19 -65 l0 -65 90 0 90 0
0 65 c0 57 -2 65 -19 65 -14 0 -18 5 -14 20 7 25 -22 38 -48 21 -12 -7 -19 -7
-19 -1 0 5 -12 10 -26 10 -23 0 -26 -3 -22 -25z"/>
</g>
</svg>
