<svg width="10" height="10" viewBox="0 0 10 10" fill="none" xmlns="http://www.w3.org/2000/svg">
<g clip-path="url(#clip0_1439_2887)">
<path d="M5.625 4.5V5.75H8.575C8.275 7.5 6.875 8.75 5.125 8.75C3.075 8.75 1.375 7.05 1.375 5C1.375 2.95 3.075 1.25 5.125 1.25C6.175 1.25 7.075 1.7 7.725 2.4L8.625 1.5C7.725 0.6 6.525 0 5.125 0C2.375 0 0.125 2.25 0.125 5C0.125 7.75 2.375 10 5.125 10C7.875 10 9.875 7.75 9.875 5V4.5H5.625Z" fill="#292929"/>
</g>
<defs>
<clipPath id="clip0_1439_2887">
<rect width="10" height="10" fill="white"/>
</clipPath>
</defs>
</svg>
