<svg width="17" height="17" viewBox="0 0 17 17" fill="none" xmlns="http://www.w3.org/2000/svg">
<g clip-path="url(#clip0_1419_1659)">
<path d="M2.95906 16.5455H14.0409C14.6849 16.5427 15.3016 16.2853 15.7564 15.8294C16.2113 15.3736 16.4674 14.7563 16.4688 14.1124V5.8886C16.4661 5.45266 16.3464 5.02544 16.1221 4.65162C15.8978 4.27779 15.5772 3.9711 15.1937 3.7636L9.66344 0.740788C9.30726 0.546896 8.90819 0.445313 8.50266 0.445312C8.09712 0.445312 7.69805 0.546896 7.34188 0.740788L1.79562 3.74766C1.41222 3.95516 1.09161 4.26185 0.867317 4.63568C0.643023 5.0095 0.523285 5.43672 0.520625 5.87266V14.1124C0.522032 14.7581 0.779558 15.377 1.2367 15.8332C1.69384 16.2893 2.31327 16.5455 2.95906 16.5455ZM8.5 1.50579C8.72812 1.50545 8.95272 1.56206 9.15344 1.67048L14.6997 4.68266C14.9148 4.8018 15.0939 4.97663 15.2182 5.1888C15.3425 5.40098 15.4075 5.64269 15.4062 5.8886V14.1124C15.4062 14.4759 15.2618 14.8245 15.0048 15.0815C14.7478 15.3386 14.3991 15.483 14.0356 15.483H2.95906C2.59647 15.4816 2.24921 15.3365 1.99332 15.0797C1.73742 14.8228 1.59375 14.4749 1.59375 14.1124V5.8886C1.59355 5.64162 1.66009 5.39918 1.78633 5.1869C1.91258 4.97463 2.09383 4.80041 2.31094 4.68266L7.84656 1.67579C8.04679 1.56552 8.27142 1.50708 8.5 1.50579Z" fill="#7966FF"/>
<path d="M8.49969 14.211C9.23915 14.2111 9.95567 13.9542 10.5265 13.4841C11.0974 13.0141 11.487 12.3602 11.6287 11.6344C11.6403 11.5583 11.6352 11.4805 11.6137 11.4066C11.5922 11.3326 11.5549 11.2642 11.5044 11.2061C11.4539 11.148 11.3913 11.1016 11.321 11.07C11.2508 11.0385 11.1745 11.0226 11.0975 11.0235C10.9709 11.0217 10.8479 11.0651 10.7505 11.1459C10.6531 11.2267 10.5878 11.3397 10.5662 11.4644C10.4662 11.942 10.2049 12.3706 9.82612 12.6782C9.44738 12.9858 8.97433 13.1537 8.48641 13.1537C7.99849 13.1537 7.52543 12.9858 7.14669 12.6782C6.76796 12.3706 6.50661 11.942 6.40656 11.4644C6.38506 11.3397 6.31972 11.2267 6.22233 11.1459C6.12493 11.0651 6.00187 11.0217 5.87531 11.0235C5.7983 11.0226 5.72203 11.0385 5.65177 11.07C5.58151 11.1016 5.51895 11.148 5.46841 11.2061C5.41788 11.2642 5.38058 11.3326 5.35911 11.4066C5.33764 11.4805 5.3325 11.5583 5.34406 11.6344C5.48664 12.3647 5.8802 13.0221 6.45653 13.4926C7.03287 13.9632 7.75567 14.2173 8.49969 14.211Z" fill="#7966FF"/>
</g>
<defs>
<clipPath id="clip0_1419_1659">
<rect width="17" height="17" fill="white" transform="matrix(-1 0 0 1 17 0)"/>
</clipPath>
</defs>
</svg>
