<svg height="512" viewBox="0 0 64 64" width="512" xmlns="http://www.w3.org/2000/svg"><g id="outline_final" fill="rgb(0,0,0)" data-name="outline final"><path d="m57 36.83a1 1 0 0 1 -1-1v-16.83a1 1 0 0 1 1-1h2.586l-7.586-7.586-7.586 7.586h2.586a1 1 0 0 1 1 1v13a1 1 0 0 1 -2 0v-12h-4a1 1 0 0 1 -.707-1.707l10-10a1 1 0 0 1 1.414 0l10 10a1 1 0 0 1 -.707 1.707h-4v15.83a1 1 0 0 1 -1 1z"/><path d="m57 63h-10a1 1 0 0 1 0-2h9v-2.83a1 1 0 0 1 2 0v3.83a1 1 0 0 1 -1 1z"/><path d="m17 31a1 1 0 0 1 -1-1v-11a1 1 0 0 1 1-1h2.586l-7.586-7.586-7.586 7.586h2.586a1 1 0 0 1 1 1v11a1 1 0 0 1 -2 0v-10h-4a1 1 0 0 1 -.707-1.707l10-10a1 1 0 0 1 1.414 0l10 10a1 1 0 0 1 -.707 1.707h-4v10a1 1 0 0 1 -1 1z"/><path d="m37 28.68a1 1 0 0 1 -1-1v-15.68a1 1 0 0 1 1-1h2.586l-7.586-7.586-7.586 7.586h2.586a1 1 0 0 1 1 1v11.05a1 1 0 1 1 -2 0v-10.05h-4a1 1 0 0 1 -.707-1.707l10-10a1 1 0 0 1 1.414 0l10 10a1 1 0 0 1 -.707 1.707h-4v14.68a1 1 0 0 1 -1 1z"/><path d="m47 63a15.866 15.866 0 0 1 -8.537-2.477 1 1 0 1 1 1.074-1.687 13.862 13.862 0 0 0 7.463 2.164 14 14 0 1 0 -7.475-25.835 1 1 0 1 1 -1.07-1.689 16 16 0 1 1 8.545 29.524z"/><path d="m42 53a1 1 0 0 1 -.707-1.707l10-10a1 1 0 0 1 1.414 1.414l-10 10a1 1 0 0 1 -.707.293z"/><path d="m43 46a3 3 0 1 1 3-3 3 3 0 0 1 -3 3zm0-4a1 1 0 1 0 1 1 1 1 0 0 0 -1-1z"/><path d="m51 54a3 3 0 1 1 3-3 3 3 0 0 1 -3 3zm0-4a1 1 0 1 0 1 1 1 1 0 0 0 -1-1z"/><path d="m17 35h-15a1 1 0 0 1 -1-1v-4a1 1 0 0 1 1-1h15.75a1 1 0 0 1 0 2h-14.75v2h14a1 1 0 0 1 0 2z"/><path d="m17.75 39h-15.75a1 1 0 0 1 -1-1v-4a1 1 0 0 1 1-1h15a1 1 0 0 1 0 2h-14v2h14.75a1 1 0 0 1 0 2z"/><path d="m20.45 43h-18.45a1 1 0 0 1 -1-1v-4a1 1 0 0 1 1-1h15.75a1 1 0 0 1 0 2h-14.75v2h17.45a1 1 0 0 1 0 2z"/><path d="m24 47h-22a1 1 0 0 1 -1-1v-4a1 1 0 0 1 1-1h18.45a1 1 0 0 1 0 2h-17.45v2h20v-.75a1 1 0 0 1 2 0v1.75a1 1 0 0 1 -1 1z"/><path d="m17 51h-15a1 1 0 0 1 -1-1v-4a1 1 0 0 1 1-1h15a1 1 0 0 1 1 1v4a1 1 0 0 1 -1 1zm-14-2h13v-2h-13z"/><path d="m17 55h-15a1 1 0 0 1 -1-1v-4a1 1 0 0 1 1-1h15a1 1 0 0 1 1 1v4a1 1 0 0 1 -1 1zm-14-2h13v-2h-13z"/><path d="m17 59h-15a1 1 0 0 1 -1-1v-4a1 1 0 0 1 1-1h15a1 1 0 0 1 1 1v4a1 1 0 0 1 -1 1zm-14-2h13v-2h-13z"/><path d="m17 63h-15a1 1 0 0 1 -1-1v-4a1 1 0 0 1 1-1h15a1 1 0 0 1 1 1v4a1 1 0 0 1 -1 1zm-14-2h13v-2h-13z"/><path d="m28 46a12 12 0 1 1 12-12 12.013 12.013 0 0 1 -12 12zm0-22a10 10 0 1 0 10 10 10.012 10.012 0 0 0 -10-10z"/><path d="m28.285 40h-1.035a3.226 3.226 0 0 1 -3.057-2.091 1 1 0 1 1 1.883-.676 1.222 1.222 0 0 0 1.174.767h1.035a1.626 1.626 0 0 0 1.715-1.359 1.317 1.317 0 0 0 -.3-.889 1.565 1.565 0 0 0 -.845-.523l-2.171-.512a3.432 3.432 0 0 1 -2.684-3.31 3.324 3.324 0 0 1 1.053-2.424 3.568 3.568 0 0 1 2.474-.983h1.223a3.226 3.226 0 0 1 3.057 2.091 1 1 0 1 1 -1.883.676 1.222 1.222 0 0 0 -1.174-.767h-1.223a1.579 1.579 0 0 0 -1.1.432 1.342 1.342 0 0 0 -.432.976 1.439 1.439 0 0 0 1.146 1.364l2.171.512a3.568 3.568 0 0 1 1.925 1.2 3.3 3.3 0 0 1 .763 2.23 3.609 3.609 0 0 1 -3.715 3.286z"/><path d="m28 30a1 1 0 0 1 -1-1v-2a1 1 0 0 1 2 0v2a1 1 0 0 1 -1 1z"/><path d="m28 42a1 1 0 0 1 -1-1v-2a1 1 0 0 1 2 0v2a1 1 0 0 1 -1 1z"/><path d="m39 51h-22a1 1 0 0 1 -1-1v-4a1 1 0 0 1 1-1h22a1 1 0 0 1 1 1v4a1 1 0 0 1 -1 1zm-21-2h20v-2h-20z"/><path d="m39 55h-22a1 1 0 0 1 -1-1v-4a1 1 0 0 1 1-1h22a1 1 0 0 1 1 1v4a1 1 0 0 1 -1 1zm-21-2h20v-2h-20z"/><path d="m39 59h-22a1 1 0 0 1 -1-1v-4a1 1 0 0 1 1-1h22a1 1 0 0 1 1 1v4a1 1 0 0 1 -1 1zm-21-2h20v-2h-20z"/><path d="m39 63h-22a1 1 0 0 1 -1-1v-4a1 1 0 0 1 1-1h22a1 1 0 0 1 1 1v4a1 1 0 0 1 -1 1zm-21-2h20v-2h-20z"/></g></svg>