<?xml version="1.0" standalone="no"?>
<!DOCTYPE svg PUBLIC "-//W3C//DTD SVG 20010904//EN"
 "http://www.w3.org/TR/2001/REC-SVG-20010904/DTD/svg10.dtd">
<svg version="1.0" xmlns="http://www.w3.org/2000/svg"
 width="21.000000pt" height="21.000000pt" viewBox="0 0 21.000000 21.000000"
 preserveAspectRatio="xMidYMid meet">
<metadata>
Created by potrace 1.16, written by Peter Selinger 2001-2019
</metadata>
<g transform="translate(0.000000,21.000000) scale(0.100000,-0.100000)"
fill="#000000" stroke="none">
<path d="M38 198 c7 -7 12 -45 12 -98 0 -48 3 -89 6 -93 3 -3 15 -1 25 6 14 9
21 9 30 0 8 -8 18 -9 31 -2 12 6 24 6 37 0 10 -6 21 -7 25 -4 10 10 7 163 -4
184 -9 16 -22 19 -92 19 -64 0 -79 -3 -70 -12z"/>
</g>
</svg>
