<svg width="22" height="22" viewBox="0 0 22 22" fill="none" xmlns="http://www.w3.org/2000/svg">
<path d="M17.7949 1.29688H4.96159C4.74193 1.2994 4.53049 1.38073 4.36576 1.52604C5.01946 1.75603 5.59462 2.16657 6.02455 2.71007C6.45448 3.25357 6.72159 3.90778 6.79492 4.59687C6.80894 4.71869 6.80894 4.84172 6.79492 4.96354V20.5469C6.79449 20.7222 6.84435 20.894 6.93858 21.0418C7.03281 21.1897 7.16747 21.3074 7.32659 21.381C7.48608 21.4545 7.6633 21.4805 7.83717 21.4562C8.01105 21.4318 8.17427 21.358 8.30742 21.2435L10.9199 19.0069L13.5324 21.2435C13.6985 21.3856 13.9098 21.4636 14.1283 21.4636C14.3467 21.4636 14.5581 21.3856 14.7241 21.2435L17.3366 19.0069L19.9491 21.2435C20.1151 21.3855 20.3264 21.4636 20.5449 21.4635C20.6775 21.4626 20.8086 21.4345 20.9299 21.381C21.089 21.3074 21.2237 21.1897 21.3179 21.0418C21.4122 20.894 21.462 20.7222 21.4616 20.5469V4.96354C21.4616 3.99108 21.0753 3.05845 20.3876 2.37082C19.7 1.68318 18.7674 1.29688 17.7949 1.29688ZM16.8783 14.1302H11.3783C11.1351 14.1302 10.902 14.0336 10.7301 13.8617C10.5582 13.6898 10.4616 13.4567 10.4616 13.2135C10.4616 12.9704 10.5582 12.7373 10.7301 12.5654C10.902 12.3934 11.1351 12.2969 11.3783 12.2969H16.8783C17.1214 12.2969 17.3545 12.3934 17.5264 12.5654C17.6983 12.7373 17.7949 12.9704 17.7949 13.2135C17.7949 13.4567 17.6983 13.6898 17.5264 13.8617C17.3545 14.0336 17.1214 14.1302 16.8783 14.1302ZM16.8783 10.4635H11.3783C11.1351 10.4635 10.902 10.367 10.7301 10.1951C10.5582 10.0231 10.4616 9.78999 10.4616 9.54687C10.4616 9.30376 10.5582 9.0706 10.7301 8.89869C10.902 8.72678 11.1351 8.63021 11.3783 8.63021H16.8783C17.1214 8.63021 17.3545 8.72678 17.5264 8.89869C17.6983 9.0706 17.7949 9.30376 17.7949 9.54687C17.7949 9.78999 17.6983 10.0231 17.5264 10.1951C17.3545 10.367 17.1214 10.4635 16.8783 10.4635ZM16.8783 6.79687H11.3783C11.1351 6.79687 10.902 6.7003 10.7301 6.52839C10.5582 6.35648 10.4616 6.12332 10.4616 5.88021C10.4616 5.63709 10.5582 5.40393 10.7301 5.23203C10.902 5.06012 11.1351 4.96354 11.3783 4.96354H16.8783C17.1214 4.96354 17.3545 5.06012 17.5264 5.23203C17.6983 5.40393 17.7949 5.63709 17.7949 5.88021C17.7949 6.12332 17.6983 6.35648 17.5264 6.52839C17.3545 6.7003 17.1214 6.79687 16.8783 6.79687ZM4.96159 4.96354V12.2969H2.21159C1.96847 12.2969 1.73532 12.2003 1.56341 12.0284C1.3915 11.8565 1.29492 11.6233 1.29492 11.3802V4.96354C1.29492 4.83521 1.29492 4.71604 1.29492 4.59687C1.34354 4.11064 1.58333 3.66364 1.96153 3.35421C2.33973 3.04477 2.82536 2.89825 3.31159 2.94687C3.79782 2.9955 4.24482 3.23528 4.55425 3.61348C4.86369 3.99168 5.01021 4.47731 4.96159 4.96354Z" fill="#7966FF"/>
<mask id="mask0_1429_2521" style="mask-type:alpha" maskUnits="userSpaceOnUse" x="1" y="1" width="21" height="21">
<path d="M17.793 1.29688H4.95964C4.73998 1.2994 4.52854 1.38073 4.3638 1.52604C5.01751 1.75603 5.59266 2.16657 6.02259 2.71007C6.45253 3.25357 6.71964 3.90778 6.79297 4.59687C6.80698 4.71869 6.80698 4.84172 6.79297 4.96354V20.5469C6.79253 20.7222 6.84239 20.894 6.93663 21.0418C7.03086 21.1897 7.16552 21.3074 7.32464 21.381C7.48412 21.4545 7.66134 21.4805 7.83522 21.4562C8.0091 21.4318 8.17232 21.358 8.30547 21.2435L10.918 19.0069L13.5305 21.2435C13.6965 21.3856 13.9078 21.4636 14.1263 21.4636C14.3448 21.4636 14.5561 21.3856 14.7221 21.2435L17.3346 19.0069L19.9471 21.2435C20.1132 21.3855 20.3245 21.4636 20.543 21.4635C20.6756 21.4626 20.8066 21.4345 20.928 21.381C21.0871 21.3074 21.2217 21.1897 21.316 21.0418C21.4102 20.894 21.4601 20.7222 21.4596 20.5469V4.96354C21.4596 3.99108 21.0733 3.05845 20.3857 2.37082C19.6981 1.68318 18.7654 1.29688 17.793 1.29688ZM16.8763 14.1302H11.3763C11.1332 14.1302 10.9 14.0336 10.7281 13.8617C10.5562 13.6898 10.4596 13.4567 10.4596 13.2135C10.4596 12.9704 10.5562 12.7373 10.7281 12.5654C10.9 12.3934 11.1332 12.2969 11.3763 12.2969H16.8763C17.1194 12.2969 17.3526 12.3934 17.5245 12.5654C17.6964 12.7373 17.793 12.9704 17.793 13.2135C17.793 13.4567 17.6964 13.6898 17.5245 13.8617C17.3526 14.0336 17.1194 14.1302 16.8763 14.1302ZM16.8763 10.4635H11.3763C11.1332 10.4635 10.9 10.367 10.7281 10.1951C10.5562 10.0231 10.4596 9.78999 10.4596 9.54687C10.4596 9.30376 10.5562 9.0706 10.7281 8.89869C10.9 8.72678 11.1332 8.63021 11.3763 8.63021H16.8763C17.1194 8.63021 17.3526 8.72678 17.5245 8.89869C17.6964 9.0706 17.793 9.30376 17.793 9.54687C17.793 9.78999 17.6964 10.0231 17.5245 10.1951C17.3526 10.367 17.1194 10.4635 16.8763 10.4635ZM16.8763 6.79687H11.3763C11.1332 6.79687 10.9 6.7003 10.7281 6.52839C10.5562 6.35648 10.4596 6.12332 10.4596 5.88021C10.4596 5.63709 10.5562 5.40393 10.7281 5.23203C10.9 5.06012 11.1332 4.96354 11.3763 4.96354H16.8763C17.1194 4.96354 17.3526 5.06012 17.5245 5.23203C17.6964 5.40393 17.793 5.63709 17.793 5.88021C17.793 6.12332 17.6964 6.35648 17.5245 6.52839C17.3526 6.7003 17.1194 6.79687 16.8763 6.79687ZM4.95964 4.96354V12.2969H2.20964C1.96652 12.2969 1.73336 12.2003 1.56145 12.0284C1.38955 11.8565 1.29297 11.6233 1.29297 11.3802V4.96354C1.29297 4.83521 1.29297 4.71604 1.29297 4.59687C1.34159 4.11064 1.58138 3.66364 1.95958 3.35421C2.33777 3.04477 2.82341 2.89825 3.30964 2.94687C3.79587 2.9955 4.24287 3.23528 4.5523 3.61348C4.86174 3.99168 5.00826 4.47731 4.95964 4.96354Z" fill="#7966FF"/>
</mask>
<g mask="url(#mask0_1429_2521)">
<rect x="1.2207" y="2.44531" width="3.66667" height="19.5556" fill="#C9C2FF"/>
</g>
</svg>
