<svg width="13" height="13" viewBox="0 0 13 13" fill="none" xmlns="http://www.w3.org/2000/svg">
<g clip-path="url(#clip0_1407_1351)">
<path d="M12.2122 6.07032L9.91405 3.77224C9.85746 3.71565 9.79029 3.67076 9.71635 3.64014C9.64242 3.60951 9.56317 3.59375 9.48315 3.59375C9.40312 3.59375 9.32387 3.60951 9.24994 3.64014C9.17601 3.67076 9.10883 3.71565 9.05224 3.77224C8.93796 3.88652 8.87376 4.04152 8.87376 4.20313C8.87376 4.36475 8.93796 4.51975 9.05224 4.63403L10.3101 5.89185H3.65625C3.49463 5.89185 3.33964 5.95605 3.22536 6.07033C3.11108 6.18461 3.04688 6.33961 3.04688 6.50123C3.04688 6.66284 3.11108 6.81784 3.22536 6.93212C3.33964 7.0464 3.49463 7.1106 3.65625 7.1106H10.3101L9.05224 8.36843C8.93796 8.48271 8.87376 8.63771 8.87376 8.79933C8.87377 8.96095 8.93797 9.11594 9.05225 9.23022C9.16654 9.3445 9.32154 9.4087 9.48315 9.4087C9.64477 9.4087 9.79977 9.34449 9.91405 9.23021L12.2122 6.93211C12.3264 6.81783 12.3906 6.66283 12.3906 6.50121C12.3906 6.3396 12.3264 6.1846 12.2122 6.07032Z" fill="#6A6A6A"/>
<path d="M7.71875 9.95312C7.55713 9.95312 7.40214 10.0173 7.28786 10.1316C7.17358 10.2459 7.10938 10.4009 7.10938 10.5625V11.1719H1.82812V1.82812H7.10938V2.4375C7.10938 2.59912 7.17358 2.75411 7.28786 2.86839C7.40214 2.98267 7.55713 3.04688 7.71875 3.04688C7.88037 3.04688 8.03536 2.98267 8.14964 2.86839C8.26392 2.75411 8.32812 2.59912 8.32812 2.4375V1.625C8.32812 1.49163 8.30185 1.35956 8.25081 1.23634C8.19977 1.11312 8.12496 1.00115 8.03066 0.906845C7.93635 0.812535 7.82438 0.737725 7.70116 0.686685C7.57794 0.635645 7.44587 0.609375 7.3125 0.609375H1.625C1.35564 0.609375 1.09731 0.716378 0.906845 0.906845C0.716378 1.09731 0.609375 1.35564 0.609375 1.625V11.375C0.609375 11.6444 0.716378 11.9027 0.906845 12.0932C1.09731 12.2836 1.35564 12.3906 1.625 12.3906H7.3125C7.44587 12.3906 7.57794 12.3644 7.70116 12.3133C7.82438 12.2623 7.93635 12.1875 8.03066 12.0932C8.12496 11.9988 8.19977 11.8869 8.25081 11.7637C8.30185 11.6404 8.32812 11.5084 8.32812 11.375V10.5625C8.32812 10.4009 8.26392 10.2459 8.14964 10.1316C8.03536 10.0173 7.88037 9.95312 7.71875 9.95312Z" fill="#6A6A6A"/>
</g>
<defs>
<clipPath id="clip0_1407_1351">
<rect width="13" height="13" fill="white"/>
</clipPath>
</defs>
</svg>
