<svg width="12" height="12" viewBox="0 0 12 12" fill="none" xmlns="http://www.w3.org/2000/svg">
<path d="M10.9453 1.78125H1.05469C0.471961 1.78125 0 2.25614 0 2.83594V9.16406C0 9.7473 0.47543 10.2188 1.05469 10.2188H10.9453C11.5232 10.2188 12 9.7493 12 9.16406V2.83594C12 2.25717 11.5299 1.78125 10.9453 1.78125ZM10.7976 2.48438C10.5821 2.69871 6.87382 6.38749 6.74578 6.51485C6.54656 6.71407 6.28172 6.82376 6 6.82376C5.71828 6.82376 5.45344 6.71405 5.25356 6.5142C5.16745 6.42853 1.50007 2.78048 1.20239 2.48438H10.7976ZM0.703125 9.02095V2.97949L3.74152 6.00187L0.703125 9.02095ZM1.20284 9.51562L4.24003 6.49774L4.75704 7.01203C5.08905 7.34405 5.53048 7.52688 6 7.52688C6.46952 7.52688 6.91095 7.34405 7.2423 7.01269L7.75997 6.49774L10.7972 9.51562H1.20284ZM11.2969 9.02095L8.25848 6.00187L11.2969 2.97949V9.02095Z" fill="#292929"/>
</svg>
