<svg id="svg6" clip-rule="evenodd" fill-rule="evenodd" height="512" stroke-linejoin="round" stroke-miterlimit="2" viewBox="0 0 24 24" width="512" xmlns="http://www.w3.org/2000/svg" xmlns:svg="http://www.w3.org/2000/svg"><path id="path2" d="m10 13v2c0 .388-.224.741-.576.906-.351.164-.766.111-1.064-.138l-6-5c-.228-.19-.36-.471-.36-.768s.132-.578.36-.768l6-5c.298-.249.713-.302 1.064-.138.352.165.576.518.576.906v2h1c.552 0 1 .448 1 1s-.448 1-1 1h-2c-.552 0-1-.448-1-1v-.865l-3.438 2.865 3.438 2.865v-.865c0-.552.448-1 1-1h5v-2c0-.388.224-.741.576-.906.351-.164.766-.111 1.064.138l6 5c.228.19.36.471.36.768s-.132.578-.36.768l-6 5c-.298.249-.713.302-1.064.138-.352-.165-.576-.518-.576-.906v-2h-1c-.552 0-1-.448-1-1s.448-1 1-1h2c.552 0 1 .448 1 1v.865l3.438-2.865-3.438-2.865v.865c0 .552-.448 1-1 1z"/></svg>