<svg height="512" viewBox="0 0 24 24" width="512" xmlns="http://www.w3.org/2000/svg"><path d="m19 1h-14a4 4 0 0 0 -4 4v7a1 1 0 0 0 1 1h5v9a1 1 0 0 0 .58.91 1 1 0 0 0 1.07-.15l2.85-2.44 2.85 2.44a1 1 0 0 0 1.3 0l2.85-2.44 2.85 2.44a1 1 0 0 0 .65.24 1.06 1.06 0 0 0 .42-.09 1 1 0 0 0 .58-.91v-17a4 4 0 0 0 -4-4zm-16 10v-6a2 2 0 0 1 4 0v6zm18 8.83-1.85-1.59a1 1 0 0 0 -1.3 0l-2.85 2.44-2.85-2.44a1 1 0 0 0 -1.3 0l-1.85 1.59v-14.83a4 4 0 0 0 -.54-2h10.54a2 2 0 0 1 2 2zm-2-13.83a1 1 0 0 1 -1 1h-6a1 1 0 0 1 0-2h6a1 1 0 0 1 1 1zm0 4a1 1 0 0 1 -1 1h-6a1 1 0 0 1 0-2h6a1 1 0 0 1 1 1zm0 4a1 1 0 0 1 -1 1h-6a1 1 0 0 1 0-2h6a1 1 0 0 1 1 1z"/></svg>