<svg width="16" height="15" viewBox="0 0 16 15" fill="none" xmlns="http://www.w3.org/2000/svg">
<g clip-path="url(#clip0_1429_2038)" filter="url(#filter0_d_1429_2038)">
<path d="M11.5 7.00001H4.5C4.22385 7.00001 4 6.77614 4 6.5C4 6.22387 4.22385 6 4.5 6H11.5C11.7762 6 12 6.22387 12 6.5C12 6.77614 11.7762 7.00001 11.5 7.00001Z" fill="#555555"/>
<path d="M11.5 4.49999H4.5C4.22385 4.49999 4 4.27614 4 4C4 3.72387 4.22385 3.5 4.5 3.5H11.5C11.7762 3.5 12 3.72385 12 4C12 4.27616 11.7762 4.49999 11.5 4.49999Z" fill="#555555"/>
<path d="M11.5 2.00001H4.5C4.22385 2.00001 4 1.77616 4 1.5C4 1.22385 4.22385 1 4.5 1H11.5C11.7762 1 12 1.22385 12 1.5C12 1.77616 11.7762 2.00001 11.5 2.00001Z" fill="#555555"/>
</g>
<defs>
<filter id="filter0_d_1429_2038" x="0" y="0" width="16" height="16" filterUnits="userSpaceOnUse" color-interpolation-filters="sRGB">
<feFlood flood-opacity="0" result="BackgroundImageFix"/>
<feColorMatrix in="SourceAlpha" type="matrix" values="0 0 0 0 0 0 0 0 0 0 0 0 0 0 0 0 0 0 127 0" result="hardAlpha"/>
<feOffset dy="4"/>
<feGaussianBlur stdDeviation="2"/>
<feComposite in2="hardAlpha" operator="out"/>
<feColorMatrix type="matrix" values="0 0 0 0 0 0 0 0 0 0 0 0 0 0 0 0 0 0 0.25 0"/>
<feBlend mode="normal" in2="BackgroundImageFix" result="effect1_dropShadow_1429_2038"/>
<feBlend mode="normal" in="SourceGraphic" in2="effect1_dropShadow_1429_2038" result="shape"/>
</filter>
<clipPath id="clip0_1429_2038">
<rect width="8" height="8" fill="white" transform="translate(4)"/>
</clipPath>
</defs>
</svg>
