<svg height="512" viewBox="0 0 96 96" width="512" xmlns="http://www.w3.org/2000/svg"><g id="Layer_4"><g fill="rgb(0,0,0)"><path d="m29.828 61.281c1.695 0 3.35-.168 4.954-.48v21.2c0 5.52 4.328 10.013 9.647 10.013h37.924c5.32 0 9.647-4.491 9.647-10.013v-68.378c0-5.404-4.238-9.637-9.647-9.637h-37.924c-4.149 0-7.692 2.594-9.098 6.232-1.774-.385-3.614-.594-5.503-.594-14.264.001-25.828 11.565-25.828 25.829s11.564 25.828 25.828 25.828zm14.601-51.007h37.924c1.915 0 3.36 1.44 3.36 3.35v68.378c0 2.019-1.539 3.725-3.36 3.725h-37.924c-1.821 0-3.36-1.706-3.36-3.725 0 0-.023-23.073-.059-23.261 7.62-3.666 13.159-10.964 14.385-19.648.246.061 20.257.104 20.257.104 1.736 0 3.144-1.407 3.144-3.144 0-1.736-1.407-3.144-3.144-3.144 0 0-19.915.022-20.117.063-.278-2.915-1.044-5.686-2.209-8.237h22.326c1.736 0 3.144-1.407 3.144-3.144s-1.407-3.144-3.144-3.144h-24.522c-.554 0-1.066.156-1.519.407-2.289-2.725-5.13-4.97-8.351-6.563.532-1.197 1.733-2.017 3.169-2.017zm-14.601 5.639c10.775 0 19.54 8.766 19.54 19.54s-8.766 19.54-19.54 19.54-19.54-8.766-19.54-19.54 8.766-19.54 19.54-19.54z"/><path d="m29.811 39.826h9.373c1.736 0 3.144-1.407 3.144-3.144s-1.407-3.144-3.144-3.144h-7.545v-8.174c0-1.736-1.407-3.144-3.144-3.144-1.736 0-3.144 1.407-3.144 3.144v10.267c0 2.313 2 4.195 4.46 4.195z"/><path d="m64.15 59.796h-1.625c-.875 0-1.587-.712-1.587-1.586 0-.875.712-1.587 1.587-1.587h5.409c1.736 0 3.144-1.407 3.144-3.144 0-1.736-1.407-3.144-3.144-3.144h-1.453v-2.963c0-1.736-1.407-3.144-3.144-3.144-1.736 0-3.144 1.407-3.144 3.144v3.316c-3.207.997-5.543 3.992-5.543 7.522 0 4.342 3.533 7.875 7.875 7.875h1.625c.875 0 1.587.712 1.587 1.587s-.712 1.587-1.587 1.587h-5.409c-1.736 0-3.144 1.407-3.144 3.144s1.407 3.144 3.144 3.144h1.453v3.263c0 1.736 1.407 3.144 3.144 3.144s3.144-1.407 3.144-3.144v-3.617c3.207-.997 5.543-3.992 5.543-7.522.001-4.343-3.532-7.875-7.875-7.875z"/></g></g></svg>