<svg width="15" height="15" viewBox="0 0 15 15" fill="none" xmlns="http://www.w3.org/2000/svg">
<g clip-path="url(#clip0_1429_2357)">
<path d="M14.2383 9.00051C14.2383 9.98558 12.729 10.5006 11.2382 10.5006C9.74734 10.5006 8.23824 9.98558 8.23824 9.00051C8.23824 7.03108 14.2383 7.03108 14.2383 9.00051Z" fill="#7966FF"/>
<path d="M4.52214 3.22009C4.58284 3.08606 4.71633 2.99995 4.8634 2.99995H5.9884V0.375046C5.9884 0.275482 6.02782 0.180176 6.09813 0.109726C6.16858 0.0394135 6.26389 0 6.36345 0H8.61345C8.71288 0 8.80832 0.0394135 8.87863 0.109726C8.94895 0.180176 8.9885 0.275482 8.98836 0.375046V2.99995H10.1134C10.2604 3.00009 10.3939 3.0862 10.4548 3.22009C10.5155 3.35399 10.4925 3.51109 10.3957 3.62178L7.7708 6.62187C7.69953 6.70331 7.59667 6.75 7.48845 6.75C7.38024 6.75 7.27724 6.70331 7.2061 6.62187L4.58106 3.62178C4.48424 3.51109 4.46117 3.35399 4.52214 3.22009Z" fill="#7966FF"/>
<path d="M11.2382 11.252C12.3707 11.252 13.5067 10.9939 14.2272 10.4453C14.2284 10.4651 14.2383 10.4818 14.2383 10.502C14.2383 11.4871 12.729 12.0019 11.2382 12.0019C9.74734 12.0019 8.23824 11.4871 8.23824 10.502C8.23824 10.4818 8.24799 10.4651 8.24922 10.4453C8.96979 10.9939 10.1058 11.252 11.2382 11.252Z" fill="#7966FF"/>
<path d="M11.2382 12.752C12.3707 12.752 13.5067 12.4939 14.2272 11.9453C14.2284 11.965 14.2383 11.9818 14.2383 12.0019C14.2383 12.9871 12.729 13.5019 11.2382 13.5019C9.74734 13.5019 8.23824 12.9871 8.23824 12.0019C8.23824 11.9818 8.24799 11.965 8.24922 11.9453C8.96979 12.4939 10.1058 12.752 11.2382 12.752Z" fill="#7966FF"/>
<path d="M11.2382 14.252C12.3707 14.252 13.5067 13.9939 14.2272 13.4453C14.2284 13.4651 14.2383 13.4818 14.2383 13.502C14.2383 14.4871 12.729 15.0021 11.2382 15.0021C9.74734 15.0021 8.23824 14.4871 8.23824 13.502C8.23824 13.4818 8.24799 13.4651 8.24922 13.4453C8.96979 13.9939 10.1058 14.252 11.2382 14.252Z" fill="#7966FF"/>
<path d="M6.73828 9.00051C6.73828 9.98558 5.22917 10.5006 3.73833 10.5006C2.24748 10.5006 0.738373 9.98558 0.738373 9.00051C0.738373 7.03108 6.73828 7.03108 6.73828 9.00051Z" fill="#7966FF"/>
<path d="M3.73833 11.252C4.87088 11.252 6.00687 10.9939 6.72729 10.4453C6.72853 10.4651 6.73828 10.4818 6.73828 10.502C6.73828 11.4871 5.22917 12.0019 3.73833 12.0019C2.24748 12.0019 0.738373 11.4871 0.738373 10.502C0.738373 10.4818 0.748124 10.4651 0.74936 10.4453C1.46979 10.9939 2.60577 11.252 3.73833 11.252Z" fill="#7966FF"/>
<path d="M3.73833 12.752C4.87088 12.752 6.00687 12.4939 6.72729 11.9453C6.72853 11.965 6.73828 11.9818 6.73828 12.0019C6.73828 12.9871 5.22917 13.5019 3.73833 13.5019C2.24748 13.5019 0.738373 12.9871 0.738373 12.0019C0.738373 11.9818 0.748124 11.965 0.74936 11.9453C1.46979 12.4939 2.60577 12.752 3.73833 12.752Z" fill="#7966FF"/>
<path d="M3.73833 14.252C4.87088 14.252 6.00687 13.9939 6.72729 13.4453C6.72853 13.4651 6.73828 13.4818 6.73828 13.502C6.73828 14.4871 5.22917 15.0021 3.73833 15.0021C2.24748 15.0021 0.738373 14.4871 0.738373 13.502C0.738373 13.4818 0.748124 13.4651 0.74936 13.4453C1.46979 13.9939 2.60577 14.252 3.73833 14.252Z" fill="#7966FF"/>
</g>
<defs>
<clipPath id="clip0_1429_2357">
<rect width="15" height="15" fill="white" transform="matrix(-1 0 0 1 15 0)"/>
</clipPath>
</defs>
</svg>
