<svg width="14" height="14" viewBox="0 0 14 14" fill="none" xmlns="http://www.w3.org/2000/svg">
<g clip-path="url(#clip0_1436_2737)">
<path d="M11.426 12.9297H2.36719V13.9591H11.426V12.9297Z" fill="#292929"/>
<path d="M8.52662 4.64062H5.35261C5.06832 4.64062 4.83789 4.87105 4.83789 5.15534C4.83789 5.43964 5.06832 5.67006 5.35261 5.67006H8.52662C8.81091 5.67006 9.04134 5.43964 9.04134 5.15534C9.04134 4.87105 8.81091 4.64062 8.52662 4.64062Z" fill="#292929"/>
<path d="M10.9286 7.03906H5.35261C5.06832 7.03906 4.83789 7.26949 4.83789 7.55378C4.83789 7.83807 5.06832 8.0685 5.35261 8.0685H10.9286C11.2129 8.0685 11.4433 7.83807 11.4433 7.55378C11.4433 7.26949 11.2129 7.03906 10.9286 7.03906Z" fill="#292929"/>
<path d="M13.6967 0.101748C13.5119 0.0187051 13.2959 0.0514902 13.1442 0.185475L11.7029 1.46057L10.2598 0.170189C10.0644 -0.00464649 9.76896 -0.00464649 9.57354 0.170189L8.13236 1.45901L6.69102 0.170189C6.49559 -0.00464649 6.20033 -0.00464649 6.00491 0.170189L4.56184 1.46057L3.1205 0.185475C2.96901 0.0516543 2.75283 0.0188691 2.56804 0.101748C2.38345 0.184955 2.26472 0.368541 2.26472 0.570994V9.73276H0.514719C0.230426 9.73274 0 9.96316 0 10.2475V11.4999C0 12.8527 1.10061 13.9533 2.45342 13.9533V12.9239C1.66816 12.9239 1.02941 12.285 1.02941 11.4999V10.7622H9.09314V11.4999C9.09314 12.8527 10.1937 13.9534 11.5466 13.9534C12.8994 13.9534 14 12.8527 14 11.4999V0.570967C14 0.368514 13.8813 0.184955 13.6967 0.101748ZM12.9706 11.4999C12.9706 12.285 12.3317 12.9239 11.5466 12.9239C10.7615 12.9239 10.1226 12.285 10.1226 11.4999V10.2475C10.1226 9.96316 9.89215 9.73274 9.60785 9.73274H3.29413V1.71344L4.22283 2.5351C4.41842 2.70805 4.71248 2.70717 4.90686 2.53321L6.34804 1.24439L7.78922 2.53305C7.98465 2.70788 8.28007 2.70788 8.4755 2.53305L9.91684 1.24422L11.358 2.53305C11.5526 2.70701 11.8467 2.70769 12.0421 2.53493L12.9706 1.71347V11.4999Z" fill="#292929"/>
</g>
<defs>
<clipPath id="clip0_1436_2737">
<rect width="14" height="14" fill="white"/>
</clipPath>
</defs>
</svg>
