<?xml version="1.0" standalone="no"?>
<!DOCTYPE svg PUBLIC "-//W3C//DTD SVG 20010904//EN"
 "http://www.w3.org/TR/2001/REC-SVG-20010904/DTD/svg10.dtd">
<svg version="1.0" xmlns="http://www.w3.org/2000/svg"
 width="17.000000pt" height="17.000000pt" viewBox="0 0 17.000000 17.000000"
 preserveAspectRatio="xMidYMid meet">
<metadata>
Created by potrace 1.16, written by Peter Selinger 2001-2019
</metadata>
<g transform="translate(0.000000,17.000000) scale(0.100000,-0.100000)"
fill="#000000" stroke="none">
<path d="M58 137 c-62 -34 -74 -61 -36 -77 13 -5 17 -9 10 -9 -8 -1 -12 -10
-10 -23 3 -21 9 -23 76 -26 70 -3 72 -2 72 21 0 12 -5 28 -12 35 -9 9 -9 12 0
12 7 0 12 11 12 25 0 18 -5 25 -18 25 -13 0 -18 7 -18 21 1 32 -13 32 -76 -4z"/>
</g>
</svg>
