<svg width="13" height="13" viewBox="0 0 13 13" fill="none" xmlns="http://www.w3.org/2000/svg">
<path d="M6.50008 6.35785C7.94546 6.35785 9.11728 4.93461 9.11728 3.17895C9.11728 1.42324 8.73255 0 6.50008 0C4.26761 0 3.88281 1.42324 3.88281 3.17895C3.88281 4.93461 5.05463 6.35785 6.50008 6.35785Z" fill="#7966FF"/>
<path d="M11.4357 11.0831C11.3872 8.02469 10.9878 7.15321 7.93119 6.60156C7.93119 6.60156 7.50092 7.14983 6.49807 7.14983C5.49521 7.14983 5.06487 6.60156 5.06487 6.60156C2.04163 7.14719 1.6179 8.00575 1.56219 10.9837C1.55762 11.2269 1.5555 11.2397 1.55469 11.2115C1.55487 11.2644 1.5551 11.3622 1.5551 11.5328C1.5551 11.5328 2.2828 12.9998 6.49807 12.9998C10.7133 12.9998 11.441 11.5328 11.441 11.5328C11.441 11.4232 11.4411 11.347 11.4412 11.2951C11.4404 11.3126 11.4388 11.2787 11.4357 11.0831Z" fill="#7966FF"/>
</svg>
