<svg width="208" height="208" viewBox="0 0 208 208" fill="none" xmlns="http://www.w3.org/2000/svg">
<circle cx="104" cy="104" r="104" fill="white"/>
<circle cx="104" cy="104" r="95" fill="#F2F0FF"/>
<mask id="mask0_1058_5986" style="mask-type:alpha" maskUnits="userSpaceOnUse" x="9" y="9" width="190" height="190">
<circle cx="104" cy="104" r="95" fill="white"/>
</mask>
<g mask="url(#mask0_1058_5986)">
<path d="M91.1642 127.567C89.5861 126.731 84.7209 125.818 84.0512 124.163C83.5125 122.833 84.1033 121.057 83.0829 120.048C81.9708 118.947 80.1859 119.155 78.622 119.204C77.0598 119.253 75.4233 119.989 74.7251 121.389C73.9669 122.91 74.4787 124.747 75.1848 126.292C75.2859 126.511 75.3933 126.736 75.5655 126.906C75.7629 127.102 76.0299 127.208 76.2889 127.309C78.5525 128.175 80.9235 128.838 82.9707 130.132C84.2597 130.947 86.7965 131.603 87.9149 132.639C89.2228 131.234 91.6807 129.413 91.1642 127.567Z" fill="#FFB092"/>
<path d="M86.1938 83.4476C106.876 79.7639 132.134 121.677 131.022 128.756C129.557 138.071 119.244 143.893 109.82 143.563C100.396 143.231 89.6895 135.281 81.6855 130.293C82.4817 127.552 83.5779 126.465 85.1275 124.071C91.555 123.999 112.981 126.786 112.981 126.786C112.981 126.786 83.8544 83.8646 86.1938 83.4476Z" fill="#2D305E"/>
<path d="M112.881 161.64C112.881 161.64 106.736 313.283 105.777 314.559C104.85 315.796 102.571 315.984 101.561 315.486C101.53 315.47 101.497 315.453 101.463 315.437C100.975 315.153 89.452 277.556 79.1103 239.564C76.0742 228.407 73.1377 217.21 70.6072 206.924C64.7231 182.958 61.0868 163.884 63.5842 161.532C65.8304 159.425 71.3954 158.627 78.0203 158.537C78.7612 158.529 79.4846 158.529 80.2018 158.537C94.709 158.645 112.881 161.64 112.881 161.64Z" fill="#1D2149"/>
<path d="M87.298 208.218C84.848 218.146 82.0252 228.871 79.1108 239.564C68.7675 277.558 57.2458 315.153 56.7577 315.437C56.5871 315.535 56.3754 315.608 56.14 315.665C55.009 315.9 53.2351 315.616 52.4453 314.557C51.4849 313.279 45.3418 161.638 45.3418 161.638C45.3418 161.638 63.5137 158.643 78.0225 158.537C78.7633 158.529 79.4868 158.529 80.2039 158.537C86.8272 158.627 92.3938 159.423 94.6321 161.532C97.1769 163.933 93.3605 183.651 87.298 208.218Z" fill="#2D305E"/>
<path d="M107.455 163.588C73.5134 188.524 49.7291 176.969 44.5259 161.952C33.8967 131.272 53.0858 83.6674 75.4453 80.0611C98.1443 76.3996 118.738 146.005 107.455 163.588Z" fill="#7966FF"/>
<path opacity="0.1" d="M106.003 164.067C98.1237 168.574 82.228 171.117 68.1426 170.425C79.2978 168.781 97.5029 166.181 100.294 152.843C100.861 150.105 101.607 147.437 101.924 144.673C103.003 135.383 104.164 104.462 104.758 99.3047C106.292 107.972 107.979 118.976 108.104 121.091C108.409 126.136 108.712 131.196 109.017 136.255C109.044 136.697 109.086 137.14 109.127 137.596C109.983 147.023 113.91 159.546 106.003 164.067Z" fill="black"/>
<path opacity="0.1" d="M87.9521 125.76C87.911 125.995 87.8684 126.243 87.7436 126.452C87.6062 126.687 87.3708 126.866 87.1497 127.033C85.1862 128.444 83.0711 129.701 81.4267 131.485C80.8881 132.052 80.4174 132.674 79.9751 133.309C80.3621 133.821 80.7206 134.345 81.0666 134.912C74.6249 141.796 67.5893 148.736 58.5634 151.486C53.477 153.034 47.6151 152.757 42.7783 150.671C41.0786 136.806 40.9254 121.228 43.9124 107.294C44.2584 105.663 44.3958 104.073 44.4937 102.525C44.549 102.415 44.6312 102.304 44.7007 102.194C47.2849 98.3932 50.5753 94.9781 54.4327 92.5312C53.9351 93.2231 53.4786 94.024 53.1342 94.9781C52.2907 97.7013 51.1439 100.203 49.9955 102.816C49.5675 103.756 49.3037 104.682 49.1805 105.58C47.6593 108.386 46.1255 111.191 44.7433 114.082C44.6596 114.221 44.5632 114.346 44.4953 114.497C44.3437 114.815 44.2047 115.134 44.053 115.437C43.8603 115.853 43.7071 116.24 43.5697 116.639C43.4307 116.944 43.2932 117.233 43.1684 117.551C43.2095 117.537 43.2506 117.537 43.2932 117.524C41.731 123.689 46.5836 128.196 51.6557 128.347C51.8769 131.527 54.0188 134.568 56.9364 136.005C60.53 137.775 64.9545 137.332 68.5055 135.494C71.3393 134.042 74.1321 131.527 75.6248 128.72C75.9976 129.066 76.3577 129.398 76.7163 129.73C77.1997 128.569 77.187 127.117 77.3529 125.817C77.5188 124.394 77.9895 123.01 78.7208 121.767C79.5091 120.411 81.2925 120.149 82.8121 119.803C84.3316 119.443 86.1024 119.734 87.1386 120.909C88.257 122.181 88.2428 124.087 87.9521 125.76Z" fill="black"/>
<path d="M71.5548 124.318C72.8643 123.103 77.3299 120.966 77.5495 119.194C77.7264 117.771 76.698 116.207 77.4231 114.968C78.2129 113.618 79.99 113.359 81.5159 113.002C83.0386 112.646 84.8094 112.935 85.8456 114.107C86.9703 115.381 86.9513 117.287 86.6654 118.963C86.6243 119.202 86.5785 119.445 86.4553 119.655C86.3147 119.895 86.0841 120.066 85.8598 120.23C83.8963 121.65 81.7765 122.903 80.1321 124.681C79.0975 125.801 76.8149 127.089 76.003 128.379C74.3776 127.36 71.5327 126.236 71.5548 124.318Z" fill="#FFB092"/>
<path d="M66.5069 84.0475C45.5754 85.8246 30.4553 129.207 33.3571 135.758C37.175 144.379 48.6414 147.344 57.661 144.594C66.6806 141.843 74.9736 131.398 81.4184 124.514C79.9431 122.072 78.6036 121.304 76.4869 119.39C70.2585 120.979 50.2763 129.199 50.2763 129.199C50.2763 129.199 68.8731 83.8469 66.5069 84.0475Z" fill="#2D305E"/>
<path d="M80.6572 95.8471L69.8005 94.9609C69.8005 94.9609 65.1074 95.1758 65.1074 102.251C65.1074 107.269 71.7639 105.912 69.8005 117.393C69.8005 117.393 84.8147 112.048 94.8326 117.393C99.2492 112.697 91.7413 97.4457 80.6572 95.8471Z" fill="url(#paint0_linear_1058_5986)"/>
<path opacity="0.35" d="M80.6593 95.8415L76.1922 95.4766C78.6406 98.1745 80.4113 101.463 80.9042 105.098C81.1585 106.976 81.1948 108.979 80.4571 110.758C79.7495 112.464 78.4921 113.721 77.0231 114.8C76.3865 115.268 75.6267 115.601 74.9316 116.012C80.2044 114.9 88.51 114.013 94.8348 117.387C99.2514 112.691 91.7435 97.44 80.6593 95.8415Z" fill="#5745D3"/>
<path d="M69.8008 94.9611C85.4453 97.5848 91.8222 109.443 93.7146 119.805C96.0729 132.826 93.7146 194.97 101.388 219.849C104.644 230.377 115.006 234.297 124.438 238.25C137.326 243.597 148.453 248.912 137.525 270.768C118.559 308.633 148.752 311.588 148.752 311.588L219.199 307.468C219.199 307.468 203.82 273.723 219.199 258.908C234.577 244.127 200.268 234.628 187.845 221.608C175.456 208.588 186.65 161.258 187.812 126.315C189.008 91.407 157.056 94.9611 157.056 94.9611H69.8008V94.9611Z" fill="url(#paint1_linear_1058_5986)"/>
<path opacity="0.1" d="M99.549 103.953H172.472C173.695 103.953 174.685 104.944 174.685 106.165C174.685 107.387 173.695 108.378 172.472 108.378H99.549C98.3279 108.378 97.3359 107.387 97.3359 106.165C97.3375 104.945 98.3279 103.953 99.549 103.953Z" fill="url(#paint2_linear_1058_5986)"/>
<path opacity="0.1" d="M103.654 116.031H176.577C177.8 116.031 178.79 117.022 178.79 118.244C178.79 119.467 177.8 120.457 176.577 120.457H103.654C102.432 120.457 101.441 119.467 101.441 118.244C101.443 117.022 102.433 116.031 103.654 116.031Z" fill="#7966FF"/>
<path d="M145.725 141.773H171.239C172.381 141.773 173.307 142.699 173.307 143.841C173.307 144.983 172.381 145.907 171.239 145.907H145.667C144.491 145.907 143.545 144.928 143.602 143.74C143.654 142.63 144.611 141.773 145.725 141.773Z" fill="url(#paint3_linear_1058_5986)" fill-opacity="0.1"/>
<path d="M145.725 153.469H171.239C172.381 153.469 173.307 154.394 173.307 155.536C173.307 156.679 172.381 157.604 171.239 157.604H145.667C144.491 157.604 143.545 156.623 143.602 155.437C143.654 154.323 144.611 153.469 145.725 153.469Z" fill="url(#paint4_linear_1058_5986)" fill-opacity="0.1"/>
<path opacity="0.1" d="M104.748 180.969H175.276C176.458 180.969 177.416 181.926 177.416 183.108C177.416 184.289 176.459 185.248 175.276 185.248H104.748C103.566 185.248 102.607 184.291 102.607 183.108C102.609 181.928 103.566 180.969 104.748 180.969Z" fill="url(#paint5_linear_1058_5986)"/>
<path d="M106.689 198.328H175.333C176.483 198.328 177.415 199.26 177.415 200.41C177.415 201.56 176.483 202.494 175.333 202.494H106.689C105.539 202.494 104.607 201.562 104.607 200.41C104.606 199.26 105.538 198.328 106.689 198.328Z" fill="url(#paint6_linear_1058_5986)" fill-opacity="0.1"/>
<path d="M138.252 150.148C138.231 159.179 130.894 166.483 121.863 166.462C112.832 166.442 105.528 159.104 105.549 150.072C105.569 141.041 112.907 133.737 121.937 133.758C130.966 133.778 138.272 141.116 138.252 150.148Z" fill="#7966FF"/>
<path d="M137.486 150.32C137.465 159.35 130.128 166.655 121.098 166.634C112.067 166.614 104.763 159.276 104.783 150.246C104.804 141.215 112.141 133.909 121.172 133.93C130.202 133.95 137.507 141.289 137.486 150.32Z" fill="#5947D8"/>
<path d="M136.381 150.306C136.362 158.727 129.519 165.538 121.098 165.52C112.677 165.501 105.866 158.658 105.885 150.237C105.904 141.816 112.747 135.005 121.168 135.023C129.589 135.044 136.4 141.885 136.381 150.306Z" fill="#7966FF"/>
<path d="M135.704 150.313C135.703 150.942 135.663 151.561 135.581 152.167C135.019 156.527 132.531 160.277 128.994 162.549C126.716 164.007 124.007 164.853 121.101 164.847C113.056 164.828 106.549 158.293 106.568 150.248C106.572 148.613 106.843 147.046 107.347 145.584C107.985 143.693 109.009 141.974 110.314 140.524C112.99 137.561 116.864 135.701 121.169 135.711C129.212 135.727 135.722 142.268 135.704 150.313Z" fill="white"/>
<path opacity="0.2" d="M135.579 152.167C135.017 156.527 132.529 160.277 128.992 162.548C120.597 158.983 112.188 153.254 107.344 145.583C107.982 143.692 109.006 141.974 110.31 140.523C117.254 147.267 126.13 150.935 135.579 152.167Z" fill="#7966FF" fill-opacity="0.38"/>
<path opacity="0.2" d="M107.184 146.07C106.786 147.391 106.568 148.79 106.566 150.239C106.547 158.284 113.056 164.822 121.1 164.839C122.641 164.842 124.124 164.606 125.519 164.166C117.973 160.408 110.474 154.009 107.184 146.07Z" fill="#7966FF" fill-opacity="0.38"/>
<g opacity="0.3">
<path d="M120.516 156.852C119.587 156.773 118.834 156.63 118.256 156.418C117.676 156.206 117.246 156.031 116.968 155.89L116.604 155.429L117.795 153.698C118.24 153.916 118.771 154.113 119.387 154.293C120.004 154.473 120.657 154.564 121.342 154.565C122.118 154.567 122.652 154.462 122.938 154.254C123.225 154.044 123.367 153.748 123.369 153.366C123.369 153.124 123.312 152.918 123.198 152.745C123.083 152.573 122.919 152.417 122.702 152.278C122.486 152.137 122.213 152 121.883 151.866C121.552 151.731 121.17 151.586 120.739 151.433C120.319 151.279 119.91 151.109 119.508 150.922C119.109 150.738 118.745 150.51 118.422 150.243C118.098 149.975 117.837 149.648 117.641 149.258C117.445 148.869 117.348 148.401 117.349 147.855C117.351 147.435 117.412 147.03 117.534 146.643C117.656 146.256 117.845 145.902 118.099 145.585C118.354 145.267 118.685 144.997 119.095 144.776C119.502 144.555 119.985 144.394 120.546 144.293L120.551 142.23L122.576 141.781L122.957 142.236L122.952 144.222C123.614 144.287 124.968 144.329 125.445 144.457C125.528 144.576 125.682 144.741 125.795 144.896L125.198 147.187C124.778 147.008 124.292 146.853 123.739 146.725C123.186 146.597 122.603 146.533 121.992 146.531C121.38 146.53 120.941 146.631 120.674 146.833C120.406 147.035 120.271 147.302 120.271 147.634C120.271 147.837 120.312 148.013 120.395 148.16C120.477 148.305 120.606 148.436 120.785 148.551C120.963 148.667 121.181 148.779 121.443 148.886C121.704 148.995 122.018 149.114 122.386 149.243C122.946 149.449 123.464 149.673 123.941 149.916C124.418 150.16 124.83 150.438 125.181 150.75C125.53 151.063 125.802 151.43 125.999 151.85C126.195 152.27 126.293 152.76 126.291 153.32C126.291 153.703 126.233 154.08 126.118 154.456C126.002 154.832 125.811 155.178 125.543 155.495C125.274 155.813 124.927 156.085 124.5 156.314C124.074 156.543 123.548 156.705 122.924 156.807L122.919 159.135L120.513 159.129L120.15 158.674L120.516 156.852ZM122.95 144.219C123.612 144.283 124.944 144.305 125.419 144.433C125.503 144.552 125.68 144.738 125.794 144.893" fill="#BDDCFD"/>
</g>
<path d="M120.151 156.404C119.223 156.325 118.469 156.181 117.891 155.969C117.311 155.758 116.882 155.582 116.604 155.442L117.43 153.248C117.875 153.466 118.406 153.665 119.022 153.843C119.64 154.023 120.29 154.113 120.977 154.115C121.755 154.116 122.285 154.014 122.573 153.804C122.86 153.594 123.004 153.298 123.004 152.918C123.004 152.676 122.947 152.469 122.834 152.297C122.72 152.125 122.554 151.968 122.338 151.828C122.121 151.687 121.848 151.55 121.518 151.415C121.188 151.281 120.805 151.137 120.374 150.983C119.954 150.829 119.545 150.659 119.144 150.474C118.744 150.289 118.381 150.062 118.058 149.795C117.735 149.528 117.474 149.199 117.278 148.809C117.082 148.42 116.984 147.953 116.986 147.405C116.987 146.984 117.049 146.58 117.171 146.193C117.292 145.806 117.48 145.452 117.736 145.135C117.99 144.817 118.322 144.549 118.731 144.326C119.139 144.103 119.622 143.944 120.183 143.843L120.188 141.781L122.593 141.786L122.589 143.772C123.251 143.836 123.819 143.934 124.296 144.062C124.773 144.19 125.152 144.32 125.432 144.446L124.835 146.735C124.415 146.556 123.928 146.402 123.375 146.274C122.822 146.146 122.24 146.081 121.628 146.079C121.017 146.078 120.578 146.179 120.309 146.383C120.041 146.585 119.906 146.853 119.906 147.184C119.906 147.387 119.948 147.563 120.03 147.71C120.112 147.856 120.241 147.986 120.42 148.103C120.597 148.218 120.816 148.33 121.079 148.439C121.339 148.548 121.654 148.667 122.022 148.795C122.581 149 123.1 149.224 123.576 149.468C124.053 149.711 124.465 149.989 124.814 150.3C125.163 150.613 125.437 150.979 125.633 151.4C125.828 151.82 125.926 152.309 125.925 152.869C125.925 153.251 125.866 153.628 125.751 154.004C125.636 154.379 125.445 154.725 125.176 155.044C124.908 155.361 124.56 155.633 124.134 155.862C123.707 156.089 123.181 156.254 122.557 156.355L122.551 158.683L120.145 158.678L120.151 156.404Z" fill="#7966FF"/>
<path d="M79.0996 115.71C79.3887 115.614 80.357 111.649 82.0961 111.166C83.8369 110.682 87.2204 113.39 87.2204 116.386C87.2204 119.383 79.0996 115.71 79.0996 115.71Z" fill="#FFB092"/>
<path opacity="0.1" d="M101.561 315.493C101.529 315.477 101.496 315.459 101.463 315.444C100.974 315.159 89.4512 277.563 79.1094 239.57C68.7661 277.565 57.2444 315.159 56.7563 315.444C56.5857 315.542 56.374 315.614 56.1387 315.671C56.7816 312.537 68.3617 255.804 71.3646 235.127C74.3027 214.904 69.1184 204.92 68.5987 203.977C68.7867 204.27 69.5338 205.45 70.6079 206.93C73.1227 210.38 77.4271 215.498 80.6496 215.116C82.6509 214.881 85.1088 211.772 87.2982 208.224C90.301 203.357 92.7905 197.645 92.9216 197.344C92.7336 198.092 85.3773 227.543 88.674 242.571C91.7795 256.764 105.475 301.709 101.561 315.493Z" fill="black"/>
<path d="M81.0128 81.1936C81.0128 82.3025 78.9893 83.2013 76.4919 83.2013C73.9961 83.2013 71.9727 82.3025 71.9727 81.1936C71.9727 80.0847 73.9961 79.1875 76.4919 79.1875C78.9893 79.1875 81.0128 80.0847 81.0128 81.1936Z" fill="#2B3E6D"/>
<path d="M83.6071 65.1087C83.6071 65.1087 85.7254 63.4738 86.6969 65.3677C87.6683 67.2601 85.4284 70.0971 83.5977 69.9123L83.6071 65.1087Z" fill="#FFB092"/>
<path opacity="0.1" d="M83.6059 66.1764C84.0861 65.9221 84.9565 65.6441 85.432 66.5713C86.0528 67.7876 84.8001 69.5489 83.5996 69.7542L83.6059 66.1764Z" fill="#231F20"/>
<path d="M69.7992 65.1087C69.7992 65.1087 67.681 63.4738 66.7095 65.3677C65.738 67.2601 67.9779 70.0971 69.8071 69.9123L69.7992 65.1087Z" fill="#FFB092"/>
<path opacity="0.1" d="M69.8073 69.7542C68.6068 69.5505 67.3542 67.7876 67.9749 66.5713C68.4504 65.6441 69.3208 65.9221 69.801 66.1764L69.8073 69.7542Z" fill="#231F20"/>
<path d="M85.1826 57.1732C86.4731 58.9566 86.421 62.3038 84.2143 65.9274C82.0075 69.5526 69.1621 67.1089 69.1621 67.1089C69.1621 67.1089 64.2779 58.5996 69.478 56.3139C69.478 56.3139 69.3217 50.4882 75.073 51.2765C80.8276 52.0647 83.4292 54.7516 85.1826 57.1732Z" fill="#202234"/>
<path d="M79.616 80.4991C79.616 80.4991 78.4661 82.2303 76.4726 82.2303C74.4649 82.2303 73.0527 80.5543 73.0527 80.5543C73.0527 80.5543 73.1222 78.7678 73.1917 77.2577C73.2328 76.261 73.2612 75.389 73.2612 75.25H79.5623L79.5908 77.8264L79.605 79.0585L79.616 80.4991Z" fill="#FFB092"/>
<path opacity="0.1" d="M79.5936 77.8248C78.6 78.6525 77.5275 79.1896 76.6997 79.1896C75.6951 79.1896 74.335 78.4029 73.1914 77.2656C73.2277 76.2689 73.2609 75.3969 73.2609 75.25H79.5683L79.5936 77.8248Z" fill="#231F20"/>
<path d="M83.7615 59.8583C83.3066 56.6722 70.0916 56.6722 69.6366 59.8583C69.6366 59.8583 68.5341 71.3642 70.1105 73.413C71.6791 75.4507 74.7167 77.8249 76.6991 77.8249C78.6815 77.8249 81.7207 75.4507 83.2892 73.413C84.8641 71.3642 83.7615 59.8583 83.7615 59.8583Z" fill="#FFB092"/>
<path opacity="0.1" d="M70.8413 60.9103C71.2757 60.8898 71.7433 60.855 72.154 60.705C72.5015 60.577 72.7937 60.3354 73.1318 60.1885C73.6941 59.9468 73.9832 60.2358 74.4255 60.5802C75.0384 61.0572 75.7034 61.3432 76.4616 61.509C78.0317 61.8565 79.7346 61.9308 81.3331 61.7617C82.1972 61.6701 83.0423 61.4616 83.8684 61.1899C83.8068 60.378 83.7578 59.8583 83.7578 59.8583C83.3029 56.6722 70.0879 56.6722 69.6329 59.8583C69.6329 59.8583 69.5982 60.2264 69.5508 60.8203C69.9678 60.8866 70.3864 60.9325 70.8413 60.9103Z" fill="#231F20"/>
<path opacity="0.1" d="M73.6422 68.4998C73.6422 69.2075 73.0688 69.7809 72.3611 69.7809C71.6535 69.7809 71.0801 69.2075 71.0801 68.4998C71.0801 67.7922 71.6535 67.2188 72.3611 67.2188C73.0688 67.2203 73.6422 67.7937 73.6422 68.4998Z" fill="#231F20"/>
<path opacity="0.1" d="M82.8981 68.4998C82.8981 69.2075 82.3247 69.7809 81.617 69.7809C80.9093 69.7809 80.3359 69.2075 80.3359 68.4998C80.3359 67.7922 80.9093 67.2188 81.617 67.2188C82.3247 67.2203 82.8981 67.7937 82.8981 68.4998Z" fill="#231F20"/>
<path d="M80.4425 55.745C78.2262 55.279 74.9707 56.2647 72.8303 57.0751C72.1716 56.9487 71.0848 56.8792 70.0217 57.4305C68.3379 58.304 67.4011 60.863 69.273 60.7998C70.3219 60.765 71.5066 59.653 72.3469 58.6815C75.2518 59.8078 81.1327 61.8471 83.9366 61.111C87.7434 60.1127 83.9997 56.4938 80.4425 55.745Z" fill="#202234"/>
<path d="M77.0773 71.3701C76.4075 71.3701 75.9336 70.7241 75.9131 70.6956C75.8215 70.5677 75.8499 70.3892 75.9763 70.2976C76.1042 70.2044 76.2827 70.2328 76.3759 70.3608C76.4676 70.4871 76.7772 70.7983 77.0931 70.7983C77.3237 70.7904 77.5543 70.6056 77.7771 70.2518C77.8608 70.1175 78.0377 70.0764 78.172 70.1617C78.3062 70.2455 78.3457 70.4224 78.262 70.5566C77.9303 71.0827 77.5433 71.3575 77.1089 71.3717C77.0994 71.3686 77.0883 71.3701 77.0773 71.3701Z" fill="#202234"/>
<path d="M75.1074 73.8547C75.1074 73.8547 77.8022 73.515 79.058 73.8799C79.0596 73.8799 77.044 76.0788 75.1074 73.8547Z" fill="white"/>
<path d="M79.1696 63.8666C79.1696 63.8666 82.2577 64.1272 82.6084 63.8666C82.9575 63.606 82.084 62.8398 80.686 62.9978C79.2865 63.1589 78.8205 63.8097 79.1696 63.8666Z" fill="#202234"/>
<path d="M81.7783 65.5708C81.7783 66.0715 81.434 66.4759 81.0122 66.4759C80.5904 66.4759 80.2461 66.0715 80.2461 65.5708C80.2461 65.07 80.5904 64.6641 81.0122 64.6641C81.1307 64.6641 81.2428 64.6957 81.3423 64.7557C81.1923 64.7999 81.0817 64.961 81.0817 65.1537C81.0817 65.3796 81.2381 65.5644 81.4308 65.5644C81.5714 65.5644 81.6946 65.4633 81.7483 65.3212C81.7673 65.4017 81.7783 65.4839 81.7783 65.5708Z" fill="#202234"/>
<path d="M70.8493 63.8666C70.8493 63.8666 73.9374 64.1272 74.2881 63.8666C74.6372 63.606 73.7637 62.8398 72.3641 62.9978C70.9662 63.1589 70.5002 63.8097 70.8493 63.8666Z" fill="#202234"/>
<path d="M73.458 65.5708C73.458 66.0715 73.1137 66.4759 72.6919 66.4759C72.2701 66.4759 71.9258 66.0715 71.9258 65.5708C71.9258 65.07 72.2701 64.6641 72.6919 64.6641C72.8104 64.6641 72.9225 64.6957 73.022 64.7557C72.872 64.7999 72.7598 64.961 72.7598 65.1537C72.7598 65.3796 72.9162 65.5644 73.1089 65.5644C73.2495 65.5644 73.3727 65.4633 73.4264 65.3212C73.4469 65.4017 73.458 65.4839 73.458 65.5708Z" fill="#202234"/>
</g>
<defs>
<linearGradient id="paint0_linear_1058_5986" x1="65.1069" y1="106.177" x2="96.1184" y2="106.177" gradientUnits="userSpaceOnUse">
<stop stop-color="#BDDCFD"/>
<stop offset="0.0001" stop-color="#5A4ACC"/>
<stop offset="1" stop-color="#7966FF"/>
</linearGradient>
<linearGradient id="paint1_linear_1058_5986" x1="221.599" y1="314.146" x2="125.193" y2="146.286" gradientUnits="userSpaceOnUse">
<stop stop-color="#BDDCFD"/>
<stop offset="1" stop-color="white"/>
</linearGradient>
<linearGradient id="paint2_linear_1058_5986" x1="136.01" y1="103.953" x2="136.01" y2="108.378" gradientUnits="userSpaceOnUse">
<stop stop-color="#7966FF"/>
<stop offset="0.9999" stop-color="#361EDD"/>
<stop offset="1" stop-color="#7966FF"/>
</linearGradient>
<linearGradient id="paint3_linear_1058_5986" x1="158.453" y1="141.773" x2="158.453" y2="145.907" gradientUnits="userSpaceOnUse">
<stop stop-color="#7966FF"/>
<stop offset="0.9999" stop-color="#361EDD"/>
<stop offset="1" stop-color="#7966FF"/>
</linearGradient>
<linearGradient id="paint4_linear_1058_5986" x1="158.453" y1="153.469" x2="158.453" y2="157.604" gradientUnits="userSpaceOnUse">
<stop stop-color="#7966FF"/>
<stop offset="0.9999" stop-color="#361EDD"/>
<stop offset="1" stop-color="#7966FF"/>
</linearGradient>
<linearGradient id="paint5_linear_1058_5986" x1="140.012" y1="180.969" x2="140.012" y2="185.248" gradientUnits="userSpaceOnUse">
<stop stop-color="#7966FF"/>
<stop offset="0.9999" stop-color="#361EDD"/>
<stop offset="1" stop-color="#7966FF"/>
</linearGradient>
<linearGradient id="paint6_linear_1058_5986" x1="141.011" y1="198.328" x2="141.011" y2="202.494" gradientUnits="userSpaceOnUse">
<stop stop-color="#7966FF"/>
<stop offset="0.9999" stop-color="#361EDD"/>
<stop offset="1" stop-color="#7966FF"/>
</linearGradient>
</defs>
</svg>
