<?xml version="1.0" standalone="no"?>
<!DOCTYPE svg PUBLIC "-//W3C//DTD SVG 20010904//EN"
 "http://www.w3.org/TR/2001/REC-SVG-20010904/DTD/svg10.dtd">
<svg version="1.0" xmlns="http://www.w3.org/2000/svg"
 width="166.000000pt" height="148.000000pt" viewBox="0 0 166.000000 148.000000"
 preserveAspectRatio="xMidYMid meet">
<metadata>
Created by potrace 1.16, written by Peter Selinger 2001-2019
</metadata>
<g transform="translate(0.000000,148.000000) scale(0.100000,-0.100000)"
fill="#000000" stroke="none">
<path d="M361 1444 c-21 -35 -26 -69 -15 -98 5 -13 10 -9 23 16 11 23 22 32
36 30 11 -2 39 -5 63 -9 33 -4 42 -10 42 -25 0 -10 5 -16 10 -13 6 3 10 22 10
41 0 53 -52 94 -120 94 -22 0 -33 -8 -49 -36z"/>
<path d="M355 1171 c-22 -11 -59 -27 -83 -37 -115 -47 -271 -317 -272 -468 0
-44 4 -53 39 -86 33 -31 39 -45 46 -95 3 -31 13 -75 21 -98 9 -24 17 -105 21
-213 l6 -174 255 0 255 0 -6 88 c-4 48 -12 218 -17 377 -6 160 -15 313 -21
340 -20 105 -88 186 -186 221 -34 12 -18 13 167 14 l205 0 -40 35 c-54 46
-132 85 -172 85 -18 0 -49 8 -69 18 -28 13 -38 14 -41 5 -5 -15 -45 -17 -59
-3 -6 6 -24 3 -49 -9z"/>
<path d="M813 631 c-102 -48 -121 -180 -39 -260 29 -29 45 -35 91 -39 66 -5
105 9 144 54 59 66 45 181 -27 233 -45 31 -117 37 -169 12z m150 -19 c35 -21
67 -80 67 -124 0 -46 -29 -99 -70 -126 -29 -20 -44 -23 -88 -20 -66 6 -101 31
-126 90 -24 58 -16 106 26 153 48 56 124 66 191 27z"/>
</g>
</svg>
