<svg width="208" height="208" viewBox="0 0 208 208" fill="none" xmlns="http://www.w3.org/2000/svg">
<circle cx="104" cy="104" r="104" fill="white"/>
<circle cx="104" cy="104" r="95" fill="#F2F0FF"/>
<mask id="mask0_1054_5258" style="mask-type:alpha" maskUnits="userSpaceOnUse" x="9" y="9" width="190" height="190">
<circle cx="104" cy="104" r="95" fill="white"/>
</mask>
<g mask="url(#mask0_1054_5258)">
<path d="M92.2918 74.8359C106.518 86.2908 114.681 111.605 114.681 111.605L161.316 98.0375L165.691 98.7481C165.691 98.7481 126.533 146.204 107.121 140.264C89.9056 134.996 87.2724 107.93 85.7848 89.6472C96.6364 81.1783 83.0764 78.1244 92.2918 74.8359Z" fill="#2D305E"/>
<path d="M167.062 79.9111L150.552 81.2895C149.929 81.3414 149.423 81.8193 149.331 82.4423L144.775 113.246C144.647 114.113 145.355 114.875 146.222 114.804L162.435 113.449C163.054 113.397 163.557 112.926 163.656 112.308L168.509 81.481C168.645 80.6092 167.936 79.8377 167.062 79.9111Z" fill="white"/>
<path d="M169.538 81.5752L153.028 82.9535C152.405 83.0054 151.899 83.4834 151.807 84.1064L147.25 114.91C147.121 115.777 147.83 116.539 148.698 116.468L164.913 115.113C165.532 115.061 166.035 114.59 166.132 113.972L170.983 83.1451C171.121 82.2733 170.41 81.5018 169.538 81.5752Z" fill="#1D2149"/>
<path d="M163.442 89.6422C163.111 91.2014 161.619 92.5672 160.11 92.6925C158.601 92.8178 157.645 91.6578 157.977 90.0987C158.308 88.5413 159.797 87.1736 161.308 87.0483C162.817 86.923 163.771 88.0848 163.442 89.6422Z" fill="white"/>
<path d="M169.083 91.8806C167.655 94.3456 167.678 94.5909 167.678 94.5909C167.678 94.5909 161.848 93.2393 162.678 96.4991C163.479 99.6389 162.367 100.878 165.877 101.436C169.388 101.995 169.581 99.1449 169.923 98.2033C171.543 93.7495 170.512 89.4157 169.083 91.8806Z" fill="#FFB092"/>
<path d="M108.518 156.302C108.518 156.302 127.851 209.785 120.719 250.252C113.586 290.719 100.475 337.949 100.475 337.949L92.2407 337.323C92.2407 337.323 76.9872 194.743 81.1689 172.374C85.3506 150.003 108.518 156.302 108.518 156.302Z" fill="#1D2149"/>
<path d="M98.2933 167.083C98.2933 167.083 100.619 220.329 91.7702 260.456C82.9217 300.583 70.8529 340.574 70.8529 340.574L62.6524 339.597C62.6524 339.597 43.8259 188.031 48.9581 165.858C54.0867 143.688 98.2933 167.083 98.2933 167.083Z" fill="#2D305E"/>
<path opacity="0.1" d="M96.2266 198.916C90.5806 201.724 83.8803 202.267 77.6704 202.302C71.7989 202.335 65.8987 201.81 60.1184 200.783C59.798 200.725 59.5223 200.869 59.4149 201.182C59.1249 202.034 58.9782 202.922 58.9262 203.819C58.6667 208.256 60.2473 212.771 61.5702 216.94C62.1932 218.898 62.8555 220.855 63.3442 222.853C64.0764 225.855 64.5042 228.957 65.0788 231.993C67.5134 244.848 70.0016 257.758 70.6514 270.853C70.9593 277.066 70.825 283.31 70.8197 289.531C70.8143 295.617 70.7785 301.703 70.6228 307.788C70.3471 318.638 69.6901 329.504 68.1292 340.251L62.6514 339.598C62.6514 339.598 43.8249 188.032 48.9571 165.86C54.0876 143.687 98.2942 167.082 98.2942 167.082C98.2942 167.082 98.8527 179.878 98.3783 197.648C97.6963 198.119 96.9749 198.543 96.2266 198.916Z" fill="#1A2326"/>
<path d="M113.224 161.774C111.437 169.308 108.29 174.636 103.563 175.993C95.4194 178.266 51.4509 180.081 46.8038 165.29C44.7308 158.686 66.3302 79.0836 70.9236 75.9205C83.2485 67.4032 92.4782 74.9807 92.4782 74.9807C107.905 88.3886 118.583 139.023 113.224 161.774Z" fill="#7966FF"/>
<path opacity="0.1" d="M63.1273 95.9219C62.5491 98.7484 61.8259 101.539 61.287 104.38C60.6891 107.534 60.1199 111.157 61.2298 114.267C62.4309 117.625 65.5027 118.81 68.8717 118.696C73.0247 118.554 76.8806 117.135 80.5199 115.262C78.9178 117.491 77.6038 119.916 75.9516 122.111C74.02 124.676 71.419 126.679 68.9451 128.69C66.4479 130.72 63.9722 132.837 62.1946 135.555C60.3401 138.39 59.0512 141.731 58.2492 145.012C56.801 150.948 57.1107 157.503 60.673 162.668C63.2741 166.438 67.3322 168.129 71.7019 168.942C74.2993 169.425 76.9361 169.692 79.5586 170.018C82.0236 170.326 84.4814 170.664 86.9553 170.904C91.9801 171.391 97.0372 171.62 102.085 171.443C104.62 171.355 107.176 171.156 109.724 170.834C108.082 173.474 106.043 175.286 103.564 175.997C95.4207 178.27 51.4522 180.085 46.8051 165.294C45.3641 160.704 55.3546 120.867 63.1273 95.9219Z" fill="#1A2326"/>
<path d="M86.2044 67.3569L87.9551 76.6869C87.9551 76.6869 85.4794 78.3499 83.154 79.0265C80.8305 79.705 76.8869 76.3163 76.8869 76.3163L81.1205 66.9219L86.2044 67.3569Z" fill="#FFB092"/>
<path d="M91.9688 54.3645C93.1181 58.3582 93.9809 68.4472 89.2604 70.769C84.5399 73.0907 80.4388 71.3114 78.1958 67.4412C75.9528 63.5728 75.6413 62.411 75.6413 62.411C75.6413 62.411 72.7789 61.6377 73.7062 59.1619C74.6352 56.6862 75.951 58.3099 75.951 58.3099C75.951 58.3099 76.6473 50.65 82.1411 47.6319C87.635 44.6138 91.1454 51.5021 91.9688 54.3645Z" fill="#FFB092"/>
<path opacity="0.05" d="M92.8705 61.0813C92.935 61.5807 92.6897 62.0068 92.3639 61.9907C91.6049 61.9495 90.9462 61.7633 90.8817 61.2639C90.8173 60.7663 91.3776 60.2829 92.1312 60.1845C92.8866 60.086 92.8061 60.5819 92.8705 61.0813Z" fill="#33133F"/>
<path opacity="0.05" d="M83.6141 61.6422C83.6785 62.1416 83.12 62.625 82.3646 62.7216C81.611 62.8183 80.9468 62.4943 80.8824 61.9949C80.8179 61.4954 81.3782 61.0139 82.1319 60.9154C82.8855 60.8188 83.5496 61.1446 83.6141 61.6422Z" fill="#33133F"/>
<path d="M85.7208 61.5948C85.7279 61.5823 85.7351 61.5733 85.744 61.568C85.7763 61.5501 85.821 61.5769 85.8604 61.6378C85.9052 61.713 86.9917 63.4386 87.9763 62.0155C88.0103 61.9707 88.0748 61.9994 88.1195 62.0853C88.166 62.1712 88.1768 62.2804 88.1446 62.327C87.0472 63.9076 85.7709 61.8633 85.7584 61.8418C85.71 61.7631 85.6939 61.6521 85.7208 61.5948Z" fill="#1D2149"/>
<path d="M82.4144 58.1749C82.427 58.7764 82.7546 59.2615 83.177 59.2776C83.6228 59.2919 84.0059 58.7764 84.0327 58.1284C84.0596 57.475 83.7159 56.9308 83.2701 56.9147C83.0822 56.9057 82.9031 56.9935 82.7617 57.1402C82.8763 57.2459 82.9443 57.4302 82.939 57.6415C82.9282 57.9583 82.742 58.2089 82.5219 58.2036C82.4825 58.2018 82.4485 58.191 82.4144 58.1749Z" fill="#1D2149"/>
<path d="M89.6863 58.887C90.132 58.9013 90.5151 58.3858 90.5366 57.7378C90.5635 57.0844 90.2198 56.5384 89.774 56.5241C89.663 56.5187 89.5556 56.5473 89.4554 56.6028C89.5556 56.7085 89.6183 56.8857 89.6111 57.0826C89.6004 57.3994 89.4106 57.6501 89.194 57.6447C89.0938 57.6393 89.0079 57.5838 88.9416 57.4889C88.9327 57.5462 88.9273 57.6107 88.9237 57.6715C88.8969 58.3267 89.2406 58.8673 89.6863 58.887Z" fill="#1D2149"/>
<path opacity="0.05" d="M86.3991 67.6238C86.0518 67.5558 85.837 67.4609 85.8155 67.4501C85.7314 67.4108 85.6938 67.3123 85.7314 67.2282C85.769 67.144 85.8692 67.1082 85.9533 67.144C85.9659 67.1512 87.3425 67.7491 88.8694 66.8719C88.9518 66.829 89.052 66.8558 89.0986 66.9346C89.1433 67.0152 89.1165 67.1172 89.0359 67.1637C87.9726 67.7742 86.9916 67.7384 86.3991 67.6238Z" fill="#33133F"/>
<path d="M84.7461 56.2446C84.7461 56.2446 83.5056 54.4813 81.54 55.5608C81.54 55.5608 81.2124 55.9993 81.9732 55.8919C82.734 55.7827 84.3344 56.5256 84.7461 56.2446Z" fill="#1D2149"/>
<path d="M91.5586 55.4275C91.5586 55.4275 89.8777 54.0778 88.2881 55.6584C88.2881 55.6584 88.0947 56.1704 88.7947 55.8571C89.4964 55.5421 91.2417 55.8124 91.5586 55.4275Z" fill="#1D2149"/>
<path d="M79.3465 49.7186C79.3465 49.7186 86.2956 51.1095 91.2739 56.0788C92.9924 57.7955 95.9013 56.5174 98.5614 54.8705C101.995 52.7439 101.866 42.2091 96.2719 44.3232C88.9128 47.1033 86.5409 35.9008 77.1393 44.4056C71.3733 49.6166 79.3465 49.7186 79.3465 49.7186Z" fill="#1D2149"/>
<path d="M81.523 48.4917C81.523 48.4917 81.6788 56.3073 75.9522 58.3194C75.9522 58.3194 70.999 56.463 72.5474 51.8195C74.0941 47.1778 77.9625 45.939 81.523 48.4917Z" fill="#1D2149"/>
<path opacity="0.24" d="M75.876 59.2621C75.876 59.2621 74.8699 58.12 74.426 58.8755C73.9803 59.6291 75.142 61.1775 75.142 61.1775C75.142 61.1775 74.1933 59.7848 74.6766 59.3194C75.1599 58.8558 75.8384 59.4358 75.876 59.2621Z" fill="#404A4F"/>
<path d="M92.8955 60.627C93.0978 62.7143 91.9056 64.5312 90.9658 65.6142C90.1817 65.292 89.0182 65.0826 87.3211 65.301C83.1914 65.8326 85.9302 69.3484 81.9652 67.2218C78.0001 65.0969 78.0806 56.755 78.0806 56.4292C78.0806 56.4292 77.4272 55.4894 76.3639 57.7378C75.3006 59.9862 75.5047 62.3169 75.5047 62.3169C75.5047 62.3169 75.5047 64.0747 75.9128 66.3231C76.321 68.5715 82.495 73.0682 89.1184 71.7615C93.1461 70.9649 93.4988 69.2929 93.1587 68.1043C94.2059 65.4728 92.8955 60.627 92.8955 60.627Z" fill="#1D2149"/>
<path d="M46.675 149.385C45.1784 164.857 56.5098 178.612 71.9816 180.108C87.4535 181.605 101.21 170.273 102.705 154.802C104.202 139.33 92.8704 125.575 77.3985 124.078C61.9249 122.582 48.1715 133.913 46.675 149.385Z" fill="#7966FF"/>
<path d="M47.9575 149.798C46.4609 165.27 57.7923 179.025 73.2642 180.522C88.736 182.019 102.493 170.687 103.988 155.215C105.482 139.743 94.1529 125.987 78.681 124.492C63.2091 122.997 49.4522 134.327 47.9575 149.798Z" fill="#BDDCFD"/>
<path d="M49.8502 149.987C48.4557 164.413 59.0209 177.241 73.4473 178.635C87.8738 180.03 100.702 169.465 102.096 155.038C103.491 140.61 92.9254 127.784 78.499 126.39C64.0708 124.993 51.2447 135.558 49.8502 149.987Z" fill="#7966FF"/>
<path d="M51.0104 150.099C50.9066 151.177 50.869 152.246 50.9066 153.295C51.1303 160.858 54.7553 167.703 60.4281 172.193C64.0817 175.077 68.5785 176.987 73.5603 177.468C87.3441 178.8 99.5956 168.709 100.927 154.925C101.198 152.124 101.001 149.394 100.385 146.804C99.6135 143.456 98.151 140.34 96.1622 137.633C92.0807 132.103 85.7599 128.262 78.3864 127.548C64.6027 126.216 52.3422 136.316 51.0104 150.099Z" fill="#BDDCFD"/>
<path opacity="0.2" d="M50.9102 153.294C51.134 160.858 54.759 167.703 60.4318 172.193C75.4167 167.508 90.7919 159.121 100.389 146.804C99.6171 143.456 98.1546 140.339 96.1658 137.633C83.1303 148.01 67.304 152.786 50.9102 153.294Z" fill="white"/>
<path opacity="0.2" d="M100.58 147.68C101.037 150.009 101.173 152.441 100.933 154.926C99.6013 168.71 87.3463 178.804 73.5625 177.472C70.9239 177.218 68.4231 176.559 66.1085 175.569C79.6721 170.409 93.5991 160.719 100.58 147.68Z" fill="white"/>
<g opacity="0.3">
<path d="M75.9181 163.88C77.522 163.904 78.8378 163.784 79.8653 163.519C80.8928 163.256 81.659 163.027 82.1602 162.833L82.8619 162.103L81.1165 158.934C80.3182 159.232 79.3748 159.482 78.2864 159.684C77.198 159.889 76.0667 159.931 74.8888 159.819C73.5587 159.69 72.6637 159.421 72.209 159.015C71.7525 158.607 71.5574 158.077 71.6201 157.422C71.6594 157.008 71.7937 156.663 72.0175 156.387C72.243 156.113 72.5527 155.873 72.9447 155.669C73.3386 155.465 73.8308 155.277 74.4198 155.102C75.0087 154.928 75.6872 154.744 76.4533 154.556C77.1998 154.362 77.9302 154.142 78.648 153.892C79.3658 153.643 80.0246 153.315 80.6225 152.911C81.2222 152.506 81.7252 151.989 82.128 151.355C82.5307 150.723 82.776 149.939 82.8673 149.001C82.9371 148.281 82.8995 147.578 82.7563 146.892C82.6149 146.209 82.3499 145.571 81.9669 144.984C81.5838 144.399 81.0611 143.88 80.4005 143.43C79.74 142.981 78.9398 142.625 77.9964 142.356L78.3383 138.823L74.9443 137.711L74.2157 138.425L73.8863 141.826C72.7407 141.826 70.4153 141.667 69.5776 141.807C69.4147 141.996 69.1229 142.254 68.9009 142.499L69.5346 146.524C70.2846 146.289 71.1439 146.107 72.1123 145.981C73.0826 145.856 74.0904 145.843 75.1376 145.944C76.1848 146.044 76.9206 146.291 77.3448 146.685C77.7691 147.079 77.9534 147.556 77.8979 148.124C77.8639 148.473 77.7655 148.767 77.599 149.003C77.4343 149.239 77.1891 149.441 76.8633 149.608C76.5393 149.774 76.1436 149.93 75.68 150.072C75.2164 150.215 74.6561 150.365 74.0027 150.523C73.0092 150.78 72.0837 151.076 71.2262 151.412C70.367 151.749 69.6134 152.155 68.9618 152.63C68.312 153.108 67.7821 153.688 67.3739 154.375C66.9658 155.061 66.717 155.884 66.6239 156.844C66.5594 157.499 66.5952 158.156 66.7295 158.818C66.8638 159.48 67.1323 160.105 67.5386 160.696C67.9432 161.285 68.4928 161.811 69.1855 162.275C69.8783 162.738 70.7501 163.109 71.8009 163.386L71.416 167.377L75.5386 167.774L76.2385 167.056L75.9181 163.88ZM73.8899 141.828C72.7442 141.828 70.4619 141.638 69.6241 141.778C69.4612 141.968 69.1264 142.256 68.9063 142.501" fill="#BDDCFD"/>
</g>
<path d="M76.6185 163.166C78.2224 163.189 79.5399 163.07 80.5656 162.805C81.5931 162.541 82.3593 162.312 82.8605 162.117L81.8169 158.22C81.0185 158.517 80.0751 158.768 78.9868 158.97C77.8984 159.174 76.7688 159.217 75.5909 159.104C74.2609 158.976 73.3658 158.709 72.9112 158.301C72.4547 157.893 72.2596 157.361 72.3222 156.709C72.3616 156.296 72.4941 155.95 72.7196 155.675C72.9452 155.399 73.2549 155.159 73.6469 154.955C74.0407 154.751 74.533 154.563 75.1219 154.388C75.7109 154.214 76.3893 154.031 77.1555 153.842C77.902 153.648 78.6323 153.428 79.3502 153.177C80.068 152.929 80.7267 152.601 81.3246 152.196C81.9243 151.792 82.4273 151.275 82.8301 150.641C83.2329 150.009 83.4781 149.225 83.5694 148.287C83.6392 147.567 83.6016 146.864 83.4584 146.18C83.317 145.496 83.0521 144.859 82.669 144.27C82.2859 143.683 81.7632 143.165 81.1027 142.716C80.4421 142.267 79.6401 141.911 78.6985 141.642L79.0405 138.11L74.9179 137.711L74.5885 141.114C73.4446 141.114 72.4529 141.182 71.6151 141.322C70.7756 141.461 70.1061 141.617 69.6048 141.787L70.2385 145.809C70.9886 145.573 71.8478 145.392 72.8163 145.265C73.7847 145.14 74.7943 145.127 75.8398 145.228C76.887 145.33 77.6227 145.575 78.047 145.969C78.4712 146.363 78.6556 146.842 78.6019 147.408C78.5679 147.757 78.4676 148.051 78.3011 148.287C78.1365 148.523 77.8912 148.725 77.5654 148.894C77.2414 149.06 76.8458 149.214 76.3822 149.357C75.9185 149.501 75.3582 149.651 74.7048 149.807C73.7113 150.064 72.7858 150.36 71.9284 150.696C71.0709 151.033 70.3155 151.439 69.6657 151.914C69.0141 152.392 68.486 152.972 68.0779 153.659C67.6697 154.345 67.4209 155.168 67.3278 156.128C67.2652 156.783 67.2992 157.44 67.4334 158.102C67.5677 158.763 67.8362 159.389 68.2426 159.978C68.6471 160.567 69.1967 161.093 69.8895 161.557C70.5822 162.021 71.4558 162.389 72.5048 162.669L72.1199 166.659L76.2425 167.058L76.6185 163.166Z" fill="#7966FF"/>
<path d="M63.4203 182.07L63.4221 182.068C63.1912 181.71 62.9262 181.164 62.6237 180.315C62.6237 180.315 62.6291 180.321 62.6344 180.33C62.4679 179.913 62.323 179.465 62.2066 179.009C62.0025 178.221 61.9005 177.63 61.8504 177.208C61.8504 177.206 61.8504 177.204 61.8504 177.202C61.7805 176.578 61.8253 176.318 61.8253 176.318C61.8253 176.318 57.4342 169.773 57.1889 168.764C57.3554 167.618 61.3581 166.234 61.3581 166.234C62.3516 166.447 65.3071 172.838 66.766 173.502C68.4684 174.277 73.0367 173.875 72.3064 175.183C71.5742 176.493 68.6026 175.79 68.6026 175.79C68.6026 175.79 68.6295 175.817 68.6742 175.867C68.9535 176.168 69.9756 177.329 70.4643 178.681L70.4661 178.683C70.5986 179.059 70.6935 179.449 70.7167 179.839C70.7203 179.909 70.7239 179.977 70.7239 180.045C70.7239 180.167 70.7167 180.292 70.6988 180.414C70.6971 180.433 70.6935 180.455 70.6899 180.475C70.6809 180.535 70.6702 180.596 70.6577 180.657L70.6559 180.664C70.6541 180.664 70.6541 180.664 70.6541 180.666C70.5717 180.818 70.4267 180.979 70.1761 181.128C69.3688 181.606 68.9338 181.092 68.9338 181.092C68.9338 181.092 68.975 181.767 68.2697 182.061C67.5214 182.376 67.3531 181.849 67.3531 181.849C67.3531 181.849 67.1562 182.576 66.5583 182.804C65.9282 183.043 65.7456 182.429 65.7456 182.429C65.7456 182.429 65.683 182.956 64.9472 183.244C64.2831 183.502 63.4203 182.07 63.4203 182.07Z" fill="#FFB092"/>
<path opacity="0.2" d="M66.7968 181.153C66.7914 181.178 66.7735 181.2 66.7395 181.208C66.3511 181.314 65.9841 181.429 65.7013 181.735C65.6064 181.837 65.499 181.951 65.354 181.967C65.2877 181.976 65.2251 181.96 65.1624 181.951C65.0765 181.939 65.0013 181.957 64.9154 181.982C64.6379 182.066 64.3694 182.207 64.126 182.368C64.015 182.444 63.904 182.524 63.7984 182.612C64.1099 182.99 64.561 183.407 64.944 183.256C65.6798 182.968 65.7424 182.442 65.7424 182.442C65.7424 182.442 65.925 183.058 66.5551 182.818C67.1512 182.59 67.3482 181.864 67.3482 181.864C67.3482 181.864 67.5164 182.39 68.2647 182.075C68.97 181.779 68.9288 181.106 68.9288 181.106C68.9288 181.106 69.3638 181.62 70.1711 181.142C70.4218 180.994 70.5668 180.833 70.6491 180.68C70.6509 180.68 70.6509 180.68 70.6527 180.679L70.6545 180.671C70.6688 180.611 70.6795 180.55 70.6867 180.489C70.6903 180.469 70.6939 180.448 70.6956 180.428C70.7118 180.304 70.7189 180.183 70.7207 180.059C70.7207 179.989 70.7171 179.921 70.7118 179.852C70.5578 180.014 70.3519 180.149 70.1622 180.256C69.9456 180.376 69.7003 180.485 69.4569 180.464C69.1991 180.442 69.0022 180.281 68.7552 180.236C68.4956 180.192 68.2146 180.335 68.032 180.528C67.8744 180.695 67.7939 180.899 67.5755 181.006C67.3302 181.126 67.0617 181.128 66.804 181.153C66.8022 181.153 66.8004 181.153 66.7968 181.153Z" fill="white"/>
<path opacity="0.2" d="M72.1406 174.848C72.1406 174.848 70.9717 174.829 70.8661 174.664C70.7605 174.499 70.9538 174.32 70.9538 174.32C70.9538 174.32 72.0422 174.508 72.1406 174.848Z" fill="white"/>
<path d="M66.0332 171.75C66.0332 171.75 62.4977 175.545 60.5537 174.983C58.6096 174.421 31.5576 147.188 32.0034 126.695C32.3345 111.487 40.7176 109.233 48.0427 120.013C55.3678 130.793 66.0332 171.75 66.0332 171.75Z" fill="#2D305E"/>
<path d="M74.4316 73.7344C74.4316 73.7344 58.1041 137.032 49.184 133.221C40.264 129.41 28.6963 126.104 33.3416 116C37.9869 105.895 57.6817 82.9713 74.4316 73.7344Z" fill="#2D305E"/>
</g>
</svg>
