<svg width="208" height="208" viewBox="0 0 208 208" fill="none" xmlns="http://www.w3.org/2000/svg">
<circle cx="104" cy="104" r="104" fill="white"/>
<circle cx="104" cy="104" r="95" fill="#F2F0FF"/>
<mask id="mask0_1058_5613" style="mask-type:alpha" maskUnits="userSpaceOnUse" x="9" y="9" width="190" height="190">
<circle cx="104" cy="104" r="95" fill="white"/>
</mask>
<g mask="url(#mask0_1058_5613)">
<path d="M120.727 98.0517C127.481 106.243 133.853 113.601 133.853 113.601L159.898 92.5352L162.871 91.8203C162.871 91.8203 150.619 132.447 136.689 133.845C124.335 135.085 115.441 118.573 109.62 107.34C114.266 99.0611 115.744 102.6 120.727 98.0517Z" fill="#EF9A7F"/>
<path d="M102.676 108.981C102.676 108.981 120.452 103.002 124.024 100.169C127.597 97.3364 106.851 75.7527 100.824 72.3582C97.0451 70.2277 102.676 108.981 102.676 108.981Z" fill="#2D305E"/>
<path d="M161.266 70.5192L143.014 74.9046C142.325 75.0705 141.84 75.6925 141.844 76.406L142.043 111.691C142.047 112.684 142.972 113.415 143.932 113.185L161.858 108.878C162.543 108.714 163.026 108.1 163.028 107.391L163.156 72.0292C163.159 71.0283 162.231 70.2876 161.266 70.5192Z" fill="#2D305E"/>
<path d="M162.331 70.2614L144.079 74.6468C143.389 74.8127 142.905 75.4347 142.909 76.1482L143.106 111.433C143.112 112.427 144.036 113.157 144.995 112.927L162.923 108.62C163.606 108.456 164.09 107.842 164.092 107.133L164.22 71.7699C164.224 70.7705 163.295 70.0298 162.331 70.2614Z" fill="#1D2149"/>
<path d="M156.89 80.3288C156.788 82.1318 155.353 83.9177 153.684 84.3195C152.015 84.7199 150.746 83.5846 150.847 81.7815C150.949 79.9799 152.384 78.1926 154.053 77.7922C155.723 77.389 156.993 78.5257 156.89 80.3288Z" fill="white"/>
<path d="M155.392 188.828C155.392 188.828 167.62 195.341 168.95 200.258C170.28 205.176 141.703 204.777 132.798 197.733C123.892 190.688 155.392 188.828 155.392 188.828Z" fill="#1D2149"/>
<path d="M122.785 164.516C138.512 166.688 166.91 165.482 171.166 170.896C179.29 181.232 161.352 193.397 154.153 194.82C146.024 196.426 134.211 197.092 118.133 198.542C119.766 185.759 119.875 177.08 122.785 164.516Z" fill="#FFB092"/>
<path d="M53.1022 147.562L106.036 150.561C106.036 150.561 115.074 160.68 138.132 163.611C135.183 176.389 133.778 189.427 132.105 202.425C108.993 204.281 78.458 204.094 60.8078 193.282C39.6372 180.315 53.1022 147.562 53.1022 147.562Z" fill="#1D2149"/>
<path d="M96.9375 68.265C96.9375 68.265 71.5732 74.7137 58.5386 113.809C52.9335 130.621 48.388 149.624 53.1752 151.941C57.9609 154.255 99.2596 168.112 109.971 151.675C120.682 135.235 114.302 61.9036 96.9375 68.265Z" fill="#7966FF"/>
<path d="M120.903 55.3134C120.903 55.3134 120.781 58.0387 121.084 61.0558C121.214 62.3498 122.35 62.7673 121.885 63.874C121.499 64.7934 120.565 64.4159 120.531 64.6762C120.165 67.4744 119.476 69.765 118.19 69.5734C115.007 69.1016 112.023 67.7561 112.023 67.7561L108.081 78.6002C108.081 78.6002 105.244 80.2431 100.057 73.3111C100.057 73.3111 97.7361 70.4671 100.217 68.0149C102.698 65.5641 104.342 61.765 104.342 61.765C104.342 61.765 107.136 52.9513 112.066 52.1792C116.996 51.407 120.903 55.3134 120.903 55.3134Z" fill="#FFB092"/>
<path d="M118.315 61.3995C118.453 61.9229 118.842 62.2775 119.215 62.2046C119.608 62.1245 119.834 61.5926 119.721 61.0206C119.607 60.443 119.192 60.0383 118.799 60.1198C118.633 60.1527 118.494 60.2657 118.403 60.4229C118.524 60.4901 118.623 60.6389 118.663 60.8247C118.72 61.1036 118.61 61.3624 118.415 61.4038C118.381 61.4096 118.348 61.4067 118.315 61.3995Z" fill="#1D2149"/>
<path d="M119.944 59.1964C119.944 59.1964 118.489 57.9153 116.997 59.2708C116.997 59.2708 116.803 59.7241 117.445 59.4695C118.087 59.2165 119.644 59.5296 119.944 59.1964Z" fill="#1D2149"/>
<path d="M119.736 66.6652C119.736 66.6652 118.281 65.384 116.789 66.7395C116.789 66.7395 116.595 67.1928 117.237 66.9383C117.879 66.6838 119.435 66.9983 119.736 66.6652Z" fill="#1D2149"/>
<path d="M111.235 61.9453L110.188 66.4665L106.596 65.1954C106.596 65.1954 109.482 72.7422 110.337 72.4105L112.025 67.7691L111.235 61.9453Z" fill="#EF9A7F"/>
<path d="M103.303 62.9791C103.303 62.9791 110.903 64.7964 111.622 60.9801C111.622 60.9801 108.67 57.6343 110.56 56.5619C112.45 55.4895 112.699 57.8001 112.699 57.8001C112.699 57.8001 114.292 54.6344 114.362 54.9261C114.432 55.2192 121.337 60.5869 124.475 57.0452C127.615 53.5034 125.046 44.8728 113.056 44.0377C105.192 43.4901 96.3399 48.8635 103.303 62.9791Z" fill="#1D2149"/>
<path d="M96.6344 113.806C98.569 121.741 99.9445 127.309 99.9445 127.309L127.182 101.031C129.84 101.706 129.729 106.785 132.464 107.162C124.009 116.504 113.345 149.95 95.8751 152.106C82.3429 153.776 76.1631 136.819 71.9221 120.167C76.3704 119.052 91.9716 115.407 96.6344 113.806Z" fill="#FFB092"/>
<path d="M71.4962 129.585L98.7422 116.22C98.7422 116.22 94.2782 77.1991 80.7988 79.7185C73.2563 81.1269 60.4634 105.971 71.4962 129.585Z" fill="#2D305E"/>
<path d="M164.041 85.9953C163.789 87.9442 163.03 88.6534 163.03 88.6534C163.03 88.6534 156.354 90.7481 158.343 91.9435C160.33 93.1389 161.328 94.0683 163.71 93.4892C166.092 92.9087 165.455 91.0441 165.422 90.3549C165.263 87.0877 164.292 84.0464 164.041 85.9953Z" fill="#FFB092"/>
<path d="M112.138 57.7278C112.138 57.7278 111.8 56.7298 111.072 57.123C110.345 57.5162 111.607 59.7968 111.607 59.7968C111.607 59.7968 110.521 57.6149 111.24 57.5948C111.96 57.5734 112.006 58.0324 112.138 57.7278Z" fill="#EF9A7F"/>
<path d="M127.56 101.778C127.56 101.778 127.308 98.3674 128.585 95.8551C129.141 94.7627 131.316 94.4395 132.13 94.8742C132.882 95.2746 133.776 97.2235 133.756 97.8841C133.736 98.5447 133.544 99.364 132.213 98.2859C130.882 97.2063 130.543 97.5252 130.543 97.5252L127.56 101.778Z" fill="#EF9A7F"/>
<path d="M138.415 104.033C138.232 104.231 138.049 104.394 137.894 104.507C137.861 104.53 137.834 104.551 137.807 104.568C137.116 105.02 136.406 105.435 135.734 105.796C133.931 106.774 132.416 107.385 132.416 107.385C132.416 107.385 125.417 117.092 124.102 117.93C122.457 118.266 118.079 113.242 118.079 113.242C118.033 111.769 126.218 102.954 127.439 100.929C128.664 98.903 130.866 97.1815 130.866 97.1815C130.866 97.1815 139.549 87.1753 140.691 88.2806C141.575 89.1342 137.231 94.3432 135.941 96.3293C135.931 96.3464 135.918 96.3607 135.908 96.3779C135.914 96.375 136.988 96.3021 137.401 97.2029C137.604 97.6419 137.53 97.9622 137.53 97.9622C137.53 97.9622 138.15 98.1266 138.436 98.4898C138.723 98.8544 138.961 99.5636 138.826 99.7395C138.834 99.7452 139.39 99.861 139.581 100.412C139.774 100.961 139.404 101.75 139.404 101.75L139.4 101.747C139.4 101.854 139.397 101.959 139.387 102.062C139.308 102.842 138.856 103.55 138.415 104.033Z" fill="#FFB092"/>
<path opacity="0.2" d="M136.261 96.7502C136.42 96.8803 136.579 97.0133 136.699 97.182C136.798 97.3207 136.893 97.4765 136.945 97.6395C136.989 97.7782 136.981 97.9098 136.976 98.0528C136.975 98.13 136.965 98.2272 137.015 98.2901C137.065 98.3516 137.164 98.3802 137.234 98.4159C137.392 98.4989 137.527 98.6176 137.665 98.7291C137.959 98.9636 138.213 99.2224 138.393 99.557C138.526 99.8015 138.656 100.093 138.581 100.375C138.561 100.452 138.521 100.526 138.503 100.605C138.482 100.704 138.519 100.702 138.598 100.749C138.735 100.834 138.842 100.965 138.937 101.094C139.33 101.627 139.217 102.258 139.041 102.846C138.978 103.056 138.912 103.266 138.847 103.475C139.115 103.064 139.334 102.58 139.388 102.061C139.398 101.959 139.401 101.853 139.401 101.746L139.406 101.749C139.406 101.749 139.776 100.96 139.583 100.411C139.391 99.8601 138.834 99.7443 138.828 99.7386C138.962 99.5627 138.725 98.8535 138.438 98.4889C138.152 98.1257 137.531 97.9613 137.531 97.9613C137.531 97.9613 137.605 97.641 137.402 97.202C137.002 96.3298 135.987 96.3712 135.915 96.377C136.013 96.52 136.121 96.6358 136.261 96.7502Z" fill="white"/>
<path opacity="0.2" d="M139.496 88.9244C139.496 88.9244 140.081 89.6307 140.255 89.5178C140.429 89.4048 140.777 88.4268 140.542 88.3524C140.306 88.2795 139.563 88.6827 139.496 88.9244Z" fill="white"/>
</g>
</svg>
