<svg width="208" height="208" viewBox="0 0 208 208" fill="none" xmlns="http://www.w3.org/2000/svg">
<circle cx="104" cy="104" r="104" fill="white"/>
<circle cx="104" cy="104" r="95" fill="#F2F0FF"/>
<mask id="mask0_1097_1582" style="mask-type:alpha" maskUnits="userSpaceOnUse" x="9" y="9" width="190" height="190">
<circle cx="104" cy="104" r="95" fill="#F2F0FF"/>
</mask>
<g mask="url(#mask0_1097_1582)">
<path d="M132.362 240.288C130.474 239.569 88.0555 204.815 87.2754 202.467C86.9746 201.578 91.6762 195.105 97.5788 187.445C98.853 185.791 100.179 184.09 101.536 182.371C110.33 171.197 119.922 159.547 119.922 159.547L148.365 182.713L129.197 204.9L124.993 209.773C124.993 209.773 135.282 230.344 135.861 233.01C136.431 235.67 134.251 241.006 132.362 240.288Z" fill="#FFB092"/>
<path d="M132.362 240.292C130.474 239.573 88.0552 204.819 87.2751 202.471C86.9142 201.387 93.9281 192.057 101.536 182.375L129.196 204.904L124.992 209.778C124.992 209.778 135.281 230.348 135.86 233.015C136.431 235.674 134.25 241.01 132.362 240.292Z" fill="#EBEBEB"/>
<path d="M132.362 240.288C130.474 239.569 88.0555 204.815 87.2754 202.468C86.9746 201.578 91.6762 195.105 97.5788 187.445L124.992 209.773C124.992 209.773 135.282 230.343 135.861 233.01C136.431 235.67 134.251 241.007 132.362 240.288Z" fill="#7966FF"/>
<path d="M97.5094 197.883C94.3087 195.276 90.2515 200.246 93.4577 202.857C96.6584 205.464 100.716 200.494 97.5094 197.883Z" fill="white"/>
<path d="M114.848 205.907C117.014 208.318 120.148 209.707 122.892 211.324C123.176 211.492 123.471 211.249 123.53 210.98C123.591 210.98 123.648 210.944 123.637 210.867C123.202 207.719 121.663 204.181 119.619 201.726C118.358 200.21 115.908 198.875 114.163 200.55C112.513 202.134 113.583 204.499 114.848 205.907ZM114.456 202.879C114.531 198.86 118.356 201.665 119.241 202.819C119.81 203.561 120.301 204.386 120.762 205.197C121.73 206.897 122.437 208.703 123.225 210.484C121.926 209.606 120.563 208.849 119.233 208.02C117.648 207.035 114.415 205.096 114.456 202.879Z" fill="#263238"/>
<path d="M177.906 139.197C175.757 154.095 138.46 196.722 134.15 201.61C133.514 202.33 133.169 202.723 133.169 202.723L103.036 178.978L103.391 178.531L130.604 143.784L50.7129 142.342L81.334 119.124C81.334 119.124 83.778 120.573 88.9028 119.888C106.567 117.522 146.391 112.291 155.761 112.782C167.849 113.428 179.879 125.528 177.906 139.197Z" fill="#263238"/>
<path d="M140.381 130.866C139.33 131.905 138.484 133.211 137.575 134.373C136.613 135.603 135.636 136.821 134.675 138.053C134.666 138.065 134.657 138.077 134.647 138.089C134.82 137.728 134.988 137.364 135.166 137.005C135.778 135.776 136.272 134.505 136.992 133.332C137.036 133.26 136.926 133.192 136.881 133.263C136.141 134.427 135.286 135.532 134.651 136.76C134.351 137.338 134.068 137.922 133.803 138.516C133.658 138.842 133.509 139.168 133.378 139.499C133.318 139.65 133.243 139.811 133.198 139.975C132.767 140.546 132.341 141.121 131.928 141.704C131.01 143 130.197 144.371 129.269 145.656C129.219 145.726 129.329 145.791 129.379 145.726C130.318 144.519 131.369 143.395 132.323 142.197C133.294 140.977 134.216 139.723 135.127 138.459C136.016 137.225 136.887 135.979 137.774 134.744C138.668 133.5 139.726 132.276 140.456 130.928C140.481 130.88 140.422 130.825 140.381 130.866Z" fill="#37474F"/>
<path d="M137.327 195.73C135.611 194.233 133.771 192.856 131.966 191.467C130.153 190.073 128.333 188.689 126.506 187.314C122.848 184.564 119.207 181.79 115.513 179.09C113.483 177.607 111.439 176.144 109.333 174.772C109.238 174.711 109.139 174.861 109.223 174.933C112.697 177.905 116.389 180.606 120.043 183.35C123.703 186.099 127.373 188.838 131.075 191.531C133.1 193.005 135.117 194.527 137.229 195.875C137.314 195.929 137.402 195.795 137.327 195.73Z" fill="#37474F"/>
<path d="M72.4724 79.7666C80.7597 95.5479 90.594 112.296 99.9154 114.722C108.782 117.03 129.876 94.9377 133.454 87.6035C134.687 85.0746 117.986 73.998 115.623 75.8591C111.167 79.3668 101.413 90.4846 100.025 90.2064C98.5789 89.911 86.7994 79.3839 76.1235 70.5246C69.652 65.1551 66.7319 68.835 72.4724 79.7666Z" fill="#FFB092"/>
<path d="M118.635 50.2259L112.252 72.5698C111.991 73.2229 112.306 73.7708 112.955 73.791L124.577 74.1565C125.226 74.1768 125.966 73.6624 126.227 73.0094L132.61 50.6654C132.872 50.0108 132.556 49.4645 131.908 49.4442L120.286 49.0787C119.636 49.0584 118.897 49.5712 118.635 50.2259Z" fill="#A6A6A6"/>
<path d="M120.016 50.2571L113.633 72.6011C113.371 73.2541 113.687 73.802 114.336 73.8223L125.958 74.1878C126.607 74.208 127.347 73.6937 127.608 73.0406L133.991 50.6967C134.253 50.042 133.938 49.4957 133.288 49.4755L121.666 49.11C121.017 49.0897 120.278 49.6025 120.016 50.2571Z" fill="#DBDBDB"/>
<path d="M123.17 51.3848C123.141 51.9296 122.675 52.3481 122.13 52.3185C121.586 52.2889 121.168 51.8236 121.197 51.2789C121.226 50.7341 121.691 50.3156 122.236 50.3452C122.781 50.3748 123.199 50.8401 123.17 51.3848Z" fill="#455A64"/>
<path d="M138.829 74.9557C139.81 68.4608 139.065 66.6427 142.803 61.6012C145.256 58.293 144.196 55.3067 140.337 57.1661C134.026 60.2078 131.001 68.3206 130.762 71.4363L138.829 74.9557Z" fill="#FFB092"/>
<path d="M130.452 91.98C130.452 91.98 136.512 84.9037 138.242 78.0862C139.438 73.3713 140.896 62.8239 130.591 52.5985C128.146 50.1732 122.942 48.4509 125.496 53.8617C127.311 57.7054 129.622 59.5952 130.27 62.0228C130.27 62.0228 123.392 60.6177 121.057 63.1614C120.014 64.2984 117.239 67.4679 115.431 70.2431C115.431 70.2431 115.93 70.7995 116.663 71.4144C116.663 71.4144 114.707 73.9963 115.117 78.9045L130.452 91.98Z" fill="#FFB092"/>
<path d="M138.664 73.4002C137.511 71.1261 134.987 66.3481 131.563 63.1576C127.76 59.6132 119.478 53.8111 116.89 56.6463C114.994 58.7248 117.96 61.2178 117.96 61.2178C117.96 61.2178 114.032 59.5415 112.729 61.7937C111.541 63.8465 113.952 65.6374 113.952 65.6374C113.952 65.6374 111.395 65.0303 110.632 67.2272C109.714 69.8699 115.226 70.7092 116.609 74.1896C116.92 74.9705 138.664 73.4002 138.664 73.4002Z" fill="#FFB092"/>
<path d="M128.489 67.8096C127.054 65.8488 122.653 62.232 118.064 61.1924C117.959 61.169 117.886 61.2352 117.976 61.2765C122.786 63.4937 126.82 66.477 128.456 67.8454C128.477 67.8641 128.504 67.8322 128.489 67.8096Z" fill="#263238"/>
<path d="M124.799 71.5338C123.388 69.969 118.685 66.4441 113.998 65.5502C113.893 65.5307 113.824 65.6016 113.916 65.639C119.037 67.7487 123.053 70.3025 124.768 71.5712C124.791 71.5884 124.817 71.5533 124.799 71.5338Z" fill="#263238"/>
<path d="M109.87 78.7417L127.268 97.1891C127.268 97.1891 108.894 117.788 100.268 115.634C91.6416 113.48 75.3304 90.13 70.1011 75.3049C66.4827 65.0467 72.1912 66.6934 78.1834 71.7232C84.1757 76.7521 99.8494 89.2345 100.534 89.049C101.219 88.8628 109.87 78.7417 109.87 78.7417Z" fill="#7966FF"/>
<path opacity="0.1" d="M103.978 115.444C102.621 115.811 101.364 115.911 100.267 115.635C91.6442 113.481 75.3314 90.1311 70.1029 75.3061C67.719 68.5447 69.3829 66.958 72.5181 68.1083C81.9159 82.0519 94.4264 100.741 103.978 115.444Z" fill="black"/>
<path d="M121.623 100.254C119.103 97.7098 109.172 86.924 107.185 84.4481C107.047 84.2766 107.122 84.1473 107.289 84.307C115.023 91.748 119.376 97.529 121.72 100.15C121.778 100.216 121.687 100.318 121.623 100.254Z" fill="#263238"/>
<path d="M91.8167 129.716C91.8167 129.716 34.701 140.162 34.4079 139.813C34.1453 139.508 40.6932 77.72 60.0796 67.2771C63.1532 65.621 70.5716 64.6469 73.738 67.8779C82.7672 77.0934 92.5664 128.879 91.8167 129.716Z" fill="#7966FF"/>
<path d="M91.2226 124.589L34.9727 134.239C35.1862 132.541 35.4675 130.513 35.8198 128.234L90.1845 118.906C90.6007 121.06 90.9475 122.984 91.2226 124.589Z" fill="#EBEBEB"/>
<path d="M89.578 115.89L36.3223 125.028C36.4867 124.017 36.6652 122.974 36.8592 121.901L88.967 112.961C89.1845 113.96 89.3855 114.944 89.578 115.89Z" fill="#EBEBEB"/>
<path d="M71.2191 77.2726C68.0317 77.2571 63.9691 71.3973 62.8282 67.1687C62.7518 66.8788 63.7961 64.2751 64.916 61.0511C65.5877 59.0918 66.2899 56.8949 66.7856 54.8438L78.8955 61.0791C78.8955 61.0791 76.5918 65.0731 75.7486 68.6549C75.6815 68.9549 75.6441 69.2402 75.6332 69.5176C75.6278 69.5574 75.6278 69.6072 75.6184 69.6618C75.4929 71.3241 74.3006 77.2867 71.2191 77.2726Z" fill="#FFB092"/>
<path d="M78.8985 61.0858C78.8985 61.0858 76.5917 65.0775 75.7485 68.6663C75.6838 68.9616 75.6386 69.2476 75.6347 69.5266C75.6324 69.5664 75.63 69.6155 75.6176 69.6646C75.2014 69.6334 74.7572 69.5508 74.2771 69.416C66.8346 67.4381 66.9624 57.6599 67.1385 55.0312L78.8985 61.0858Z" fill="#263238"/>
<path d="M66.2623 40.7336C64.3241 45.2412 65.3014 58.9884 68.2878 62.359C72.6169 67.2453 80.446 68.5304 84.7845 63.157C88.9905 57.948 87.3999 40.0548 83.995 36.9157C78.9793 32.2919 69.1248 34.075 66.2623 40.7336Z" fill="#FFB092"/>
<path d="M78.8101 50.6252C78.8 50.5909 78.7423 50.6751 78.747 50.7125C78.8608 51.6274 78.8366 52.6951 78.0347 53.0762C78.0097 53.0879 78.0168 53.1339 78.0472 53.1269C79.047 52.8915 79.0642 51.4739 78.8101 50.6252Z" fill="#263238"/>
<path d="M77.9015 49.7423C76.4146 49.7657 76.5712 52.738 77.949 52.7154C79.3043 52.6936 79.1476 49.722 77.9015 49.7423Z" fill="#263238"/>
<path d="M84.2147 50.3375C84.2201 50.3017 84.2887 50.3773 84.2903 50.4155C84.3098 51.3374 84.4874 52.3903 85.3361 52.6521C85.3626 52.6607 85.3626 52.7067 85.3314 52.7035C84.3074 52.6139 84.0861 51.2143 84.2147 50.3375Z" fill="#263238"/>
<path d="M84.9859 49.3292C86.4603 49.1382 86.7331 52.102 85.367 52.2781C84.0226 52.4519 83.7499 49.4881 84.9859 49.3292Z" fill="#263238"/>
<path d="M76.6576 48.4504C77.0574 48.3273 77.4049 48.1473 77.7876 47.9844C78.2193 47.8005 78.5817 47.6992 78.849 47.2893C78.9924 47.0695 78.9083 46.6931 78.708 46.5341C78.2412 46.1631 77.6567 46.2566 77.1283 46.4569C76.5547 46.6736 76.1689 46.9877 75.8619 47.5168C75.5634 48.0288 76.1307 48.6125 76.6576 48.4504Z" fill="#263238"/>
<path d="M86.0583 47.7676C85.6429 47.7224 85.2673 47.611 84.8612 47.5237C84.4022 47.4255 84.0274 47.3935 83.6876 47.0421C83.5052 46.8535 83.5169 46.4685 83.6837 46.2736C84.071 45.8209 84.6625 45.8022 85.2197 45.8988C85.8237 46.0032 86.2625 46.2378 86.6646 46.6999C87.0527 47.1465 86.6069 47.8268 86.0583 47.7676Z" fill="#263238"/>
<path d="M78.2658 58.8104C78.4536 59.0551 78.6297 59.3808 78.957 59.4557C79.2711 59.5281 79.6639 59.4377 79.9709 59.3668C80.0013 59.3598 80.0263 59.3949 80.0037 59.419C79.7169 59.7354 79.1869 59.8835 78.7747 59.7487C78.3718 59.617 78.2182 59.2312 78.1723 58.8384C78.166 58.7839 78.2385 58.7745 78.2658 58.8104Z" fill="#263238"/>
<path d="M79.2864 56.1059C79.8436 56.8774 80.6245 57.2741 81.4521 57.3902C81.8215 57.4448 82.2073 57.437 82.5821 57.3824C82.6562 57.377 82.9227 57.324 82.9959 57.3053C83.1027 57.2835 83.1565 57.1915 83.1697 57.0894L83.1689 57.0832C83.1666 57.0497 83.0053 55.1177 83.0053 55.1177C83.271 55.2338 84.6232 55.7583 84.5826 55.3889C84.2374 52.3332 83.854 48.9354 82.8658 45.9669C82.8385 45.8672 82.685 45.8991 82.699 45.9996C82.9141 48.9494 83.6467 51.8414 83.9101 54.8013C83.4807 54.6634 82.7777 54.4031 82.4068 54.4304C82.3538 54.4459 82.6702 56.8353 82.6647 56.8556C81.4817 57.0707 80.5652 56.7582 79.3674 56.0194C79.2965 55.9703 79.2264 56.0358 79.2864 56.1059Z" fill="#263238"/>
<path d="M82.2812 57.2378C82.2812 57.2378 81.6235 58.1324 80.7194 58.4574C80.3867 58.5782 80.0274 58.6265 79.6502 58.5275C78.8763 58.3272 78.8545 57.6173 78.994 57.0094C79.107 56.5091 79.3377 56.0781 79.3377 56.0781C79.3377 56.0781 80.4701 57.1325 82.2812 57.2378Z" fill="#263238"/>
<path d="M80.7175 58.4558C80.3847 58.5766 80.0254 58.6249 79.6483 58.5259C78.8744 58.3256 78.8526 57.6157 78.9921 57.0078C79.822 57.0904 80.6442 57.65 80.7175 58.4558Z" fill="#FF9CBD"/>
<path d="M64.9964 53.1483C68.579 53.4265 70.4821 49.166 69.6685 45.7206C69.6685 45.7206 79.1902 47.0556 79.7038 39.4065C79.7038 39.4065 81.9685 42.8831 86.2906 43.028L86.9195 45.7159C87.8992 45.4408 88.9606 42.6695 86.5844 40.4718C86.5844 40.4718 86.4473 36.6563 83.6526 34.3464C80.858 32.0365 78.0524 33.5211 78.0524 33.5211C78.0524 33.5211 75.8306 31.6382 72.3158 32.0622C68.8011 32.4861 67.3321 35.6775 67.3321 35.6775C67.3321 35.6775 62.6031 36.5448 61.7747 39.8928C60.9463 43.2408 62.6631 45.5024 62.6631 45.5024C62.6631 45.5024 61.4684 46.8109 62.049 49.678C62.4223 51.5211 63.921 53.0649 64.9964 53.1483Z" fill="#263238"/>
<path d="M79.4968 38.7266C79.5552 39.3516 79.5755 39.9782 79.5046 40.5954C79.464 41.2142 79.3308 41.8197 79.1453 42.4003C78.7525 43.5545 77.9818 44.5606 76.918 45.1303C75.8846 45.7825 74.6128 45.8768 73.3978 45.9867C72.7806 45.9634 72.1563 45.9844 71.536 45.9259C70.9164 45.8589 70.2969 45.7763 69.668 45.7218C70.2758 45.8745 70.8931 46 71.5103 46.141C72.1322 46.2439 72.7681 46.2626 73.4009 46.3265C74.6595 46.2844 75.989 46.1878 77.1362 45.5145C78.2756 44.8668 79.1282 43.7462 79.4687 42.5008C79.8054 41.2562 79.7929 39.947 79.4968 38.7266Z" fill="#263238"/>
<path d="M84.3788 43.181C83.3205 42.7867 82.3339 42.291 81.4992 41.6029C81.0721 41.2709 80.7152 40.8641 80.3918 40.4308C80.0543 39.9998 79.8432 39.4917 79.6016 38.9766C79.6647 39.5361 79.8057 40.1105 80.105 40.6116C80.3817 41.122 80.7666 41.5787 81.2194 41.9434C81.673 42.3066 82.1757 42.6074 82.7142 42.8108C83.2496 43.0166 83.8091 43.1631 84.3788 43.181Z" fill="#263238"/>
<path d="M76.9974 55.2771C75.2111 55.1906 73.6369 53.9039 73.2644 52.0733C72.8241 49.9075 74.2276 47.787 76.3926 47.3467C78.5591 46.9056 80.6781 48.3091 81.1192 50.4749C81.5595 52.6398 80.1567 54.7604 77.991 55.2015C77.6567 55.2685 77.3239 55.2927 76.9974 55.2771ZM77.3597 47.8049C77.0776 47.7909 76.7885 47.8119 76.4994 47.8712C74.6235 48.253 73.4078 50.0899 73.7889 51.9657C74.1715 53.8408 76.0092 55.0589 77.8834 54.6754C79.7593 54.2936 80.975 52.4567 80.5939 50.5801C80.2713 48.9942 78.9075 47.8797 77.3597 47.8049Z" fill="#263238"/>
<path d="M86.1697 54.5985C84.6375 54.5244 83.3244 52.8879 83.181 50.8016C83.1085 49.7487 83.3407 48.7349 83.8348 47.9485C84.3445 47.1341 85.0724 46.6548 85.8844 46.5995C86.6988 46.5418 87.4828 46.919 88.0993 47.6563C88.6955 48.3693 89.0633 49.3412 89.135 50.3932C89.2854 52.598 88.0736 54.4831 86.4323 54.5961C86.3435 54.6016 86.257 54.6031 86.1697 54.5985ZM86.1245 47.1318C86.0567 47.1287 85.9889 47.1294 85.9211 47.1341C85.2851 47.1778 84.7053 47.5682 84.2884 48.233C83.8551 48.925 83.6517 49.8243 83.7156 50.765C83.8473 52.6751 85.0443 54.1558 86.3957 54.0615C87.7423 53.9696 88.7305 52.34 88.6004 50.4307C88.5357 49.49 88.2115 48.6265 87.6878 47.9999C87.2381 47.4622 86.6895 47.1591 86.1245 47.1318Z" fill="#263238"/>
<path d="M81.0163 50.9476L80.6445 50.5619C81.2158 50.0109 82.5718 49.23 83.6192 50.2081L83.2537 50.5993C82.317 49.7218 81.0693 50.8978 81.0163 50.9476Z" fill="#263238"/>
<path d="M64.0699 53.2826L63.5781 53.0698C63.6779 52.8407 64.5827 50.8215 65.7633 50.5464C66.8669 50.2923 73.2791 50.3804 73.5854 50.3882L73.5714 50.9236C71.5038 50.8698 66.7375 50.8683 65.8857 51.0678C65.1056 51.2501 64.3107 52.7285 64.0699 53.2826Z" fill="#263238"/>
<path d="M68.3777 52.9044C68.3777 52.9044 65.7171 48.2627 63.6379 49.173C61.5586 50.0832 63.2848 56.6194 65.5332 57.6949C67.7807 58.7703 68.8172 56.7082 68.8172 56.7082L68.3777 52.9044Z" fill="#FFB092"/>
<path d="M64.1782 51.0319C64.1416 51.0249 64.1291 51.0771 64.1603 51.0927C65.7322 51.9001 66.4546 53.4899 66.9144 55.1124C66.4835 54.4648 65.853 54.0751 64.9926 54.5794C64.9474 54.6059 64.9817 54.676 65.0285 54.6706C65.7096 54.5879 66.1811 54.7469 66.584 55.3228C66.87 55.7304 67.0446 56.2292 67.2347 56.6874C67.2978 56.8402 67.5683 56.7856 67.5277 56.6126C67.5246 56.6002 67.5207 56.5869 67.5176 56.5737C67.7467 54.4983 66.3923 51.4426 64.1782 51.0319Z" fill="#263238"/>
<path d="M75.8061 71.1281C75.8045 71.1009 75.7632 71.0993 75.7616 71.1274C75.633 73.7256 75.1584 79.7303 70.9743 78.9066C69.2886 78.5746 67.8531 77.3884 66.6716 76.2498C65.4582 75.0809 62.8218 71.8132 61.0815 68.2283C61.0472 68.1581 60.9475 68.2104 60.9701 68.2875C61.2545 69.2656 62.0152 71.0183 63.0057 72.6299C63.9588 74.1815 65.0787 75.6505 66.4339 76.9053C67.7034 78.0805 69.2403 79.276 71.0343 79.5448C72.741 79.8004 74.1056 78.9229 74.782 77.4617C75.6705 75.5422 75.9035 73.2066 75.8061 71.1281Z" fill="#263238"/>
<path d="M53.673 72.205C44.7544 80.0224 21.8984 110.781 27.5103 117.373C33.162 124.011 68.3975 119.389 78.5419 115.748C81.5595 114.665 72.4165 95.6104 69.0739 94.8514C66.291 94.2193 51.2212 99.3644 50.8877 98.4939C50.5105 97.5104 53.493 90.8246 58.2157 78.6547C63.66 64.623 57.6117 68.7526 53.673 72.205Z" fill="#FFB092"/>
<path d="M83.9629 90.4819C91.061 90.2091 92.9251 91.2285 98.7926 87.8174C102.643 85.5792 105.725 87.0771 103.263 91.0009C99.2353 97.4187 90.1523 99.6935 86.7755 99.575L83.9629 90.4819Z" fill="#FFB092"/>
<path d="M64.6934 95.3549C64.6934 95.3549 72.9963 91.7762 80.5315 90.7374C85.7421 90.0189 97.2527 89.7204 107.003 102.026C109.315 104.944 110.541 110.743 105.032 107.349C101.119 104.937 99.3662 102.225 96.835 101.236C96.835 101.236 97.5176 108.798 94.5032 111.001C93.1565 111.985 89.4166 114.585 86.2159 116.195C86.2159 116.195 85.6782 115.592 85.1046 114.731C85.1046 114.731 82.0941 116.523 76.8695 115.491L64.6934 95.3549Z" fill="#FFB092"/>
<path d="M85.6142 90.8438C87.9194 92.3564 92.7512 95.6436 95.768 99.707C99.1191 104.221 104.358 113.819 101.001 116.259C98.5392 118.048 96.2169 114.559 96.2169 114.559C96.2169 114.559 97.5464 118.983 94.9684 120.113C92.6195 121.142 90.9845 118.335 90.9845 118.335C90.9845 118.335 91.3297 121.157 88.8764 121.713C85.9259 122.381 85.6867 116.357 82.1135 114.452C81.3108 114.024 85.6142 90.8438 85.6142 90.8438Z" fill="#FFB092"/>
<path d="M90.4082 102.46C92.3424 104.238 95.7005 109.403 96.2655 114.46C96.278 114.575 96.1985 114.646 96.1642 114.544C94.3601 109.108 91.6395 104.414 90.3653 102.492C90.3489 102.466 90.3871 102.44 90.4082 102.46Z" fill="#263238"/>
<path d="M85.9503 105.969C87.4614 107.675 90.6846 113.153 91.0813 118.298C91.0899 118.412 91.0057 118.478 90.9761 118.375C89.3247 112.617 87.0631 107.993 85.9058 105.998C85.8902 105.972 85.9308 105.948 85.9503 105.969Z" fill="#263238"/>
<path d="M96.843 101.191C99.0563 102.091 100.428 103.359 102.219 104.889C103.105 105.646 104.005 106.391 104.971 107.046C105.85 107.642 107.143 108.539 108.213 107.851C108.807 107.468 108.88 106.67 108.82 106.029C108.753 105.309 108.186 103.936 107.826 103.308C107.808 103.276 107.863 103.243 107.881 103.275C108.216 103.836 108.857 105.091 109.021 105.724C109.168 106.297 109.262 106.955 109.048 107.525C108.587 108.749 107.086 108.766 106.071 108.314C105.463 108.045 104.902 107.65 104.363 107.265C103.841 106.893 103.338 106.495 102.845 106.086C101.835 105.244 100.873 104.345 99.8722 103.492C98.7726 102.554 97.9964 102.073 96.7994 101.264C96.7604 101.237 96.7986 101.173 96.843 101.191Z" fill="#263238"/>
<path d="M100.813 109.703C100.354 108.343 97.7007 102.605 96.7897 101.247C96.7663 101.212 96.8139 101.176 96.8411 101.208C98.4504 103.072 100.859 107.835 101.381 109.336C101.897 110.82 102.473 112.707 102.314 114.287C102.076 116.671 100.449 116.963 99.8532 117.022C99.1417 117.091 98.452 116.874 97.8581 116.486C97.1973 116.055 96.598 115.238 96.1927 114.574C96.1717 114.539 96.2192 114.499 96.2442 114.534C96.976 115.556 98.2548 116.62 99.5672 116.58C100.137 116.563 100.732 116.364 101.121 115.932C101.579 115.426 101.684 114.709 101.695 114.051C101.719 112.561 101.286 111.1 100.813 109.703Z" fill="#263238"/>
<path d="M64.6953 95.3774L73.3988 119.693C73.3988 119.693 29.272 125.056 26.302 117.17C23.332 109.285 43.0419 81.5655 51.4531 73.7614C61.2009 64.7173 61.9802 68.204 59.1692 76.8054C56.2257 85.8105 50.9925 98.7363 50.9925 98.7363L64.6953 95.3774Z" fill="#7966FF"/>
<path d="M37.2558 103.6C39.388 102.403 41.6379 101.411 43.9198 100.535C46.1798 99.6678 48.5225 99.0474 50.8831 98.5214C52.2313 98.2213 53.5896 97.9868 54.9488 97.7428C54.9901 97.7351 55.0002 97.799 54.9589 97.8075C52.582 98.2985 50.237 98.9999 47.9341 99.7605C45.6398 100.519 43.3634 101.316 41.0994 102.158C39.8182 102.635 38.5604 103.172 37.2963 103.69C37.2356 103.714 37.2013 103.631 37.2558 103.6Z" fill="#263238"/>
<path d="M64.5869 95.304C64.3641 95.3391 52.1716 98.0511 51.7663 98.1929C51.8333 98.0199 54.5804 91.9568 54.9896 91.0699C55.0301 90.9819 55.0667 90.8915 55.1065 90.8034C55.3629 90.4153 55.6208 90.0288 55.8624 89.6305C56.171 89.1201 56.4758 88.6065 56.782 88.0945C56.7914 88.0789 56.7688 88.0625 56.7586 88.0781C56.4306 88.5753 56.1009 89.0717 55.7759 89.5705C55.6255 89.8012 55.4829 90.0366 55.3411 90.2727C55.6138 89.6446 55.8788 89.0141 56.1438 88.3797C56.5662 87.3689 56.955 86.3488 57.3416 85.324C57.3541 85.2913 57.305 85.2741 57.2901 85.3061C56.4804 87.0736 55.6154 88.8146 54.8002 90.579C53.9866 92.341 50.881 98.8359 50.9005 98.832C50.92 98.8515 64.3594 95.5495 64.6197 95.47C64.721 95.4388 64.696 95.2868 64.5869 95.304Z" fill="#263238"/>
<path d="M63.8624 110.522C62.9077 107.81 61.9741 105.09 60.9189 102.412C60.3196 100.891 59.7281 99.3656 59.114 97.8506C59.0906 97.793 58.9901 97.8249 59.008 97.8849C59.8582 100.645 60.717 103.411 61.6943 106.132C62.6653 108.84 63.6146 111.555 64.6214 114.25C65.1942 115.782 65.8107 117.292 66.4755 118.789C66.4887 118.818 66.5401 118.803 66.5308 118.771C65.7733 115.979 64.8233 113.253 63.8624 110.522Z" fill="#263238"/>
<path d="M73.9184 120.118C73.5576 119.36 73.1157 118.275 72.7237 117.534C72.6201 117.337 72.4743 117.361 72.553 117.564C72.8164 118.245 73.0159 119.003 73.2747 119.701C72.6567 119.761 72.0379 119.807 71.4199 119.873C70.7053 119.949 69.9914 120.03 69.2768 120.104C67.8779 120.249 66.4767 120.38 65.0747 120.496C62.2356 120.731 59.3918 120.906 56.545 121.021C50.8396 121.251 45.11 121.274 39.41 120.911C37.8155 120.81 36.2218 120.677 34.6343 120.496C33.0219 120.312 31.2809 120.102 29.9623 119.8C29.9202 119.79 29.9046 119.861 29.9467 119.875C31.3027 120.298 32.5738 120.603 33.9766 120.814C35.4082 121.029 36.8468 121.204 38.2886 121.333C41.1604 121.588 44.0454 121.69 46.9274 121.714C52.6429 121.762 58.3631 121.562 64.0631 121.135C65.6599 121.016 67.256 120.877 68.8497 120.719C69.654 120.64 70.4582 120.56 71.2609 120.466C72.066 120.373 73.98 120.247 73.9184 120.118Z" fill="#263238"/>
<path d="M130.768 119.57H75.2129V122.059H130.768V119.57Z" fill="#C7C7C7"/>
<path d="M130.769 119.57V122.059H93.0059L94.909 119.57H130.769Z" fill="#A6A6A6"/>
<path d="M100.643 122.063H149.266L156.302 87.7578H107.678L100.643 122.063Z" fill="#A6A6A6"/>
<path d="M102.914 122.063H151.538L158.573 87.7578H109.95L102.914 122.063Z" fill="#C7C7C7"/>
<path d="M135.128 103.629C135.179 105.25 134.094 106.798 132.705 107.088C131.317 107.378 130.15 106.299 130.099 104.678C130.049 103.057 131.134 101.509 132.522 101.219C133.911 100.929 135.078 102.008 135.128 103.629Z" fill="white"/>
<path d="M243.996 193.258C243.271 195.144 208.38 237.45 206.03 238.223C205.14 238.521 198.683 233.799 191.041 227.871C189.391 226.592 187.695 225.26 185.98 223.897C174.835 215.068 163.215 205.438 163.215 205.438L186.473 177.07L208.598 196.31L213.458 200.529C213.458 200.529 234.061 190.306 236.73 189.736C239.39 189.174 244.719 191.372 243.996 193.258Z" fill="#FFB092"/>
<path d="M243.996 193.26C243.272 195.146 208.381 237.452 206.031 238.225C204.946 238.582 195.638 231.538 185.98 223.899L208.598 196.312L213.458 200.531C213.458 200.531 234.062 190.308 236.73 189.738C239.391 189.176 244.72 191.374 243.996 193.26Z" fill="#EBEBEB"/>
<path d="M243.995 193.259C243.27 195.145 208.379 237.451 206.03 238.224C205.14 238.522 198.682 233.8 191.041 227.873L213.457 200.532C213.457 200.532 234.061 190.308 236.73 189.738C239.39 189.175 244.719 191.373 243.995 193.259Z" fill="#7966FF"/>
<path d="M207.454 191.975L181.56 222.668L103.451 167.049L95.7596 161.569C95.7596 161.569 93.5455 163.02 90.2162 164.809C85.5925 167.292 78.8225 170.425 72.8584 171.229C62.8527 172.586 47.7938 172.244 39.5135 160.885C32.5394 151.32 34.9249 138.982 34.9249 138.982L45.9476 134.407C45.9476 134.407 72.1617 113.101 88.9794 112.654C96.1227 112.456 106.453 117.994 116.013 123.764C125.564 129.527 207.454 191.975 207.454 191.975Z" fill="#263238"/>
<path d="M95.76 161.567C95.76 161.567 93.546 163.018 90.2167 164.807C84.4567 157.738 72.2354 144.878 71.8652 144.422L95.76 161.567Z" fill="#37474F"/>
<path d="M55.5471 127.287C53.983 128.345 52.4688 129.471 50.925 130.558C49.4069 131.628 47.8396 132.631 46.3948 133.8C44.925 134.99 43.53 136.263 42.1428 137.548C41.4734 138.168 40.8102 138.793 40.1625 139.435C39.5212 140.071 38.8042 140.71 38.2696 141.44C38.2197 141.508 38.3171 141.59 38.3826 141.55C39.1292 141.084 39.8025 140.44 40.4821 139.883C41.2162 139.281 41.941 138.67 42.672 138.064C44.081 136.895 45.5173 135.76 46.9232 134.587C48.3197 133.423 49.6165 132.146 50.9998 130.967C52.4813 129.704 54.0407 128.531 55.5775 127.337C55.6064 127.314 55.5791 127.265 55.5471 127.287Z" fill="#37474F"/>
<path d="M199.458 189.026C197.89 190.677 196.436 192.456 194.971 194.202C193.502 195.954 192.041 197.713 190.59 199.481C187.687 203.018 184.761 206.538 181.907 210.115C180.339 212.079 178.791 214.06 177.331 216.106C177.266 216.197 177.411 216.303 177.486 216.223C180.603 212.878 183.458 209.304 186.355 205.77C189.257 202.23 192.149 198.68 194.998 195.096C196.557 193.135 198.162 191.184 199.598 189.132C199.656 189.047 199.526 188.954 199.458 189.026Z" fill="#37474F"/>
<path d="M140.755 193.523C136.79 190.32 127.765 184.05 123.651 181.04C119.558 178.046 115.467 175.044 111.311 172.138C110.118 171.304 108.914 170.487 107.711 169.665C106.511 168.846 105.26 168.088 104.085 167.239C104.016 167.19 103.954 167.303 104.02 167.352C105.1 168.146 106.117 169.034 107.177 169.857C108.19 170.643 109.194 171.438 110.214 172.213C112.206 173.726 114.219 175.21 116.228 176.7C120.302 179.722 124.407 182.707 128.555 185.626C130.91 187.284 138.165 192.189 140.574 193.767C140.716 193.86 140.89 193.633 140.755 193.523Z" fill="#37474F"/>
<path d="M166.406 160.593C162.744 157.482 154.383 151.487 150.541 148.606C146.655 145.691 142.789 142.75 138.887 139.857C135.015 136.986 131.144 134.115 127.272 131.244C123.52 128.461 119.785 125.634 115.816 123.162C113.644 121.809 111.415 120.553 109.121 119.417C106.893 118.315 104.578 117.192 102.19 116.487C102.118 116.466 102.078 116.571 102.141 116.607C104.099 117.732 106.157 118.683 108.139 119.77C110.098 120.844 112.027 121.972 113.923 123.153C117.864 125.608 121.579 128.387 125.311 131.142C133.063 136.861 140.799 142.604 148.608 148.245C152.977 151.402 161.684 157.921 166.227 160.83C166.369 160.922 166.537 160.704 166.406 160.593Z" fill="#37474F"/>
</g>
</svg>
