<svg width="13" height="13" viewBox="0 0 13 13" fill="none" xmlns="http://www.w3.org/2000/svg">
<g clip-path="url(#clip0_1436_2831)">
<path d="M11.1042 10.8329C11.0598 10.8329 11.0154 10.8253 10.9731 10.8113L0.275191 7.15501C0.121358 7.10193 0.0141076 6.96326 0.00110756 6.80131C-0.0108091 6.63935 0.0742326 6.48551 0.217774 6.41022L12.4053 0.045639C12.5412 -0.024236 12.7054 -0.0134027 12.8289 0.074889C12.9534 0.163722 13.0179 0.314306 12.9957 0.465972L11.5061 10.4868C11.4882 10.606 11.4184 10.7111 11.3149 10.7739C11.251 10.8129 11.1779 10.8329 11.1042 10.8329ZM1.43327 6.69189L10.7738 9.88447L12.0743 1.13547L1.43327 6.69189Z" fill="#7966FF"/>
<path d="M5.14648 12.4587C5.10423 12.4587 5.06144 12.4522 5.02028 12.4387C4.8529 12.3834 4.74023 12.228 4.74023 12.0525V8.3962C4.74023 8.29383 4.77923 8.19416 4.84911 8.11887L12.297 0.129286C12.4498 -0.0353803 12.7082 -0.0435053 12.8717 0.109245C13.0359 0.261995 13.0445 0.519286 12.8918 0.683953L5.55273 8.55599V10.8137L6.90853 8.9682C7.04123 8.78837 7.29582 8.74829 7.47673 8.88154C7.65765 9.01425 7.69611 9.26883 7.5634 9.44975L5.47419 12.2935C5.39565 12.3991 5.27323 12.4587 5.14648 12.4587Z" fill="#7966FF"/>
</g>
<defs>
<clipPath id="clip0_1436_2831">
<rect width="13" height="13" fill="white"/>
</clipPath>
</defs>
</svg>
