<svg width="16" height="16" viewBox="0 0 16 16" fill="none" xmlns="http://www.w3.org/2000/svg">
<g clip-path="url(#clip0_1444_3247)">
<path d="M7.38209 10.8538C7.50427 10.7316 7.50427 10.5339 7.38209 10.4117C7.25978 10.2899 7.06164 10.2899 6.9392 10.4117C6.81714 10.5339 6.81714 10.7316 6.9392 10.8538C7.06164 10.9756 7.25978 10.9756 7.38209 10.8538Z" fill="#7966FF"/>
<path d="M5.90039 3.43652C5.90039 5.33142 7.44503 6.87317 9.34364 6.87317C11.2422 6.87317 12.7869 5.33142 12.7869 3.43652C12.7869 1.54163 11.2422 0 9.34364 0C7.44503 0 5.90039 1.54163 5.90039 3.43652ZM12.1609 3.43652C12.1609 4.98694 10.8971 6.24829 9.34364 6.24829C7.79019 6.24829 6.52637 4.98694 6.52637 3.43652C6.52637 1.88623 7.79019 0.624878 9.34364 0.624878C10.8971 0.624878 12.1609 1.88623 12.1609 3.43652Z" fill="#7966FF"/>
<path d="M3.62115 15.9054C3.74248 16.0275 3.94001 16.0288 4.06293 15.908L5.58054 14.4158C5.83837 14.1585 5.91677 13.7775 5.80339 13.4463L6.12983 13.1321C6.30559 12.9627 6.537 12.8693 6.78162 12.8693H10.9429C11.6812 12.8693 12.379 12.5863 12.908 12.0725C12.9297 12.0514 12.7427 12.2713 15.7469 8.68778C16.1925 8.16165 16.1258 7.37161 15.5982 6.92642C15.0738 6.48538 14.2883 6.54874 13.8415 7.06583L11.9944 8.96061C11.7612 8.67411 11.4055 8.49552 11.0212 8.49552H7.53064C7.03394 8.28812 6.50691 8.18314 5.96312 8.18314C4.45579 8.18314 3.13962 8.87796 2.43328 10.1807C2.1357 10.1244 1.82186 10.2143 1.59607 10.4396L0.10696 11.9302C-0.0146157 12.0519 -0.0148604 12.2488 0.10647 12.3709L3.62115 15.9054ZM5.963 8.80789C6.44245 8.80789 6.90601 8.90421 7.34106 9.09415C7.38069 9.11148 7.42337 9.1204 7.46655 9.1204H11.0212C11.3606 9.1204 11.6473 9.39664 11.6473 9.74515C11.6473 10.0898 11.3665 10.37 11.0212 10.37H8.46728C8.29446 10.37 8.15429 10.5099 8.15429 10.6824C8.15429 10.855 8.29446 10.9948 8.46728 10.9948H11.0212C11.7117 10.9948 12.2733 10.4342 12.2733 9.74515C12.2733 9.69022 12.2694 9.63578 12.2623 9.58182C14.0491 7.74869 14.3011 7.49112 14.3118 7.4783C14.5349 7.21549 14.931 7.18216 15.1944 7.40384C15.4581 7.62638 15.4915 8.0214 15.2678 8.28568L12.4602 11.6355C12.0502 12.0284 11.5119 12.2445 10.9429 12.2445H6.78162C6.37384 12.2445 5.98783 12.4002 5.69502 12.6825L5.429 12.9388L2.9767 10.4914C3.54984 9.41825 4.62531 8.80789 5.963 8.80789ZM2.03908 10.8811C2.14231 10.7781 2.30082 10.7596 2.42668 10.8372C2.48086 10.8702 2.32528 10.7288 5.1379 13.532C5.26303 13.6569 5.2563 13.8559 5.13962 13.9723L3.84583 15.2444L0.77012 12.1513L2.03908 10.8811Z" fill="#7966FF"/>
<path d="M8.96838 1.5625V1.92859C8.60402 2.0575 8.34227 2.40479 8.34227 2.81213C8.34227 3.32886 8.76351 3.74939 9.28136 3.74939C9.45394 3.74939 9.59435 3.88953 9.59435 4.06177C9.59435 4.23401 9.45394 4.37415 9.28136 4.37415C9.14768 4.37415 9.00323 4.29028 8.87493 4.13782C8.76363 4.00574 8.56622 3.98877 8.43388 4.09973C8.30155 4.21082 8.28442 4.40784 8.39572 4.53992C8.56304 4.73853 8.75984 4.87695 8.96838 4.94678V5.3114C8.96838 5.48401 9.10854 5.62378 9.28136 5.62378C9.45419 5.62378 9.59435 5.48401 9.59435 5.3114V4.94531C9.95871 4.81629 10.2205 4.469 10.2205 4.06177C10.2205 3.54492 9.79922 3.12451 9.28136 3.12451C9.10879 3.12451 8.96838 2.98438 8.96838 2.81213C8.96838 2.63989 9.10879 2.49963 9.28136 2.49963C9.3923 2.49963 9.50935 2.55615 9.61992 2.66296C9.74418 2.78296 9.94232 2.77966 10.0626 2.65576C10.1828 2.53174 10.1795 2.33398 10.0553 2.21399C9.89646 2.06055 9.73746 1.97376 9.59435 1.92639V1.5625C9.59435 1.38989 9.45419 1.25 9.28136 1.25C9.10854 1.25 8.96838 1.38989 8.96838 1.5625Z" fill="#7966FF"/>
</g>
<defs>
<clipPath id="clip0_1444_3247">
<rect width="16" height="16" fill="white"/>
</clipPath>
</defs>
</svg>
