<?xml version="1.0" standalone="no"?>
<!DOCTYPE svg PUBLIC "-//W3C//DTD SVG 20010904//EN"
 "http://www.w3.org/TR/2001/REC-SVG-20010904/DTD/svg10.dtd">
<svg version="1.0" xmlns="http://www.w3.org/2000/svg"
 width="92.000000pt" height="74.000000pt" viewBox="0 0 92.000000 74.000000"
 preserveAspectRatio="xMidYMid meet">
<metadata>
Created by potrace 1.16, written by Peter Selinger 2001-2019
</metadata>
<g transform="translate(0.000000,74.000000) scale(0.100000,-0.100000)"
fill="#000000" stroke="none">
<path d="M165 721 c-22 -10 -51 -30 -64 -45 -18 -19 -34 -26 -63 -26 l-38 0 0
-290 0 -290 49 0 c33 0 53 -5 62 -17 8 -9 32 -24 54 -34 35 -16 69 -19 256
-19 214 0 215 0 270 27 29 15 56 30 57 35 2 4 42 8 88 8 l84 0 0 290 0 290
-78 0 c-72 0 -81 2 -103 26 -52 57 -84 64 -319 64 -188 0 -220 -3 -255 -19z
m356 -200 c16 -16 29 -37 29 -47 0 -10 7 -25 16 -35 9 -10 16 -35 16 -56 0
-51 -45 -93 -102 -93 -37 0 -39 -2 -45 -37 -12 -69 -15 -73 -47 -73 -28 0 -30
2 -26 30 4 29 3 30 -33 30 -21 0 -40 3 -42 8 -3 4 6 72 19 152 13 80 24 146
24 148 0 1 36 2 81 2 76 0 82 -2 110 -29z"/>
</g>
</svg>
