<svg width="13" height="13" viewBox="0 0 13 13" fill="none" xmlns="http://www.w3.org/2000/svg">
<g clip-path="url(#clip0_1369_2654)">
<path d="M12.2017 9.18125C12.1684 9.15484 9.75 7.41162 9.08619 7.53675C8.76931 7.59281 8.58813 7.80894 8.22453 8.24159C8.16603 8.31147 8.02547 8.47884 7.91619 8.59787C7.68641 8.52293 7.46227 8.4317 7.24547 8.32488C6.12646 7.7801 5.22234 6.87598 4.67756 5.75697C4.57066 5.5402 4.47943 5.31605 4.40456 5.08625C4.524 4.97656 4.69137 4.836 4.76288 4.77587C5.1935 4.41431 5.41003 4.23312 5.46609 3.91544C5.58106 3.25731 3.83906 0.82225 3.82078 0.800313C3.74174 0.687404 3.6386 0.593475 3.5188 0.525323C3.39901 0.457171 3.26557 0.416499 3.12812 0.40625C2.42206 0.40625 0.40625 3.02128 0.40625 3.46166C0.40625 3.48725 0.443219 6.08887 3.65138 9.35228C6.91153 12.5568 9.51275 12.5938 9.53834 12.5938C9.97913 12.5938 12.5938 10.5779 12.5938 9.87187C12.5836 9.73491 12.5432 9.60192 12.4754 9.48248C12.4076 9.36305 12.3141 9.26016 12.2017 9.18125Z" fill="#7966FF"/>
</g>
<defs>
<clipPath id="clip0_1369_2654">
<rect width="13" height="13" fill="white"/>
</clipPath>
</defs>
</svg>
