<svg clip-rule="evenodd" fill-rule="evenodd" height="512" stroke-linejoin="round" stroke-miterlimit="2" viewBox="0 0 100 100" width="512" xmlns="http://www.w3.org/2000/svg"><g id="Layer2"><path d="m50 26.512c-2.19-5.094-5.253-11.427-7.947-14.12-4.022-4.022-10.553-4.022-14.575 0-4.022 4.023-4.022 10.554 0 14.576 1.563 1.563 4.353 3.252 7.416 4.822h-16.144c-5.178-.001-9.375 4.197-9.375 9.374v40.086c0 5.178 4.197 9.375 9.375 9.375h62.5c5.178 0 9.375-4.197 9.375-9.375v-40.086c0-5.177-4.197-9.375-9.375-9.374h-16.144c3.063-1.57 5.853-3.259 7.416-4.822 4.022-4.022 4.022-10.553 0-14.576-4.022-4.022-10.553-4.022-14.575 0-2.694 2.693-5.757 9.026-7.947 14.12zm34.375 45.476v9.262c0 1.726-1.399 3.125-3.125 3.125h-62.5c-1.726 0-3.125-1.399-3.125-3.125v-9.262zm-41.919-33.948h-23.706c-1.726 0-3.125 1.399-3.125 3.124v24.574h68.75v-24.574c0-1.725-1.399-3.124-3.125-3.124h-23.706l7.555 7.554c1.22 1.22 1.22 3.2 0 4.42-1.219 1.219-3.2 1.219-4.419 0l-10.68-10.68-10.68 10.68c-1.219 1.219-3.2 1.219-4.419 0-1.22-1.22-1.22-3.2 0-4.42zm12.957-8.539c1.881-4.565 4.547-10.284 6.953-12.689 1.583-1.583 4.154-1.583 5.737 0s1.583 4.153 0 5.737c-2.406 2.405-8.124 5.072-12.69 6.952zm-10.826 0c-4.566-1.88-10.284-4.547-12.69-6.952-1.583-1.584-1.583-4.154 0-5.737s4.154-1.583 5.737 0c2.406 2.405 5.072 8.124 6.953 12.689z"/></g></svg>