<svg width="17" height="17" viewBox="0 0 17 17" fill="none" xmlns="http://www.w3.org/2000/svg">
<path d="M8.5 15.4094H3.1875C3.0466 15.4094 2.91148 15.3534 2.81185 15.2538C2.71222 15.1541 2.65625 15.019 2.65625 14.8781C2.65808 13.3288 3.27434 11.8435 4.36986 10.748C5.46538 9.65245 6.9507 9.03618 8.5 9.03436C9.52681 9.03753 10.5203 8.67 11.2978 7.99933C12.0753 7.32865 12.5847 6.39988 12.7322 5.38373C12.8798 4.36757 12.6556 3.33229 12.1009 2.46818C11.5463 1.60406 10.6984 0.969155 9.71308 0.680156C8.72777 0.391158 7.67127 0.467481 6.73773 0.895098C5.80419 1.32272 5.05635 2.0729 4.63165 3.00776C4.20695 3.94263 4.13393 4.99937 4.426 5.98377C4.71808 6.96817 5.35562 7.81409 6.22147 8.36604C4.87096 8.83903 3.70052 9.71946 2.87162 10.8859C2.04273 12.0523 1.59624 13.4472 1.59375 14.8781C1.59375 15.3008 1.76166 15.7062 2.06055 16.0051C2.35943 16.3039 2.76481 16.4719 3.1875 16.4719H8.5C8.6409 16.4719 8.77602 16.4159 8.87565 16.3163C8.97528 16.2166 9.03125 16.0815 9.03125 15.9406C9.03125 15.7997 8.97528 15.6646 8.87565 15.565C8.77602 15.4653 8.6409 15.4094 8.5 15.4094ZM5.3125 4.78436C5.3125 4.15393 5.49944 3.53766 5.84969 3.01348C6.19994 2.4893 6.69776 2.08075 7.2802 1.83949C7.86264 1.59824 8.50354 1.53511 9.12185 1.6581C9.74016 1.78109 10.3081 2.08467 10.7539 2.53045C11.1997 2.97623 11.5033 3.54419 11.6263 4.16251C11.7492 4.78082 11.6861 5.42172 11.4449 6.00416C11.2036 6.5866 10.7951 7.08442 10.2709 7.43467C9.7467 7.78491 9.13043 7.97186 8.5 7.97186C7.65488 7.97101 6.84462 7.63492 6.24703 7.03733C5.64944 6.43974 5.31334 5.62948 5.3125 4.78436Z" fill="black"/>
</svg>
