<svg width="18" height="18" viewBox="0 0 18 18" fill="none" xmlns="http://www.w3.org/2000/svg">
<path d="M3.375 7.3125C3.52418 7.3125 3.66726 7.25324 3.77275 7.14775C3.87824 7.04226 3.9375 6.89918 3.9375 6.75V3.9375H6.75C6.89918 3.9375 7.04226 3.87824 7.14775 3.77275C7.25324 3.66726 7.3125 3.52418 7.3125 3.375C7.3125 3.22582 7.25324 3.08274 7.14775 2.97725C7.04226 2.87176 6.89918 2.8125 6.75 2.8125H3.375C3.22582 2.8125 3.08274 2.87176 2.97725 2.97725C2.87176 3.08274 2.8125 3.22582 2.8125 3.375V6.75C2.8125 6.89918 2.87176 7.04226 2.97725 7.14775C3.08274 7.25324 3.22582 7.3125 3.375 7.3125Z" fill="#555555"/>
<path d="M11.25 3.9375H14.0625V6.75C14.0625 6.89918 14.1218 7.04226 14.2273 7.14775C14.3327 7.25324 14.4758 7.3125 14.625 7.3125C14.7742 7.3125 14.9173 7.25324 15.0227 7.14775C15.1282 7.04226 15.1875 6.89918 15.1875 6.75V3.375C15.1875 3.22582 15.1282 3.08274 15.0227 2.97725C14.9173 2.87176 14.7742 2.8125 14.625 2.8125H11.25C11.1008 2.8125 10.9577 2.87176 10.8523 2.97725C10.7468 3.08274 10.6875 3.22582 10.6875 3.375C10.6875 3.52418 10.7468 3.66726 10.8523 3.77275C10.9577 3.87824 11.1008 3.9375 11.25 3.9375Z" fill="#555555"/>
<path d="M6.75 14.0625H3.9375V11.25C3.9375 11.1008 3.87824 10.9577 3.77275 10.8523C3.66726 10.7468 3.52418 10.6875 3.375 10.6875C3.22582 10.6875 3.08274 10.7468 2.97725 10.8523C2.87176 10.9577 2.8125 11.1008 2.8125 11.25V14.625C2.8125 14.7742 2.87176 14.9173 2.97725 15.0227C3.08274 15.1282 3.22582 15.1875 3.375 15.1875H6.75C6.89918 15.1875 7.04226 15.1282 7.14775 15.0227C7.25324 14.9173 7.3125 14.7742 7.3125 14.625C7.3125 14.4758 7.25324 14.3327 7.14775 14.2273C7.04226 14.1218 6.89918 14.0625 6.75 14.0625Z" fill="#555555"/>
<path d="M14.625 10.6875C14.4758 10.6875 14.3327 10.7468 14.2273 10.8523C14.1218 10.9577 14.0625 11.1008 14.0625 11.25V14.0625H11.25C11.1008 14.0625 10.9577 14.1218 10.8523 14.2273C10.7468 14.3327 10.6875 14.4758 10.6875 14.625C10.6875 14.7742 10.7468 14.9173 10.8523 15.0227C10.9577 15.1282 11.1008 15.1875 11.25 15.1875H14.625C14.7742 15.1875 14.9173 15.1282 15.0227 15.0227C15.1282 14.9173 15.1875 14.7742 15.1875 14.625V11.25C15.1875 11.1008 15.1282 10.9577 15.0227 10.8523C14.9173 10.7468 14.7742 10.6875 14.625 10.6875Z" fill="#555555"/>
<path d="M16.875 8.4375H1.125C0.975816 8.4375 0.832742 8.49676 0.727252 8.60225C0.621763 8.70774 0.5625 8.85082 0.5625 9C0.5625 9.14918 0.621763 9.29226 0.727252 9.39775C0.832742 9.50324 0.975816 9.5625 1.125 9.5625H16.875C17.0242 9.5625 17.1673 9.50324 17.2727 9.39775C17.3782 9.29226 17.4375 9.14918 17.4375 9C17.4375 8.85082 17.3782 8.70774 17.2727 8.60225C17.1673 8.49676 17.0242 8.4375 16.875 8.4375Z" fill="#555555"/>
</svg>
