<?xml version="1.0" standalone="no"?>
<!DOCTYPE svg PUBLIC "-//W3C//DTD SVG 20010904//EN"
 "http://www.w3.org/TR/2001/REC-SVG-20010904/DTD/svg10.dtd">
<svg version="1.0" xmlns="http://www.w3.org/2000/svg"
 width="16.000000pt" height="16.000000pt" viewBox="0 0 16.000000 16.000000"
 preserveAspectRatio="xMidYMid meet">

<g transform="translate(0.000000,16.000000) scale(0.100000,-0.100000)"
fill="#000000" stroke="none">
<path d="M20 135 c-19 -22 -8 -25 13 -3 9 10 13 18 8 18 -5 0 -14 -7 -21 -15z"/>
<path d="M103 137 c10 -6 21 -26 26 -42 7 -21 10 -24 10 -10 1 24 -25 65 -41
65 -7 0 -4 -6 5 -13z"/>
<path d="M10 62 c0 -16 41 -42 65 -41 14 0 11 3 -10 10 -16 5 -36 16 -42 26
-7 9 -13 12 -13 5z"/>
<path d="M109 43 c-7 -10 -9 -15 -4 -10 4 4 18 -1 29 -10 21 -18 21 -18 3 3
-9 11 -14 24 -10 27 3 4 4 7 1 7 -3 0 -12 -8 -19 -17z"/>
</g>
</svg>
