<svg width="19" height="19" viewBox="0 0 19 19" fill="none" xmlns="http://www.w3.org/2000/svg">
<path d="M8.65861 1.53125C4.73296 1.53125 1.53516 4.72905 1.53516 8.65472C1.53516 12.5804 4.73296 15.7844 8.65861 15.7844C10.3354 15.7844 11.8775 15.1968 13.0963 14.2211L16.0635 17.1868C16.2132 17.3303 16.4132 17.4095 16.6206 17.4074C16.828 17.4053 17.0264 17.322 17.1731 17.1754C17.3199 17.0289 17.4035 16.8307 17.4059 16.6233C17.4083 16.4159 17.3294 16.2158 17.186 16.0658L14.2188 13.0986C15.1953 11.878 15.7836 10.3334 15.7836 8.65472C15.7836 4.72905 12.5843 1.53125 8.65861 1.53125ZM8.65861 3.11461C11.7286 3.11461 14.1987 5.58476 14.1987 8.65472C14.1987 11.7247 11.7286 14.201 8.65861 14.201C5.58866 14.201 3.11849 11.7247 3.11849 8.65472C3.11849 5.58476 5.58866 3.11461 8.65861 3.11461Z" fill="#777777"/>
</svg>
