<svg width="13" height="15" viewBox="0 0 13 15" fill="none" xmlns="http://www.w3.org/2000/svg">
<path d="M11.875 6.43538V6.43541C11.8749 7.59374 11.5822 8.73327 11.024 9.74822C10.4659 10.7629 9.66054 11.6202 8.68264 12.2405C8.68241 12.2407 8.68218 12.2408 8.68195 12.241L7.15417 13.217C7.15411 13.2171 7.15406 13.2171 7.154 13.2172C6.95933 13.342 6.73293 13.4084 6.50167 13.4084C6.27041 13.4084 6.044 13.342 5.84934 13.2172C5.84928 13.2171 5.84923 13.2171 5.84917 13.217L4.32084 12.2406C4.3207 12.2405 4.32056 12.2404 4.32042 12.2403C3.34381 11.6191 2.53986 10.7614 1.98309 9.74663C1.42629 8.73184 1.13472 7.59289 1.13542 6.43538H11.875ZM11.875 6.43538V4.22637M11.875 6.43538L1.91118 3.09214M1.91118 3.09214L1.91118 3.09214L6.06667 1.51349C6.06713 1.51331 6.06759 1.51314 6.06805 1.51296C6.34717 1.40565 6.65617 1.40565 6.93529 1.51296C6.93575 1.51314 6.93621 1.51331 6.93667 1.51349L11.0896 3.09117C11.0901 3.09136 11.0906 3.09154 11.091 3.09172C11.3217 3.17824 11.5204 3.33319 11.6605 3.53584C11.8008 3.73873 11.8757 3.9797 11.875 4.22637M1.91118 3.09214L1.90876 3.09307M1.91118 3.09214L1.90876 3.09307M11.875 4.22637C11.875 4.22658 11.875 4.22679 11.875 4.22701L11.375 4.22538H11.875V4.22637ZM1.90876 3.09307C1.67975 3.18143 1.48308 3.33745 1.34493 3.54036C1.20715 3.74272 1.1341 3.98213 1.13542 4.22691M1.90876 3.09307L1.13542 4.22691M1.13542 4.22691V6.43525V4.22691ZM9.17209 13.0158L8.90428 12.5936L7.37428 13.564L7.37375 13.5643C7.11309 13.7301 6.81058 13.8182 6.50167 13.8182C6.19276 13.8182 5.89024 13.7301 5.62959 13.5643L5.62906 13.564L4.09943 12.5938C4.09936 12.5938 4.09928 12.5937 4.0992 12.5937C3.0628 11.935 2.20954 11.0252 1.61858 9.9487C1.02758 8.87215 0.718065 7.66377 0.718751 6.43566V6.43538V4.22565C0.719085 3.89681 0.819174 3.57581 1.0058 3.30506C1.19246 3.03426 1.4569 2.82647 1.76417 2.70917L1.76417 2.70917L1.76678 2.70816L5.76657 1.15538H5.83595L5.92209 1.1225C6.29534 0.98 6.708 0.98 7.08125 1.1225L7.08132 1.12253L11.2392 2.7092L11.2408 2.7098C11.5491 2.82623 11.8147 3.03365 12.0024 3.30452C12.1899 3.57518 12.2908 3.89641 12.2917 4.22567V6.43537C12.2916 7.6641 11.9811 8.87289 11.3889 9.94949C10.7967 11.0261 9.94209 11.9356 8.90436 12.5935L9.17209 13.0158Z" fill="#222221" stroke="#6A6A6A"/>
</svg>
