<svg width="14" height="14" viewBox="0 0 14 14" fill="none" xmlns="http://www.w3.org/2000/svg">
<g clip-path="url(#clip0_1419_1607)">
<path d="M3.40549 3.27747L8.5787 1.8654L8.30473 1.31165C8.12549 0.95171 7.68832 0.803071 7.32838 0.982312L2.69727 3.27747H3.40549Z" fill="#7966FF"/>
<path d="M10.1837 1.90625C10.1196 1.90625 10.0555 1.91499 9.99139 1.93248L8.77606 2.26473L5.06445 3.27752H9.27734H11.1135L10.8861 2.44397C10.7987 2.11901 10.5043 1.90625 10.1837 1.90625Z" fill="#7966FF"/>
<path d="M11.8736 3.78906H11.7075H11.4816H11.2557H9.53182H3.19718H2.36655H1.66708H1.53738H1.10313C0.872881 3.78906 0.66741 3.89544 0.533344 4.06302C0.472139 4.14026 0.425508 4.22915 0.399277 4.32679C0.383248 4.38799 0.373047 4.45211 0.373047 4.51768V4.60512V5.43575V12.636C0.373047 13.0382 0.699469 13.3646 1.10167 13.3646H11.8721C12.2744 13.3646 12.6008 13.0382 12.6008 12.636V10.6031H8.27713C7.59368 10.6031 7.03847 10.0479 7.03847 9.36447V8.69705V8.47118V8.24531V7.74402C7.03847 7.40885 7.17253 7.1043 7.38967 6.88135C7.58203 6.68315 7.83996 6.54908 8.12849 6.51556C8.17658 6.50975 8.22613 6.50682 8.27567 6.50682H11.9946H12.2204H12.4463H12.6008V4.51768C12.6022 4.11548 12.2758 3.78906 11.8736 3.78906Z" fill="#7966FF"/>
<path d="M13.1126 7.1987C13.0397 7.13166 12.9537 7.08066 12.8576 7.04714C12.7832 7.02238 12.7046 7.00781 12.6215 7.00781H12.6025H12.588H12.3621H11.5475H8.27745C7.87524 7.00781 7.54883 7.33422 7.54883 7.73643V8.09927V8.32514V8.55102V9.35833C7.54883 9.76053 7.87524 10.087 8.27745 10.087H12.6025H12.6215C12.7046 10.087 12.7832 10.0724 12.8576 10.0476C12.9537 10.0155 13.0397 9.96309 13.1126 9.89605C13.2583 9.76344 13.3501 9.57109 13.3501 9.35834V7.73643C13.3501 7.52366 13.2583 7.33129 13.1126 7.1987ZM9.79881 8.69237C9.79881 8.89347 9.6356 9.05668 9.4345 9.05668H9.1926C8.9915 9.05668 8.82829 8.89347 8.82829 8.69237V8.45047C8.82829 8.33389 8.8822 8.23041 8.96818 8.16483C9.03084 8.11674 9.10809 8.08616 9.1926 8.08616H9.2538H9.4345C9.6356 8.08616 9.79881 8.24935 9.79881 8.45047V8.69237Z" fill="#7966FF"/>
</g>
<defs>
<clipPath id="clip0_1419_1607">
<rect width="12.9767" height="12.9767" fill="white" transform="translate(0.373047 0.648438)"/>
</clipPath>
</defs>
</svg>
