<svg width="20" height="20" viewBox="0 0 20 20" fill="none" xmlns="http://www.w3.org/2000/svg">
<path d="M15.591 2.74508C15.5133 2.66738 15.4211 2.60574 15.3196 2.56369C15.218 2.52164 15.1092 2.5 14.9993 2.5C14.7774 2.5 14.5646 2.58816 14.4077 2.74508C14.2508 2.902 14.1626 3.11483 14.1626 3.33674C14.1626 3.55866 14.2508 3.77149 14.4077 3.92841L15.491 5.00341H2.49935C2.27834 5.00341 2.06637 5.09121 1.91009 5.24749C1.75381 5.40377 1.66602 5.61573 1.66602 5.83674C1.66602 6.05776 1.75381 6.26972 1.91009 6.426C2.06637 6.58228 2.27834 6.67008 2.49935 6.67008H15.491L14.4077 7.74508C14.3296 7.82255 14.2676 7.91471 14.2253 8.01626C14.183 8.11781 14.1612 8.22673 14.1612 8.33674C14.1612 8.44675 14.183 8.55567 14.2253 8.65722C14.2676 8.75877 14.3296 8.85094 14.4077 8.92841C14.4852 9.00652 14.5773 9.06851 14.6789 9.11082C14.7804 9.15313 14.8893 9.17491 14.9993 9.17491C15.1094 9.17491 15.2183 9.15313 15.3198 9.11082C15.4214 9.06851 15.5135 9.00652 15.591 8.92841L18.091 6.42841C18.1691 6.35094 18.2311 6.25877 18.2734 6.15722C18.3157 6.05567 18.3375 5.94675 18.3375 5.83674C18.3375 5.72673 18.3157 5.61781 18.2734 5.51626C18.2311 5.41471 18.1691 5.32255 18.091 5.24508L15.591 2.74508Z" fill="#292929"/>
<path d="M17.5003 13.3315H4.50861L5.59194 12.2565C5.74886 12.0996 5.83702 11.8868 5.83702 11.6649C5.83702 11.4429 5.74886 11.2301 5.59194 11.0732C5.43502 10.9163 5.22219 10.8281 5.00027 10.8281C4.77836 10.8281 4.56553 10.9163 4.40861 11.0732L1.90861 13.5732C1.8305 13.6507 1.76851 13.7428 1.7262 13.8444C1.68389 13.9459 1.66211 14.0549 1.66211 14.1649C1.66211 14.2749 1.68389 14.3838 1.7262 14.4853C1.76851 14.5869 1.8305 14.6791 1.90861 14.7565L4.40861 17.2565C4.48608 17.3346 4.57824 17.3966 4.67979 17.4389C4.78134 17.4813 4.89026 17.503 5.00027 17.503C5.11028 17.503 5.21921 17.4813 5.32076 17.4389C5.4223 17.3966 5.51447 17.3346 5.59194 17.2565C5.67005 17.1791 5.73204 17.0869 5.77435 16.9853C5.81666 16.8838 5.83844 16.7749 5.83844 16.6649C5.83844 16.5549 5.81666 16.4459 5.77435 16.3444C5.73204 16.2428 5.67005 16.1507 5.59194 16.0732L4.50861 14.9982H17.5003C17.7213 14.9982 17.9333 14.9104 18.0895 14.7541C18.2458 14.5978 18.3336 14.3859 18.3336 14.1649C18.3336 13.9439 18.2458 13.7319 18.0895 13.5756C17.9333 13.4193 17.7213 13.3315 17.5003 13.3315Z" fill="#292929"/>
</svg>
