<svg width="22" height="22" viewBox="0 0 22 22" fill="none" xmlns="http://www.w3.org/2000/svg">
<path d="M18.9062 9.28125H13.9975C13.9993 9.37495 13.9962 10.0158 13.9975 10.0856C13.996 10.1359 13.9837 10.1853 13.9615 10.2305C13.9393 10.2756 13.9076 10.3155 13.8687 10.3474C13.8297 10.3793 13.7844 10.4025 13.7358 10.4154C13.6871 10.4282 13.6362 10.4305 13.5866 10.4221C13.537 10.4137 13.4898 10.3947 13.4481 10.3665C13.4064 10.3382 13.3713 10.3014 13.3451 10.2584C13.3189 10.2154 13.3022 10.1674 13.2961 10.1174C13.2901 10.0674 13.2948 10.0167 13.31 9.96875V9.28125H3.09375C2.63796 9.28141 2.20088 9.46255 1.87859 9.78484C1.5563 10.1071 1.37516 10.5442 1.375 11V18.1603C1.37516 18.6161 1.5563 19.0532 1.87859 19.3755C2.20088 19.6978 2.63796 19.8789 3.09375 19.8791H13.31V19.1916C13.2941 19.1381 13.2909 19.0816 13.3007 19.0266C13.3105 18.9717 13.333 18.9198 13.3664 18.8751C13.3998 18.8303 13.4431 18.794 13.493 18.769C13.5429 18.744 13.5979 18.7309 13.6537 18.7309C13.7096 18.7309 13.7646 18.744 13.8145 18.769C13.8644 18.794 13.9077 18.8303 13.9411 18.8751C13.9745 18.9198 13.997 18.9717 14.0068 19.0266C14.0165 19.0816 14.0134 19.1381 13.9975 19.1916L13.9975 19.8791H18.9062C19.362 19.8789 19.7991 19.6978 20.1214 19.3755C20.4437 19.0532 20.6248 18.6161 20.625 18.1603V11C20.6248 10.5442 20.4437 10.1071 20.1214 9.78484C19.7991 9.46255 19.362 9.28141 18.9062 9.28125ZM13.6538 11.5397C13.7448 11.5399 13.8321 11.5762 13.8965 11.6407C13.9609 11.7051 13.9972 11.7923 13.9975 11.8834V13.5231C13.9975 13.6143 13.9613 13.7017 13.8968 13.7662C13.8324 13.8307 13.7449 13.8669 13.6538 13.8669C13.5626 13.8669 13.4751 13.8307 13.4107 13.7662C13.3462 13.7017 13.31 13.6143 13.31 13.5231V11.8834C13.3103 11.7924 13.3466 11.7051 13.411 11.6407C13.4754 11.5763 13.5627 11.54 13.6538 11.5397ZM10.4053 17.2941C10.4571 17.4602 10.4555 17.6384 10.4008 17.8036C10.3461 17.9689 10.241 18.1128 10.1003 18.2152C9.95958 18.3176 9.79031 18.3734 9.61627 18.3746C9.44223 18.3759 9.27218 18.3225 9.13 18.2222L7.76875 17.2322C7.74518 17.2138 7.71614 17.2038 7.68625 17.2038C7.65636 17.2038 7.62732 17.2138 7.60375 17.2322L6.2425 18.2222C6.10072 18.3248 5.93009 18.38 5.75505 18.3798C5.58001 18.3796 5.40953 18.324 5.268 18.221C5.12647 18.118 5.02115 17.9728 4.96712 17.8064C4.91309 17.6399 4.91311 17.4605 4.96719 17.2941L5.48625 15.6956C5.49625 15.6676 5.49697 15.6371 5.48831 15.6086C5.47964 15.5801 5.46205 15.5552 5.43812 15.5375L4.07687 14.5475C3.9371 14.4439 3.83335 14.2991 3.78026 14.1334C3.72717 13.9677 3.72741 13.7896 3.78095 13.624C3.83448 13.4585 3.93862 13.3139 4.07867 13.2107C4.21873 13.1075 4.38764 13.0509 4.5616 13.0487H6.24593C6.27558 13.0489 6.30452 13.0397 6.32861 13.0224C6.35269 13.0051 6.37068 12.9806 6.38 12.9525L6.89906 11.3541C6.95258 11.1874 7.05764 11.0419 7.19911 10.9388C7.34058 10.8356 7.51115 10.78 7.68625 10.78C7.86134 10.78 8.03191 10.8356 8.17338 10.9388C8.31485 11.0419 8.41991 11.1874 8.47343 11.3541L8.9925 12.9525C9.00181 12.9806 9.0198 13.0051 9.04389 13.0224C9.06797 13.0397 9.09691 13.0489 9.12656 13.0487H10.8109C10.9849 13.0509 11.1538 13.1075 11.2938 13.2108C11.4339 13.314 11.538 13.4585 11.5915 13.6241C11.6451 13.7896 11.6453 13.9677 11.5922 14.1334C11.5391 14.2991 11.4354 14.4439 11.2956 14.5475L9.93437 15.5375C9.91066 15.5554 9.89301 15.5802 9.88379 15.6085C9.87457 15.6367 9.87423 15.6672 9.88281 15.6956L10.4053 17.2941ZM13.6538 17.1428C13.5627 17.1425 13.4754 17.1062 13.411 17.0418C13.3466 16.9774 13.3103 16.8901 13.31 16.7991V15.1628C13.31 15.0716 13.3462 14.9842 13.4107 14.9197C13.4751 14.8553 13.5626 14.8191 13.6538 14.8191C13.7449 14.8191 13.8324 14.8553 13.8968 14.9197C13.9613 14.9842 13.9975 15.0716 13.9975 15.1628V16.7991C13.9972 16.8901 13.9609 16.9774 13.8965 17.0418C13.8321 17.1062 13.7448 17.1425 13.6538 17.1428Z" fill="#7966FF"/>
<path d="M2.46791 8.67923C2.66728 8.62423 18.906 8.59673 18.906 8.59673C19.3285 8.60153 19.7432 8.71139 20.1126 8.91642L17.9917 3.24111C17.8297 2.81536 17.5066 2.47056 17.0922 2.28139C16.6779 2.09223 16.2057 2.07394 15.7779 2.23048L2.8976 7.03955C2.51815 7.18121 2.20101 7.45247 2.00224 7.80536C1.80346 8.15825 1.73585 8.57006 1.81135 8.96798C2.01408 8.8386 2.23553 8.74121 2.46791 8.67923Z" fill="#C9C2FF"/>
<path d="M9.53241 14.9819L10.8937 13.9953C10.9184 13.9782 10.9368 13.9535 10.9461 13.9249C10.9554 13.8964 10.9551 13.8655 10.9452 13.8372C10.9374 13.8079 10.9199 13.7821 10.8955 13.764C10.8712 13.7459 10.8415 13.7366 10.8112 13.7375H9.12679C8.95188 13.7388 8.78114 13.6841 8.63952 13.5814C8.4979 13.4787 8.39281 13.3335 8.3396 13.1669L7.82054 11.565C7.81107 11.5369 7.79304 11.5126 7.76899 11.4953C7.74494 11.478 7.71608 11.4688 7.68648 11.4688C7.65687 11.4688 7.62801 11.478 7.60396 11.4953C7.57991 11.5126 7.56188 11.5369 7.55241 11.565C6.72552 14.0732 7.18606 13.7186 4.56179 13.7375C4.53148 13.7365 4.50175 13.7459 4.47741 13.764C4.45308 13.7821 4.43557 13.8079 4.42773 13.8372C4.41769 13.865 4.41732 13.8954 4.42668 13.9235C4.43603 13.9515 4.45457 13.9756 4.47929 13.9919L5.84054 14.9819C5.9822 15.0843 6.08778 15.2289 6.14213 15.395C6.19647 15.5612 6.19679 15.7402 6.14304 15.9065L5.62054 17.5084C5.61009 17.5367 5.60949 17.5678 5.61885 17.5964C5.6282 17.6251 5.64697 17.6498 5.6721 17.6666C5.69578 17.6847 5.72478 17.6945 5.7546 17.6945C5.78442 17.6945 5.81342 17.6847 5.8371 17.6666L7.19835 16.6765C7.33993 16.5743 7.51012 16.5193 7.68476 16.5193C7.85939 16.5193 8.02959 16.5743 8.17116 16.6765L9.53585 17.6666C9.55957 17.6846 9.58855 17.6944 9.61835 17.6944C9.64815 17.6944 9.67713 17.6846 9.70085 17.6666C9.72547 17.6494 9.7436 17.6245 9.75233 17.5958C9.76106 17.5671 9.75988 17.5364 9.74898 17.5084L9.22991 15.9065C9.17617 15.7402 9.17649 15.5612 9.23084 15.395C9.28518 15.2289 9.39076 15.0843 9.53241 14.9819Z" fill="#7966FF"/>
</svg>
